solid OpenSCAD_Model
  facet normal -0.991445 -0.130527 0
    outer loop
      vertex 11.25 0 -1.8
      vertex 11.1904 0.452933 1.5
      vertex 11.1904 0.452933 -1.8
    endloop
  endfacet
  facet normal -0.991445 -0.130527 0
    outer loop
      vertex 11.1904 0.452933 1.5
      vertex 11.25 0 -1.8
      vertex 11.25 0 1.5
    endloop
  endfacet
  facet normal 0.991445 0.130525 0
    outer loop
      vertex 7.80963 -0.452933 1.5
      vertex 7.75 0 -1.8
      vertex 7.75 0 1.5
    endloop
  endfacet
  facet normal 0.991445 0.130525 0
    outer loop
      vertex 7.75 0 -1.8
      vertex 7.80963 -0.452933 1.5
      vertex 7.80963 -0.452933 -1.8
    endloop
  endfacet
  facet normal 0.130527 -0.991445 0
    outer loop
      vertex 9.04707 1.69037 -1.8
      vertex 9.5 1.75 1.5
      vertex 9.04707 1.69037 1.5
    endloop
  endfacet
  facet normal 0.130527 -0.991445 0
    outer loop
      vertex 9.5 1.75 1.5
      vertex 9.04707 1.69037 -1.8
      vertex 9.5 1.75 -1.8
    endloop
  endfacet
  facet normal -0.130527 0.991445 0
    outer loop
      vertex 9.95293 -1.69037 -1.8
      vertex 9.5 -1.75 1.5
      vertex 9.95293 -1.69037 1.5
    endloop
  endfacet
  facet normal -0.130527 0.991445 0
    outer loop
      vertex 9.5 -1.75 1.5
      vertex 9.95293 -1.69037 -1.8
      vertex 9.5 -1.75 -1.8
    endloop
  endfacet
  facet normal -0.382683 0.92388 0
    outer loop
      vertex 10.375 -1.51554 -1.8
      vertex 9.95293 -1.69037 1.5
      vertex 10.375 -1.51554 1.5
    endloop
  endfacet
  facet normal -0.382683 0.92388 0
    outer loop
      vertex 9.95293 -1.69037 1.5
      vertex 10.375 -1.51554 -1.8
      vertex 9.95293 -1.69037 -1.8
    endloop
  endfacet
  facet normal -0.608762 -0.793353 0
    outer loop
      vertex 10.375 1.51554 -1.8
      vertex 10.7374 1.23744 1.5
      vertex 10.375 1.51554 1.5
    endloop
  endfacet
  facet normal -0.608762 -0.793353 -0
    outer loop
      vertex 10.7374 1.23744 1.5
      vertex 10.375 1.51554 -1.8
      vertex 10.7374 1.23744 -1.8
    endloop
  endfacet
  facet normal 0.793354 -0.608761 0
    outer loop
      vertex 7.98446 0.874999 1.5
      vertex 8.26256 1.23744 -1.8
      vertex 8.26256 1.23744 1.5
    endloop
  endfacet
  facet normal 0.793354 -0.608761 0
    outer loop
      vertex 8.26256 1.23744 -1.8
      vertex 7.98446 0.874999 1.5
      vertex 7.98446 0.874999 -1.8
    endloop
  endfacet
  facet normal 0.923879 -0.382684 0
    outer loop
      vertex 7.80963 0.452933 1.5
      vertex 7.98446 0.874999 -1.8
      vertex 7.98446 0.874999 1.5
    endloop
  endfacet
  facet normal 0.923879 -0.382684 0
    outer loop
      vertex 7.98446 0.874999 -1.8
      vertex 7.80963 0.452933 1.5
      vertex 7.80963 0.452933 -1.8
    endloop
  endfacet
  facet normal 0.608761 -0.793354 0
    outer loop
      vertex 8.26256 1.23744 -1.8
      vertex 8.625 1.51554 1.5
      vertex 8.26256 1.23744 1.5
    endloop
  endfacet
  facet normal 0.608761 -0.793354 0
    outer loop
      vertex 8.625 1.51554 1.5
      vertex 8.26256 1.23744 -1.8
      vertex 8.625 1.51554 -1.8
    endloop
  endfacet
  facet normal 0.608761 0.793354 -0
    outer loop
      vertex 8.625 -1.51554 -1.8
      vertex 8.26256 -1.23744 1.5
      vertex 8.625 -1.51554 1.5
    endloop
  endfacet
  facet normal 0.608761 0.793354 0
    outer loop
      vertex 8.26256 -1.23744 1.5
      vertex 8.625 -1.51554 -1.8
      vertex 8.26256 -1.23744 -1.8
    endloop
  endfacet
  facet normal -0.793354 -0.608761 0
    outer loop
      vertex 11.0155 0.874999 -1.8
      vertex 10.7374 1.23744 1.5
      vertex 10.7374 1.23744 -1.8
    endloop
  endfacet
  facet normal -0.793354 -0.608761 0
    outer loop
      vertex 10.7374 1.23744 1.5
      vertex 11.0155 0.874999 -1.8
      vertex 11.0155 0.874999 1.5
    endloop
  endfacet
  facet normal -0.923879 -0.382684 0
    outer loop
      vertex 11.1904 0.452933 -1.8
      vertex 11.0155 0.874999 1.5
      vertex 11.0155 0.874999 -1.8
    endloop
  endfacet
  facet normal -0.923879 -0.382684 0
    outer loop
      vertex 11.0155 0.874999 1.5
      vertex 11.1904 0.452933 -1.8
      vertex 11.1904 0.452933 1.5
    endloop
  endfacet
  facet normal -0.130527 -0.991445 0
    outer loop
      vertex 9.5 1.75 -1.8
      vertex 9.95293 1.69037 1.5
      vertex 9.5 1.75 1.5
    endloop
  endfacet
  facet normal -0.130527 -0.991445 -0
    outer loop
      vertex 9.95293 1.69037 1.5
      vertex 9.5 1.75 -1.8
      vertex 9.95293 1.69037 -1.8
    endloop
  endfacet
  facet normal -0.382683 -0.92388 0
    outer loop
      vertex 9.95293 1.69037 -1.8
      vertex 10.375 1.51554 1.5
      vertex 9.95293 1.69037 1.5
    endloop
  endfacet
  facet normal -0.382683 -0.92388 -0
    outer loop
      vertex 10.375 1.51554 1.5
      vertex 9.95293 1.69037 -1.8
      vertex 10.375 1.51554 -1.8
    endloop
  endfacet
  facet normal 0 0 -1
    outer loop
      vertex 11.0155 -0.875 -1.8
      vertex 12.5 0 -1.8
      vertex 12.0741 -3.23524 -1.8
    endloop
  endfacet
  facet normal 0 0 -1
    outer loop
      vertex 11.1904 0.452933 -1.8
      vertex 12.5 0 -1.8
      vertex 11.25 0 -1.8
    endloop
  endfacet
  facet normal -0 0 -1
    outer loop
      vertex 12.5 0 -1.8
      vertex 11.1904 -0.452933 -1.8
      vertex 11.25 0 -1.8
    endloop
  endfacet
  facet normal 0 0 -1
    outer loop
      vertex 12.5 0 -1.8
      vertex 11.0155 -0.875 -1.8
      vertex 11.1904 -0.452933 -1.8
    endloop
  endfacet
  facet normal 0 0 -1
    outer loop
      vertex 9.5 -1.75 -1.8
      vertex 12.0741 -3.23524 -1.8
      vertex 10.8253 -6.25 -1.8
    endloop
  endfacet
  facet normal 0 0 -1
    outer loop
      vertex 12.0741 -3.23524 -1.8
      vertex 10.7374 -1.23744 -1.8
      vertex 11.0155 -0.875 -1.8
    endloop
  endfacet
  facet normal 0 0 -1
    outer loop
      vertex 12.0741 -3.23524 -1.8
      vertex 10.375 -1.51554 -1.8
      vertex 10.7374 -1.23744 -1.8
    endloop
  endfacet
  facet normal 0 0 -1
    outer loop
      vertex 12.0741 -3.23524 -1.8
      vertex 9.95293 -1.69037 -1.8
      vertex 10.375 -1.51554 -1.8
    endloop
  endfacet
  facet normal 0 0 -1
    outer loop
      vertex 12.0741 -3.23524 -1.8
      vertex 9.5 -1.75 -1.8
      vertex 9.95293 -1.69037 -1.8
    endloop
  endfacet
  facet normal 0 0 -1
    outer loop
      vertex 6.58179 -3.8 -1.8
      vertex 9.5 -1.75 -1.8
      vertex 10.8253 -6.25 -1.8
    endloop
  endfacet
  facet normal 0 0 -1
    outer loop
      vertex 6.58179 -3.8 -1.8
      vertex 10.8253 -6.25 -1.8
      vertex 8.83883 -8.83883 -1.8
    endloop
  endfacet
  facet normal -0 0 -1
    outer loop
      vertex 9.5 -1.75 -1.8
      vertex 6.58179 -3.8 -1.8
      vertex 9.04707 -1.69037 -1.8
    endloop
  endfacet
  facet normal -0 0 -1
    outer loop
      vertex 9.04707 -1.69037 -1.8
      vertex 6.58179 -3.8 -1.8
      vertex 8.625 -1.51554 -1.8
    endloop
  endfacet
  facet normal -0 0 -1
    outer loop
      vertex 8.625 -1.51554 -1.8
      vertex 6.58179 -3.8 -1.8
      vertex 8.26256 -1.23744 -1.8
    endloop
  endfacet
  facet normal -0 0 -1
    outer loop
      vertex 8.26256 -1.23744 -1.8
      vertex 6.58179 -3.8 -1.8
      vertex 7.98446 -0.874999 -1.8
    endloop
  endfacet
  facet normal -0 0 -1
    outer loop
      vertex 7.98446 -0.874999 -1.8
      vertex 6.58179 -3.8 -1.8
      vertex 7.80963 -0.452933 -1.8
    endloop
  endfacet
  facet normal -0 0 -1
    outer loop
      vertex 7.80963 -0.452933 -1.8
      vertex 6.58179 -3.8 -1.8
      vertex 7.75 0 -1.8
    endloop
  endfacet
  facet normal 0 0 -1
    outer loop
      vertex 6.25 -10.8253 -1.8
      vertex 6.58179 -3.8 -1.8
      vertex 8.83883 -8.83883 -1.8
    endloop
  endfacet
  facet normal 0 0 -1
    outer loop
      vertex 0 -7.6 -1.8
      vertex 6.25 -10.8253 -1.8
      vertex 3.23524 -12.0741 -1.8
    endloop
  endfacet
  facet normal 0 0 -1
    outer loop
      vertex 0 -7.6 -1.8
      vertex 3.23524 -12.0741 -1.8
      vertex 0 -12.5 -1.8
    endloop
  endfacet
  facet normal 0 0 -1
    outer loop
      vertex 6.25 -10.8253 -1.8
      vertex 0 -7.6 -1.8
      vertex 6.58179 -3.8 -1.8
    endloop
  endfacet
  facet normal 0 0 -1
    outer loop
      vertex -3.23524 -12.0741 -1.8
      vertex 0 -7.6 -1.8
      vertex 0 -12.5 -1.8
    endloop
  endfacet
  facet normal 0 0 -1
    outer loop
      vertex -6.25 -10.8253 -1.8
      vertex 0 -7.6 -1.8
      vertex -3.23524 -12.0741 -1.8
    endloop
  endfacet
  facet normal 0 0 -1
    outer loop
      vertex -6.25 -10.8253 -1.8
      vertex -6.58179 -3.8 -1.8
      vertex 0 -7.6 -1.8
    endloop
  endfacet
  facet normal 0 0 -1
    outer loop
      vertex -6.58179 -3.8 -1.8
      vertex -7.75 0 -1.8
      vertex -6.58179 3.8 -1.8
    endloop
  endfacet
  facet normal 0 0 -1
    outer loop
      vertex -8.83883 -8.83883 -1.8
      vertex -6.58179 -3.8 -1.8
      vertex -6.25 -10.8253 -1.8
    endloop
  endfacet
  facet normal 0 0 -1
    outer loop
      vertex -6.58179 -3.8 -1.8
      vertex -7.80963 -0.452933 -1.8
      vertex -7.75 0 -1.8
    endloop
  endfacet
  facet normal 0 0 -1
    outer loop
      vertex -6.58179 -3.8 -1.8
      vertex -7.98446 -0.875 -1.8
      vertex -7.80963 -0.452933 -1.8
    endloop
  endfacet
  facet normal 0 0 -1
    outer loop
      vertex -6.58179 -3.8 -1.8
      vertex -8.26256 -1.23744 -1.8
      vertex -7.98446 -0.875 -1.8
    endloop
  endfacet
  facet normal 0 0 -1
    outer loop
      vertex -10.8253 -6.25 -1.8
      vertex -6.58179 -3.8 -1.8
      vertex -8.83883 -8.83883 -1.8
    endloop
  endfacet
  facet normal 0 0 -1
    outer loop
      vertex -6.58179 -3.8 -1.8
      vertex -8.625 -1.51554 -1.8
      vertex -8.26256 -1.23744 -1.8
    endloop
  endfacet
  facet normal 0 -0 -1
    outer loop
      vertex -9.5 -1.75 -1.8
      vertex -6.58179 -3.8 -1.8
      vertex -10.8253 -6.25 -1.8
    endloop
  endfacet
  facet normal 0 0 -1
    outer loop
      vertex -6.58179 -3.8 -1.8
      vertex -9.04707 -1.69037 -1.8
      vertex -8.625 -1.51554 -1.8
    endloop
  endfacet
  facet normal 0 0 -1
    outer loop
      vertex -6.58179 -3.8 -1.8
      vertex -9.5 -1.75 -1.8
      vertex -9.04707 -1.69037 -1.8
    endloop
  endfacet
  facet normal 0 0 -1
    outer loop
      vertex -12.0741 -3.23524 -1.8
      vertex -9.5 -1.75 -1.8
      vertex -10.8253 -6.25 -1.8
    endloop
  endfacet
  facet normal -0 0 -1
    outer loop
      vertex -9.5 -1.75 -1.8
      vertex -12.0741 -3.23524 -1.8
      vertex -9.95293 -1.69037 -1.8
    endloop
  endfacet
  facet normal -0 0 -1
    outer loop
      vertex -9.95293 -1.69037 -1.8
      vertex -12.0741 -3.23524 -1.8
      vertex -10.375 -1.51554 -1.8
    endloop
  endfacet
  facet normal -0 0 -1
    outer loop
      vertex -10.375 -1.51554 -1.8
      vertex -12.0741 -3.23524 -1.8
      vertex -10.7374 -1.23744 -1.8
    endloop
  endfacet
  facet normal -0 0 -1
    outer loop
      vertex -10.7374 -1.23744 -1.8
      vertex -12.0741 -3.23524 -1.8
      vertex -11.0155 -0.874999 -1.8
    endloop
  endfacet
  facet normal 0 0 -1
    outer loop
      vertex -12.5 0 -1.8
      vertex -11.0155 -0.874999 -1.8
      vertex -12.0741 -3.23524 -1.8
    endloop
  endfacet
  facet normal 0 0 -1
    outer loop
      vertex -11.0155 -0.874999 -1.8
      vertex -12.5 0 -1.8
      vertex -11.1904 -0.452933 -1.8
    endloop
  endfacet
  facet normal 0 0 -1
    outer loop
      vertex 11.0155 0.874999 -1.8
      vertex 12.5 0 -1.8
      vertex 11.1904 0.452933 -1.8
    endloop
  endfacet
  facet normal 0 0 -1
    outer loop
      vertex 12.5 0 -1.8
      vertex 11.0155 0.874999 -1.8
      vertex 12.0741 3.23524 -1.8
    endloop
  endfacet
  facet normal 0 0 -1
    outer loop
      vertex 10.7374 1.23744 -1.8
      vertex 12.0741 3.23524 -1.8
      vertex 11.0155 0.874999 -1.8
    endloop
  endfacet
  facet normal 0 0 -1
    outer loop
      vertex 10.375 1.51554 -1.8
      vertex 12.0741 3.23524 -1.8
      vertex 10.7374 1.23744 -1.8
    endloop
  endfacet
  facet normal 0 0 -1
    outer loop
      vertex 9.95293 1.69037 -1.8
      vertex 12.0741 3.23524 -1.8
      vertex 10.375 1.51554 -1.8
    endloop
  endfacet
  facet normal 0 0 -1
    outer loop
      vertex 9.5 1.75 -1.8
      vertex 12.0741 3.23524 -1.8
      vertex 9.95293 1.69037 -1.8
    endloop
  endfacet
  facet normal -0 0 -1
    outer loop
      vertex 12.0741 3.23524 -1.8
      vertex 9.5 1.75 -1.8
      vertex 10.8253 6.25 -1.8
    endloop
  endfacet
  facet normal 0 0 -1
    outer loop
      vertex 6.58179 3.8 -1.8
      vertex 9.5 1.75 -1.8
      vertex 9.04707 1.69037 -1.8
    endloop
  endfacet
  facet normal 0 0 -1
    outer loop
      vertex 9.5 1.75 -1.8
      vertex 6.58179 3.8 -1.8
      vertex 10.8253 6.25 -1.8
    endloop
  endfacet
  facet normal 0 0 -1
    outer loop
      vertex 6.58179 3.8 -1.8
      vertex 9.04707 1.69037 -1.8
      vertex 8.625 1.51554 -1.8
    endloop
  endfacet
  facet normal 0 0 -1
    outer loop
      vertex 6.58179 3.8 -1.8
      vertex 8.625 1.51554 -1.8
      vertex 8.26256 1.23744 -1.8
    endloop
  endfacet
  facet normal 0 0 -1
    outer loop
      vertex 6.58179 3.8 -1.8
      vertex 8.26256 1.23744 -1.8
      vertex 7.98446 0.874999 -1.8
    endloop
  endfacet
  facet normal 0 0 -1
    outer loop
      vertex 6.58179 3.8 -1.8
      vertex 7.98446 0.874999 -1.8
      vertex 7.80963 0.452933 -1.8
    endloop
  endfacet
  facet normal 0 0 -1
    outer loop
      vertex 6.58179 3.8 -1.8
      vertex 7.80963 0.452933 -1.8
      vertex 7.75 0 -1.8
    endloop
  endfacet
  facet normal 0 0 -1
    outer loop
      vertex 6.58179 3.8 -1.8
      vertex 7.75 0 -1.8
      vertex 6.58179 -3.8 -1.8
    endloop
  endfacet
  facet normal -0 0 -1
    outer loop
      vertex 10.8253 6.25 -1.8
      vertex 6.58179 3.8 -1.8
      vertex 8.83883 8.83883 -1.8
    endloop
  endfacet
  facet normal 0 0 -1
    outer loop
      vertex 6.58179 3.8 -1.8
      vertex 6.25 10.8253 -1.8
      vertex 8.83883 8.83883 -1.8
    endloop
  endfacet
  facet normal 0 0 -1
    outer loop
      vertex 0 7.6 -1.8
      vertex 6.25 10.8253 -1.8
      vertex 6.58179 3.8 -1.8
    endloop
  endfacet
  facet normal -0 0 -1
    outer loop
      vertex 6.25 10.8253 -1.8
      vertex 0 7.6 -1.8
      vertex 3.23524 12.0741 -1.8
    endloop
  endfacet
  facet normal 0 0 -1
    outer loop
      vertex 0 7.6 -1.8
      vertex 0 12.5 -1.8
      vertex 3.23524 12.0741 -1.8
    endloop
  endfacet
  facet normal 0 0 -1
    outer loop
      vertex 0 7.6 -1.8
      vertex -3.23524 12.0741 -1.8
      vertex 0 12.5 -1.8
    endloop
  endfacet
  facet normal 0 0 -1
    outer loop
      vertex 0 7.6 -1.8
      vertex -6.25 10.8253 -1.8
      vertex -3.23524 12.0741 -1.8
    endloop
  endfacet
  facet normal 0 0 -1
    outer loop
      vertex -6.58179 3.8 -1.8
      vertex -6.25 10.8253 -1.8
      vertex 0 7.6 -1.8
    endloop
  endfacet
  facet normal 0 0 -1
    outer loop
      vertex -7.80963 0.452933 -1.8
      vertex -6.58179 3.8 -1.8
      vertex -7.75 0 -1.8
    endloop
  endfacet
  facet normal 0 0 -1
    outer loop
      vertex -7.98446 0.874999 -1.8
      vertex -6.58179 3.8 -1.8
      vertex -7.80963 0.452933 -1.8
    endloop
  endfacet
  facet normal 0 0 -1
    outer loop
      vertex -8.26256 1.23744 -1.8
      vertex -6.58179 3.8 -1.8
      vertex -7.98446 0.874999 -1.8
    endloop
  endfacet
  facet normal 0 0 -1
    outer loop
      vertex -8.625 1.51554 -1.8
      vertex -6.58179 3.8 -1.8
      vertex -8.26256 1.23744 -1.8
    endloop
  endfacet
  facet normal 0 0 -1
    outer loop
      vertex -9.04707 1.69037 -1.8
      vertex -6.58179 3.8 -1.8
      vertex -8.625 1.51554 -1.8
    endloop
  endfacet
  facet normal 0 0 -1
    outer loop
      vertex -6.58179 3.8 -1.8
      vertex -8.83883 8.83883 -1.8
      vertex -6.25 10.8253 -1.8
    endloop
  endfacet
  facet normal 0 0 -1
    outer loop
      vertex -9.5 1.75 -1.8
      vertex -6.58179 3.8 -1.8
      vertex -9.04707 1.69037 -1.8
    endloop
  endfacet
  facet normal -0 0 -1
    outer loop
      vertex -6.58179 3.8 -1.8
      vertex -9.5 1.75 -1.8
      vertex -10.8253 6.25 -1.8
    endloop
  endfacet
  facet normal 0 0 -1
    outer loop
      vertex -12.0741 3.23524 -1.8
      vertex -9.5 1.75 -1.8
      vertex -9.95293 1.69037 -1.8
    endloop
  endfacet
  facet normal 0 0 -1
    outer loop
      vertex -12.0741 3.23524 -1.8
      vertex -9.95293 1.69037 -1.8
      vertex -10.375 1.51554 -1.8
    endloop
  endfacet
  facet normal 0 0 -1
    outer loop
      vertex -12.0741 3.23524 -1.8
      vertex -10.375 1.51554 -1.8
      vertex -10.7374 1.23744 -1.8
    endloop
  endfacet
  facet normal 0 0 -1
    outer loop
      vertex -6.58179 3.8 -1.8
      vertex -10.8253 6.25 -1.8
      vertex -8.83883 8.83883 -1.8
    endloop
  endfacet
  facet normal 0 0 -1
    outer loop
      vertex -12.0741 3.23524 -1.8
      vertex -10.7374 1.23744 -1.8
      vertex -11.0155 0.874999 -1.8
    endloop
  endfacet
  facet normal 0 0 -1
    outer loop
      vertex -12.5 0 -1.8
      vertex -11.0155 0.874999 -1.8
      vertex -11.1904 0.452933 -1.8
    endloop
  endfacet
  facet normal 0 0 -1
    outer loop
      vertex -12.5 0 -1.8
      vertex -11.1904 0.452933 -1.8
      vertex -11.25 0 -1.8
    endloop
  endfacet
  facet normal 0 0 -1
    outer loop
      vertex -11.1904 -0.452933 -1.8
      vertex -12.5 0 -1.8
      vertex -11.25 0 -1.8
    endloop
  endfacet
  facet normal 0 0 -1
    outer loop
      vertex -9.5 1.75 -1.8
      vertex -12.0741 3.23524 -1.8
      vertex -10.8253 6.25 -1.8
    endloop
  endfacet
  facet normal -0 0 -1
    outer loop
      vertex -11.0155 0.874999 -1.8
      vertex -12.5 0 -1.8
      vertex -12.0741 3.23524 -1.8
    endloop
  endfacet
  facet normal 0.991445 -0.130525 0
    outer loop
      vertex 7.75 0 1.5
      vertex 7.80963 0.452933 -1.8
      vertex 7.80963 0.452933 1.5
    endloop
  endfacet
  facet normal 0.991445 -0.130525 0
    outer loop
      vertex 7.80963 0.452933 -1.8
      vertex 7.75 0 1.5
      vertex 7.75 0 -1.8
    endloop
  endfacet
  facet normal 0.382684 -0.923879 0
    outer loop
      vertex 8.625 1.51554 -1.8
      vertex 9.04707 1.69037 1.5
      vertex 8.625 1.51554 1.5
    endloop
  endfacet
  facet normal 0.382684 -0.923879 0
    outer loop
      vertex 9.04707 1.69037 1.5
      vertex 8.625 1.51554 -1.8
      vertex 9.04707 1.69037 -1.8
    endloop
  endfacet
  facet normal -0.991445 0.130527 0
    outer loop
      vertex 11.1904 -0.452933 -1.8
      vertex 11.25 0 1.5
      vertex 11.25 0 -1.8
    endloop
  endfacet
  facet normal -0.991445 0.130527 0
    outer loop
      vertex 11.25 0 1.5
      vertex 11.1904 -0.452933 -1.8
      vertex 11.1904 -0.452933 1.5
    endloop
  endfacet
  facet normal -0.92388 0.382683 0
    outer loop
      vertex 11.0155 -0.875 -1.8
      vertex 11.1904 -0.452933 1.5
      vertex 11.1904 -0.452933 -1.8
    endloop
  endfacet
  facet normal -0.92388 0.382683 0
    outer loop
      vertex 11.1904 -0.452933 1.5
      vertex 11.0155 -0.875 -1.8
      vertex 11.0155 -0.875 1.5
    endloop
  endfacet
  facet normal -0.608762 0.793353 0
    outer loop
      vertex 10.7374 -1.23744 -1.8
      vertex 10.375 -1.51554 1.5
      vertex 10.7374 -1.23744 1.5
    endloop
  endfacet
  facet normal -0.608762 0.793353 0
    outer loop
      vertex 10.375 -1.51554 1.5
      vertex 10.7374 -1.23744 -1.8
      vertex 10.375 -1.51554 -1.8
    endloop
  endfacet
  facet normal 0.130527 0.991445 -0
    outer loop
      vertex 9.5 -1.75 -1.8
      vertex 9.04707 -1.69037 1.5
      vertex 9.5 -1.75 1.5
    endloop
  endfacet
  facet normal 0.130527 0.991445 0
    outer loop
      vertex 9.04707 -1.69037 1.5
      vertex 9.5 -1.75 -1.8
      vertex 9.04707 -1.69037 -1.8
    endloop
  endfacet
  facet normal 0.382684 0.923879 -0
    outer loop
      vertex 9.04707 -1.69037 -1.8
      vertex 8.625 -1.51554 1.5
      vertex 9.04707 -1.69037 1.5
    endloop
  endfacet
  facet normal 0.382684 0.923879 0
    outer loop
      vertex 8.625 -1.51554 1.5
      vertex 9.04707 -1.69037 -1.8
      vertex 8.625 -1.51554 -1.8
    endloop
  endfacet
  facet normal 0.793354 0.608761 0
    outer loop
      vertex 8.26256 -1.23744 1.5
      vertex 7.98446 -0.874999 -1.8
      vertex 7.98446 -0.874999 1.5
    endloop
  endfacet
  facet normal 0.793354 0.608761 0
    outer loop
      vertex 7.98446 -0.874999 -1.8
      vertex 8.26256 -1.23744 1.5
      vertex 8.26256 -1.23744 -1.8
    endloop
  endfacet
  facet normal 0.923879 0.382684 0
    outer loop
      vertex 7.98446 -0.874999 1.5
      vertex 7.80963 -0.452933 -1.8
      vertex 7.80963 -0.452933 1.5
    endloop
  endfacet
  facet normal 0.923879 0.382684 0
    outer loop
      vertex 7.80963 -0.452933 -1.8
      vertex 7.98446 -0.874999 1.5
      vertex 7.98446 -0.874999 -1.8
    endloop
  endfacet
  facet normal -0.793353 0.608762 0
    outer loop
      vertex 10.7374 -1.23744 -1.8
      vertex 11.0155 -0.875 1.5
      vertex 11.0155 -0.875 -1.8
    endloop
  endfacet
  facet normal -0.793353 0.608762 0
    outer loop
      vertex 11.0155 -0.875 1.5
      vertex 10.7374 -1.23744 -1.8
      vertex 10.7374 -1.23744 1.5
    endloop
  endfacet
  facet normal -0.991445 -0.130525 0
    outer loop
      vertex -7.75 0 -1.8
      vertex -7.80963 0.452933 1.5
      vertex -7.80963 0.452933 -1.8
    endloop
  endfacet
  facet normal -0.991445 -0.130525 0
    outer loop
      vertex -7.80963 0.452933 1.5
      vertex -7.75 0 -1.8
      vertex -7.75 0 1.5
    endloop
  endfacet
  facet normal 0.991445 -0.130527 0
    outer loop
      vertex -11.25 0 1.5
      vertex -11.1904 0.452933 -1.8
      vertex -11.1904 0.452933 1.5
    endloop
  endfacet
  facet normal 0.991445 -0.130527 0
    outer loop
      vertex -11.1904 0.452933 -1.8
      vertex -11.25 0 1.5
      vertex -11.25 0 -1.8
    endloop
  endfacet
  facet normal -0.130527 -0.991445 0
    outer loop
      vertex -9.5 1.75 -1.8
      vertex -9.04707 1.69037 1.5
      vertex -9.5 1.75 1.5
    endloop
  endfacet
  facet normal -0.130527 -0.991445 -0
    outer loop
      vertex -9.04707 1.69037 1.5
      vertex -9.5 1.75 -1.8
      vertex -9.04707 1.69037 -1.8
    endloop
  endfacet
  facet normal 0.130527 0.991445 -0
    outer loop
      vertex -9.5 -1.75 -1.8
      vertex -9.95293 -1.69037 1.5
      vertex -9.5 -1.75 1.5
    endloop
  endfacet
  facet normal 0.130527 0.991445 0
    outer loop
      vertex -9.95293 -1.69037 1.5
      vertex -9.5 -1.75 -1.8
      vertex -9.95293 -1.69037 -1.8
    endloop
  endfacet
  facet normal 0.793354 0.608761 0
    outer loop
      vertex -10.7374 -1.23744 1.5
      vertex -11.0155 -0.874999 -1.8
      vertex -11.0155 -0.874999 1.5
    endloop
  endfacet
  facet normal 0.793354 0.608761 0
    outer loop
      vertex -11.0155 -0.874999 -1.8
      vertex -10.7374 -1.23744 1.5
      vertex -10.7374 -1.23744 -1.8
    endloop
  endfacet
  facet normal -0.793354 -0.608761 0
    outer loop
      vertex -7.98446 0.874999 -1.8
      vertex -8.26256 1.23744 1.5
      vertex -8.26256 1.23744 -1.8
    endloop
  endfacet
  facet normal -0.793354 -0.608761 0
    outer loop
      vertex -8.26256 1.23744 1.5
      vertex -7.98446 0.874999 -1.8
      vertex -7.98446 0.874999 1.5
    endloop
  endfacet
  facet normal -0.923879 -0.382684 0
    outer loop
      vertex -7.80963 0.452933 -1.8
      vertex -7.98446 0.874999 1.5
      vertex -7.98446 0.874999 -1.8
    endloop
  endfacet
  facet normal -0.923879 -0.382684 0
    outer loop
      vertex -7.98446 0.874999 1.5
      vertex -7.80963 0.452933 -1.8
      vertex -7.80963 0.452933 1.5
    endloop
  endfacet
  facet normal 0.608762 -0.793353 0
    outer loop
      vertex -10.7374 1.23744 -1.8
      vertex -10.375 1.51554 1.5
      vertex -10.7374 1.23744 1.5
    endloop
  endfacet
  facet normal 0.608762 -0.793353 0
    outer loop
      vertex -10.375 1.51554 1.5
      vertex -10.7374 1.23744 -1.8
      vertex -10.375 1.51554 -1.8
    endloop
  endfacet
  facet normal 0.382683 -0.92388 0
    outer loop
      vertex -10.375 1.51554 -1.8
      vertex -9.95293 1.69037 1.5
      vertex -10.375 1.51554 1.5
    endloop
  endfacet
  facet normal 0.382683 -0.92388 0
    outer loop
      vertex -9.95293 1.69037 1.5
      vertex -10.375 1.51554 -1.8
      vertex -9.95293 1.69037 -1.8
    endloop
  endfacet
  facet normal -0.793353 0.608762 0
    outer loop
      vertex -8.26256 -1.23744 -1.8
      vertex -7.98446 -0.875 1.5
      vertex -7.98446 -0.875 -1.8
    endloop
  endfacet
  facet normal -0.793353 0.608762 0
    outer loop
      vertex -7.98446 -0.875 1.5
      vertex -8.26256 -1.23744 -1.8
      vertex -8.26256 -1.23744 1.5
    endloop
  endfacet
  facet normal -0.92388 0.382683 0
    outer loop
      vertex -7.98446 -0.875 -1.8
      vertex -7.80963 -0.452933 1.5
      vertex -7.80963 -0.452933 -1.8
    endloop
  endfacet
  facet normal -0.92388 0.382683 0
    outer loop
      vertex -7.80963 -0.452933 1.5
      vertex -7.98446 -0.875 -1.8
      vertex -7.98446 -0.875 1.5
    endloop
  endfacet
  facet normal 0.608762 0.793353 -0
    outer loop
      vertex -10.375 -1.51554 -1.8
      vertex -10.7374 -1.23744 1.5
      vertex -10.375 -1.51554 1.5
    endloop
  endfacet
  facet normal 0.608762 0.793353 0
    outer loop
      vertex -10.7374 -1.23744 1.5
      vertex -10.375 -1.51554 -1.8
      vertex -10.7374 -1.23744 -1.8
    endloop
  endfacet
  facet normal 0.991445 0.130527 0
    outer loop
      vertex -11.1904 -0.452933 1.5
      vertex -11.25 0 -1.8
      vertex -11.25 0 1.5
    endloop
  endfacet
  facet normal 0.991445 0.130527 0
    outer loop
      vertex -11.25 0 -1.8
      vertex -11.1904 -0.452933 1.5
      vertex -11.1904 -0.452933 -1.8
    endloop
  endfacet
  facet normal -0.382684 -0.923879 0
    outer loop
      vertex -9.04707 1.69037 -1.8
      vertex -8.625 1.51554 1.5
      vertex -9.04707 1.69037 1.5
    endloop
  endfacet
  facet normal -0.382684 -0.923879 -0
    outer loop
      vertex -8.625 1.51554 1.5
      vertex -9.04707 1.69037 -1.8
      vertex -8.625 1.51554 -1.8
    endloop
  endfacet
  facet normal -0.608761 -0.793354 0
    outer loop
      vertex -8.625 1.51554 -1.8
      vertex -8.26256 1.23744 1.5
      vertex -8.625 1.51554 1.5
    endloop
  endfacet
  facet normal -0.608761 -0.793354 -0
    outer loop
      vertex -8.26256 1.23744 1.5
      vertex -8.625 1.51554 -1.8
      vertex -8.26256 1.23744 -1.8
    endloop
  endfacet
  facet normal 0.793354 -0.608761 0
    outer loop
      vertex -11.0155 0.874999 1.5
      vertex -10.7374 1.23744 -1.8
      vertex -10.7374 1.23744 1.5
    endloop
  endfacet
  facet normal 0.793354 -0.608761 0
    outer loop
      vertex -10.7374 1.23744 -1.8
      vertex -11.0155 0.874999 1.5
      vertex -11.0155 0.874999 -1.8
    endloop
  endfacet
  facet normal 0.923879 -0.382684 0
    outer loop
      vertex -11.1904 0.452933 1.5
      vertex -11.0155 0.874999 -1.8
      vertex -11.0155 0.874999 1.5
    endloop
  endfacet
  facet normal 0.923879 -0.382684 0
    outer loop
      vertex -11.0155 0.874999 -1.8
      vertex -11.1904 0.452933 1.5
      vertex -11.1904 0.452933 -1.8
    endloop
  endfacet
  facet normal 0.130527 -0.991445 0
    outer loop
      vertex -9.95293 1.69037 -1.8
      vertex -9.5 1.75 1.5
      vertex -9.95293 1.69037 1.5
    endloop
  endfacet
  facet normal 0.130527 -0.991445 0
    outer loop
      vertex -9.5 1.75 1.5
      vertex -9.95293 1.69037 -1.8
      vertex -9.5 1.75 -1.8
    endloop
  endfacet
  facet normal -0.991445 0.130525 0
    outer loop
      vertex -7.80963 -0.452933 -1.8
      vertex -7.75 0 1.5
      vertex -7.75 0 -1.8
    endloop
  endfacet
  facet normal -0.991445 0.130525 0
    outer loop
      vertex -7.75 0 1.5
      vertex -7.80963 -0.452933 -1.8
      vertex -7.80963 -0.452933 1.5
    endloop
  endfacet
  facet normal -0.130527 0.991445 0
    outer loop
      vertex -9.04707 -1.69037 -1.8
      vertex -9.5 -1.75 1.5
      vertex -9.04707 -1.69037 1.5
    endloop
  endfacet
  facet normal -0.130527 0.991445 0
    outer loop
      vertex -9.5 -1.75 1.5
      vertex -9.04707 -1.69037 -1.8
      vertex -9.5 -1.75 -1.8
    endloop
  endfacet
  facet normal -0.608761 0.793354 0
    outer loop
      vertex -8.26256 -1.23744 -1.8
      vertex -8.625 -1.51554 1.5
      vertex -8.26256 -1.23744 1.5
    endloop
  endfacet
  facet normal -0.608761 0.793354 0
    outer loop
      vertex -8.625 -1.51554 1.5
      vertex -8.26256 -1.23744 -1.8
      vertex -8.625 -1.51554 -1.8
    endloop
  endfacet
  facet normal 0.382683 0.92388 -0
    outer loop
      vertex -9.95293 -1.69037 -1.8
      vertex -10.375 -1.51554 1.5
      vertex -9.95293 -1.69037 1.5
    endloop
  endfacet
  facet normal 0.382683 0.92388 0
    outer loop
      vertex -10.375 -1.51554 1.5
      vertex -9.95293 -1.69037 -1.8
      vertex -10.375 -1.51554 -1.8
    endloop
  endfacet
  facet normal 0.923879 0.382684 0
    outer loop
      vertex -11.0155 -0.874999 1.5
      vertex -11.1904 -0.452933 -1.8
      vertex -11.1904 -0.452933 1.5
    endloop
  endfacet
  facet normal 0.923879 0.382684 0
    outer loop
      vertex -11.1904 -0.452933 -1.8
      vertex -11.0155 -0.874999 1.5
      vertex -11.0155 -0.874999 -1.8
    endloop
  endfacet
  facet normal -0.382684 0.923879 0
    outer loop
      vertex -8.625 -1.51554 -1.8
      vertex -9.04707 -1.69037 1.5
      vertex -8.625 -1.51554 1.5
    endloop
  endfacet
  facet normal -0.382684 0.923879 0
    outer loop
      vertex -9.04707 -1.69037 1.5
      vertex -8.625 -1.51554 -1.8
      vertex -9.04707 -1.69037 -1.8
    endloop
  endfacet
  facet normal 0.991445 0.130527 0
    outer loop
      vertex 12.5 0 1.5
      vertex 12.0741 3.23524 -1.8
      vertex 12.0741 3.23524 1.5
    endloop
  endfacet
  facet normal 0.991445 0.130527 0
    outer loop
      vertex 12.0741 3.23524 -1.8
      vertex 12.5 0 1.5
      vertex 12.5 0 -1.8
    endloop
  endfacet
  facet normal -0.991445 0.130527 0
    outer loop
      vertex -12.5 0 -1.8
      vertex -12.0741 3.23524 1.5
      vertex -12.0741 3.23524 -1.8
    endloop
  endfacet
  facet normal -0.991445 0.130527 0
    outer loop
      vertex -12.0741 3.23524 1.5
      vertex -12.5 0 -1.8
      vertex -12.5 0 1.5
    endloop
  endfacet
  facet normal 0.130527 0.991445 -0
    outer loop
      vertex 3.23524 12.0741 -1.8
      vertex 0 12.5 1.5
      vertex 3.23524 12.0741 1.5
    endloop
  endfacet
  facet normal 0.130527 0.991445 0
    outer loop
      vertex 0 12.5 1.5
      vertex 3.23524 12.0741 -1.8
      vertex 0 12.5 -1.8
    endloop
  endfacet
  facet normal 0.793353 0.608761 0
    outer loop
      vertex 10.8253 6.25 1.5
      vertex 8.83883 8.83883 -1.8
      vertex 8.83883 8.83883 1.5
    endloop
  endfacet
  facet normal 0.793353 0.608761 0
    outer loop
      vertex 8.83883 8.83883 -1.8
      vertex 10.8253 6.25 1.5
      vertex 10.8253 6.25 -1.8
    endloop
  endfacet
  facet normal 0.92388 0.382683 0
    outer loop
      vertex 12.0741 3.23524 1.5
      vertex 10.8253 6.25 -1.8
      vertex 10.8253 6.25 1.5
    endloop
  endfacet
  facet normal 0.92388 0.382683 0
    outer loop
      vertex 10.8253 6.25 -1.8
      vertex 12.0741 3.23524 1.5
      vertex 12.0741 3.23524 -1.8
    endloop
  endfacet
  facet normal 0.608761 0.793353 -0
    outer loop
      vertex 8.83883 8.83883 -1.8
      vertex 6.25 10.8253 1.5
      vertex 8.83883 8.83883 1.5
    endloop
  endfacet
  facet normal 0.608761 0.793353 0
    outer loop
      vertex 6.25 10.8253 1.5
      vertex 8.83883 8.83883 -1.8
      vertex 6.25 10.8253 -1.8
    endloop
  endfacet
  facet normal -0.608761 0.793353 0
    outer loop
      vertex -6.25 10.8253 -1.8
      vertex -8.83883 8.83883 1.5
      vertex -6.25 10.8253 1.5
    endloop
  endfacet
  facet normal -0.608761 0.793353 0
    outer loop
      vertex -8.83883 8.83883 1.5
      vertex -6.25 10.8253 -1.8
      vertex -8.83883 8.83883 -1.8
    endloop
  endfacet
  facet normal -0.793353 0.608761 0
    outer loop
      vertex -10.8253 6.25 -1.8
      vertex -8.83883 8.83883 1.5
      vertex -8.83883 8.83883 -1.8
    endloop
  endfacet
  facet normal -0.793353 0.608761 0
    outer loop
      vertex -8.83883 8.83883 1.5
      vertex -10.8253 6.25 -1.8
      vertex -10.8253 6.25 1.5
    endloop
  endfacet
  facet normal -0.382683 0.92388 0
    outer loop
      vertex -3.23524 12.0741 -1.8
      vertex -6.25 10.8253 1.5
      vertex -3.23524 12.0741 1.5
    endloop
  endfacet
  facet normal -0.382683 0.92388 0
    outer loop
      vertex -6.25 10.8253 1.5
      vertex -3.23524 12.0741 -1.8
      vertex -6.25 10.8253 -1.8
    endloop
  endfacet
  facet normal -0.608761 -0.793353 0
    outer loop
      vertex -8.83883 -8.83883 -1.8
      vertex -6.25 -10.8253 1.5
      vertex -8.83883 -8.83883 1.5
    endloop
  endfacet
  facet normal -0.608761 -0.793353 -0
    outer loop
      vertex -6.25 -10.8253 1.5
      vertex -8.83883 -8.83883 -1.8
      vertex -6.25 -10.8253 -1.8
    endloop
  endfacet
  facet normal 0.382683 0.92388 -0
    outer loop
      vertex 6.25 10.8253 -1.8
      vertex 3.23524 12.0741 1.5
      vertex 6.25 10.8253 1.5
    endloop
  endfacet
  facet normal 0.382683 0.92388 0
    outer loop
      vertex 3.23524 12.0741 1.5
      vertex 6.25 10.8253 -1.8
      vertex 3.23524 12.0741 -1.8
    endloop
  endfacet
  facet normal -0.92388 0.382683 0
    outer loop
      vertex -12.0741 3.23524 -1.8
      vertex -10.8253 6.25 1.5
      vertex -10.8253 6.25 -1.8
    endloop
  endfacet
  facet normal -0.92388 0.382683 0
    outer loop
      vertex -10.8253 6.25 1.5
      vertex -12.0741 3.23524 -1.8
      vertex -12.0741 3.23524 1.5
    endloop
  endfacet
  facet normal -0 0 1
    outer loop
      vertex 11.0155 0.874999 1.5
      vertex 12.5 0 1.5
      vertex 12.0741 3.23524 1.5
    endloop
  endfacet
  facet normal 0 0 1
    outer loop
      vertex 11.1904 -0.452933 1.5
      vertex 12.5 0 1.5
      vertex 11.25 0 1.5
    endloop
  endfacet
  facet normal 0 0 1
    outer loop
      vertex 12.5 0 1.5
      vertex 11.1904 0.452933 1.5
      vertex 11.25 0 1.5
    endloop
  endfacet
  facet normal 0 0 1
    outer loop
      vertex 12.5 0 1.5
      vertex 11.0155 0.874999 1.5
      vertex 11.1904 0.452933 1.5
    endloop
  endfacet
  facet normal 0 0 1
    outer loop
      vertex 9.5 1.75 1.5
      vertex 12.0741 3.23524 1.5
      vertex 10.8253 6.25 1.5
    endloop
  endfacet
  facet normal 0 0 1
    outer loop
      vertex 12.0741 3.23524 1.5
      vertex 10.7374 1.23744 1.5
      vertex 11.0155 0.874999 1.5
    endloop
  endfacet
  facet normal 0 0 1
    outer loop
      vertex 12.0741 3.23524 1.5
      vertex 10.375 1.51554 1.5
      vertex 10.7374 1.23744 1.5
    endloop
  endfacet
  facet normal 0 0 1
    outer loop
      vertex 12.0741 3.23524 1.5
      vertex 9.95293 1.69037 1.5
      vertex 10.375 1.51554 1.5
    endloop
  endfacet
  facet normal 0 0 1
    outer loop
      vertex 12.0741 3.23524 1.5
      vertex 9.5 1.75 1.5
      vertex 9.95293 1.69037 1.5
    endloop
  endfacet
  facet normal 0 0 1
    outer loop
      vertex 10.8253 6.25 1.5
      vertex 9.04707 1.69037 1.5
      vertex 9.5 1.75 1.5
    endloop
  endfacet
  facet normal 0 0 1
    outer loop
      vertex 8.625 1.51554 1.5
      vertex 10.8253 6.25 1.5
      vertex 8.83883 8.83883 1.5
    endloop
  endfacet
  facet normal 0 0 1
    outer loop
      vertex 10.8253 6.25 1.5
      vertex 8.625 1.51554 1.5
      vertex 9.04707 1.69037 1.5
    endloop
  endfacet
  facet normal 0 0 1
    outer loop
      vertex 7.1 9.85 1.5
      vertex 8.625 1.51554 1.5
      vertex 8.83883 8.83883 1.5
    endloop
  endfacet
  facet normal 0 0 1
    outer loop
      vertex 8.625 1.51554 1.5
      vertex 7.1 9.85 1.5
      vertex 8.26256 1.23744 1.5
    endloop
  endfacet
  facet normal 0 0 1
    outer loop
      vertex 8.26256 1.23744 1.5
      vertex 7.1 9.85 1.5
      vertex 7.98446 0.874999 1.5
    endloop
  endfacet
  facet normal 0 0 1
    outer loop
      vertex 7.98446 0.874999 1.5
      vertex 7.1 9.85 1.5
      vertex 7.80963 0.452933 1.5
    endloop
  endfacet
  facet normal 0 0 1
    outer loop
      vertex 7.80963 0.452933 1.5
      vertex 7.1 9.85 1.5
      vertex 7.75 0 1.5
    endloop
  endfacet
  facet normal 0 0 1
    outer loop
      vertex 6.25 10.8253 1.5
      vertex 7.1 9.85 1.5
      vertex 8.83883 8.83883 1.5
    endloop
  endfacet
  facet normal 0 0 1
    outer loop
      vertex 3.23524 12.0741 1.5
      vertex 7.1 9.85 1.5
      vertex 6.25 10.8253 1.5
    endloop
  endfacet
  facet normal 0 0 1
    outer loop
      vertex 0 12.5 1.5
      vertex 7.1 9.85 1.5
      vertex 3.23524 12.0741 1.5
    endloop
  endfacet
  facet normal 0 0 1
    outer loop
      vertex -7.1 9.85 1.5
      vertex 0 12.5 1.5
      vertex -3.23524 12.0741 1.5
    endloop
  endfacet
  facet normal 0 0 1
    outer loop
      vertex -7.1 9.85 1.5
      vertex -3.23524 12.0741 1.5
      vertex -6.25 10.8253 1.5
    endloop
  endfacet
  facet normal 0 0 1
    outer loop
      vertex 0 12.5 1.5
      vertex -7.1 9.85 1.5
      vertex 7.1 9.85 1.5
    endloop
  endfacet
  facet normal 0 0 1
    outer loop
      vertex -7.1 9.85 1.5
      vertex -7.75 0 1.5
      vertex -7.1 -9.85 1.5
    endloop
  endfacet
  facet normal 0 0 1
    outer loop
      vertex -7.1 9.85 1.5
      vertex -7.80963 0.452933 1.5
      vertex -7.75 0 1.5
    endloop
  endfacet
  facet normal 0 0 1
    outer loop
      vertex -7.1 9.85 1.5
      vertex -7.98446 0.874999 1.5
      vertex -7.80963 0.452933 1.5
    endloop
  endfacet
  facet normal 0 0 1
    outer loop
      vertex -7.1 9.85 1.5
      vertex -8.26256 1.23744 1.5
      vertex -7.98446 0.874999 1.5
    endloop
  endfacet
  facet normal 0 0 1
    outer loop
      vertex -7.1 9.85 1.5
      vertex -8.625 1.51554 1.5
      vertex -8.26256 1.23744 1.5
    endloop
  endfacet
  facet normal 0 0 1
    outer loop
      vertex -8.83883 8.83883 1.5
      vertex -7.1 9.85 1.5
      vertex -6.25 10.8253 1.5
    endloop
  endfacet
  facet normal -0 0 1
    outer loop
      vertex -8.83883 8.83883 1.5
      vertex -8.625 1.51554 1.5
      vertex -7.1 9.85 1.5
    endloop
  endfacet
  facet normal -0 0 1
    outer loop
      vertex -10.8253 6.25 1.5
      vertex -8.625 1.51554 1.5
      vertex -8.83883 8.83883 1.5
    endloop
  endfacet
  facet normal 0 0 1
    outer loop
      vertex -8.625 1.51554 1.5
      vertex -10.8253 6.25 1.5
      vertex -9.04707 1.69037 1.5
    endloop
  endfacet
  facet normal 0 0 1
    outer loop
      vertex -9.04707 1.69037 1.5
      vertex -10.8253 6.25 1.5
      vertex -9.5 1.75 1.5
    endloop
  endfacet
  facet normal -0 0 1
    outer loop
      vertex -12.0741 3.23524 1.5
      vertex -9.5 1.75 1.5
      vertex -10.8253 6.25 1.5
    endloop
  endfacet
  facet normal 0 0 1
    outer loop
      vertex -9.5 1.75 1.5
      vertex -12.0741 3.23524 1.5
      vertex -9.95293 1.69037 1.5
    endloop
  endfacet
  facet normal 0 0 1
    outer loop
      vertex -9.95293 1.69037 1.5
      vertex -12.0741 3.23524 1.5
      vertex -10.375 1.51554 1.5
    endloop
  endfacet
  facet normal 0 0 1
    outer loop
      vertex -10.375 1.51554 1.5
      vertex -12.0741 3.23524 1.5
      vertex -10.7374 1.23744 1.5
    endloop
  endfacet
  facet normal 0 0 1
    outer loop
      vertex -10.7374 1.23744 1.5
      vertex -12.0741 3.23524 1.5
      vertex -11.0155 0.874999 1.5
    endloop
  endfacet
  facet normal 0 0 1
    outer loop
      vertex -12.5 0 1.5
      vertex -11.0155 0.874999 1.5
      vertex -12.0741 3.23524 1.5
    endloop
  endfacet
  facet normal 0 0 1
    outer loop
      vertex -11.0155 0.874999 1.5
      vertex -12.5 0 1.5
      vertex -11.1904 0.452933 1.5
    endloop
  endfacet
  facet normal 0 0 1
    outer loop
      vertex 11.0155 -0.875 1.5
      vertex 12.5 0 1.5
      vertex 11.1904 -0.452933 1.5
    endloop
  endfacet
  facet normal 0 0 1
    outer loop
      vertex 12.5 0 1.5
      vertex 11.0155 -0.875 1.5
      vertex 12.0741 -3.23524 1.5
    endloop
  endfacet
  facet normal -0 0 1
    outer loop
      vertex 10.7374 -1.23744 1.5
      vertex 12.0741 -3.23524 1.5
      vertex 11.0155 -0.875 1.5
    endloop
  endfacet
  facet normal -0 0 1
    outer loop
      vertex 10.375 -1.51554 1.5
      vertex 12.0741 -3.23524 1.5
      vertex 10.7374 -1.23744 1.5
    endloop
  endfacet
  facet normal -0 0 1
    outer loop
      vertex 9.95293 -1.69037 1.5
      vertex 12.0741 -3.23524 1.5
      vertex 10.375 -1.51554 1.5
    endloop
  endfacet
  facet normal -0 0 1
    outer loop
      vertex 9.5 -1.75 1.5
      vertex 12.0741 -3.23524 1.5
      vertex 9.95293 -1.69037 1.5
    endloop
  endfacet
  facet normal 0 0 1
    outer loop
      vertex 12.0741 -3.23524 1.5
      vertex 9.5 -1.75 1.5
      vertex 10.8253 -6.25 1.5
    endloop
  endfacet
  facet normal 0 0 1
    outer loop
      vertex 9.04707 -1.69037 1.5
      vertex 10.8253 -6.25 1.5
      vertex 9.5 -1.75 1.5
    endloop
  endfacet
  facet normal 0 0 1
    outer loop
      vertex 8.625 -1.51554 1.5
      vertex 10.8253 -6.25 1.5
      vertex 9.04707 -1.69037 1.5
    endloop
  endfacet
  facet normal 0 0 1
    outer loop
      vertex 10.8253 -6.25 1.5
      vertex 8.625 -1.51554 1.5
      vertex 8.83883 -8.83883 1.5
    endloop
  endfacet
  facet normal 0 0 1
    outer loop
      vertex 7.1 -9.85 1.5
      vertex 8.625 -1.51554 1.5
      vertex 8.26256 -1.23744 1.5
    endloop
  endfacet
  facet normal 0 0 1
    outer loop
      vertex 7.1 -9.85 1.5
      vertex 8.26256 -1.23744 1.5
      vertex 7.98446 -0.874999 1.5
    endloop
  endfacet
  facet normal 0 0 1
    outer loop
      vertex 7.1 -9.85 1.5
      vertex 7.98446 -0.874999 1.5
      vertex 7.80963 -0.452933 1.5
    endloop
  endfacet
  facet normal 0 0 1
    outer loop
      vertex 7.1 -9.85 1.5
      vertex 7.80963 -0.452933 1.5
      vertex 7.75 0 1.5
    endloop
  endfacet
  facet normal 0 0 1
    outer loop
      vertex 7.1 -9.85 1.5
      vertex 7.75 0 1.5
      vertex 7.1 9.85 1.5
    endloop
  endfacet
  facet normal 0 0 1
    outer loop
      vertex 8.625 -1.51554 1.5
      vertex 7.1 -9.85 1.5
      vertex 8.83883 -8.83883 1.5
    endloop
  endfacet
  facet normal -0 0 1
    outer loop
      vertex 7.1 -9.85 1.5
      vertex 6.25 -10.8253 1.5
      vertex 8.83883 -8.83883 1.5
    endloop
  endfacet
  facet normal 0 0 1
    outer loop
      vertex 7.1 -9.85 1.5
      vertex 3.23524 -12.0741 1.5
      vertex 6.25 -10.8253 1.5
    endloop
  endfacet
  facet normal 0 0 1
    outer loop
      vertex 7.1 -9.85 1.5
      vertex 0 -12.5 1.5
      vertex 3.23524 -12.0741 1.5
    endloop
  endfacet
  facet normal -0 0 1
    outer loop
      vertex -7.1 -9.85 1.5
      vertex 0 -12.5 1.5
      vertex 7.1 -9.85 1.5
    endloop
  endfacet
  facet normal 0 0 1
    outer loop
      vertex 0 -12.5 1.5
      vertex -7.1 -9.85 1.5
      vertex -3.23524 -12.0741 1.5
    endloop
  endfacet
  facet normal 0 0 1
    outer loop
      vertex -3.23524 -12.0741 1.5
      vertex -7.1 -9.85 1.5
      vertex -6.25 -10.8253 1.5
    endloop
  endfacet
  facet normal -0 0 1
    outer loop
      vertex -7.80963 -0.452933 1.5
      vertex -7.1 -9.85 1.5
      vertex -7.75 0 1.5
    endloop
  endfacet
  facet normal -0 0 1
    outer loop
      vertex -7.98446 -0.875 1.5
      vertex -7.1 -9.85 1.5
      vertex -7.80963 -0.452933 1.5
    endloop
  endfacet
  facet normal -0 0 1
    outer loop
      vertex -8.26256 -1.23744 1.5
      vertex -7.1 -9.85 1.5
      vertex -7.98446 -0.875 1.5
    endloop
  endfacet
  facet normal -0 0 1
    outer loop
      vertex -8.625 -1.51554 1.5
      vertex -7.1 -9.85 1.5
      vertex -8.26256 -1.23744 1.5
    endloop
  endfacet
  facet normal 0 0 1
    outer loop
      vertex -7.1 -9.85 1.5
      vertex -8.83883 -8.83883 1.5
      vertex -6.25 -10.8253 1.5
    endloop
  endfacet
  facet normal 0 0 1
    outer loop
      vertex -8.625 -1.51554 1.5
      vertex -8.83883 -8.83883 1.5
      vertex -7.1 -9.85 1.5
    endloop
  endfacet
  facet normal 0 0 1
    outer loop
      vertex -10.8253 -6.25 1.5
      vertex -8.625 -1.51554 1.5
      vertex -9.04707 -1.69037 1.5
    endloop
  endfacet
  facet normal 0 0 1
    outer loop
      vertex -10.8253 -6.25 1.5
      vertex -9.04707 -1.69037 1.5
      vertex -9.5 -1.75 1.5
    endloop
  endfacet
  facet normal 0 0 1
    outer loop
      vertex -12.0741 -3.23524 1.5
      vertex -9.5 -1.75 1.5
      vertex -9.95293 -1.69037 1.5
    endloop
  endfacet
  facet normal 0 0 1
    outer loop
      vertex -12.0741 -3.23524 1.5
      vertex -9.95293 -1.69037 1.5
      vertex -10.375 -1.51554 1.5
    endloop
  endfacet
  facet normal 0 0 1
    outer loop
      vertex -12.0741 -3.23524 1.5
      vertex -10.375 -1.51554 1.5
      vertex -10.7374 -1.23744 1.5
    endloop
  endfacet
  facet normal 0 0 1
    outer loop
      vertex -8.625 -1.51554 1.5
      vertex -10.8253 -6.25 1.5
      vertex -8.83883 -8.83883 1.5
    endloop
  endfacet
  facet normal 0 0 1
    outer loop
      vertex -12.0741 -3.23524 1.5
      vertex -10.7374 -1.23744 1.5
      vertex -11.0155 -0.874999 1.5
    endloop
  endfacet
  facet normal 0 0 1
    outer loop
      vertex -12.5 0 1.5
      vertex -11.0155 -0.874999 1.5
      vertex -11.1904 -0.452933 1.5
    endloop
  endfacet
  facet normal -0 0 1
    outer loop
      vertex -12.5 0 1.5
      vertex -11.1904 -0.452933 1.5
      vertex -11.25 0 1.5
    endloop
  endfacet
  facet normal 0 0 1
    outer loop
      vertex -11.1904 0.452933 1.5
      vertex -12.5 0 1.5
      vertex -11.25 0 1.5
    endloop
  endfacet
  facet normal 0 0 1
    outer loop
      vertex -9.5 -1.75 1.5
      vertex -12.0741 -3.23524 1.5
      vertex -10.8253 -6.25 1.5
    endloop
  endfacet
  facet normal 0 0 1
    outer loop
      vertex -11.0155 -0.874999 1.5
      vertex -12.5 0 1.5
      vertex -12.0741 -3.23524 1.5
    endloop
  endfacet
  facet normal -0.130527 0.991445 0
    outer loop
      vertex 0 12.5 -1.8
      vertex -3.23524 12.0741 1.5
      vertex 0 12.5 1.5
    endloop
  endfacet
  facet normal -0.130527 0.991445 0
    outer loop
      vertex -3.23524 12.0741 1.5
      vertex 0 12.5 -1.8
      vertex -3.23524 12.0741 -1.8
    endloop
  endfacet
  facet normal 0.991445 -0.130527 0
    outer loop
      vertex 12.0741 -3.23524 1.5
      vertex 12.5 0 -1.8
      vertex 12.5 0 1.5
    endloop
  endfacet
  facet normal 0.991445 -0.130527 0
    outer loop
      vertex 12.5 0 -1.8
      vertex 12.0741 -3.23524 1.5
      vertex 12.0741 -3.23524 -1.8
    endloop
  endfacet
  facet normal 0.130527 -0.991445 0
    outer loop
      vertex 0 -12.5 -1.8
      vertex 3.23524 -12.0741 1.5
      vertex 0 -12.5 1.5
    endloop
  endfacet
  facet normal 0.130527 -0.991445 0
    outer loop
      vertex 3.23524 -12.0741 1.5
      vertex 0 -12.5 -1.8
      vertex 3.23524 -12.0741 -1.8
    endloop
  endfacet
  facet normal 0.608761 -0.793353 0
    outer loop
      vertex 6.25 -10.8253 -1.8
      vertex 8.83883 -8.83883 1.5
      vertex 6.25 -10.8253 1.5
    endloop
  endfacet
  facet normal 0.608761 -0.793353 0
    outer loop
      vertex 8.83883 -8.83883 1.5
      vertex 6.25 -10.8253 -1.8
      vertex 8.83883 -8.83883 -1.8
    endloop
  endfacet
  facet normal -0.382683 -0.92388 0
    outer loop
      vertex -6.25 -10.8253 -1.8
      vertex -3.23524 -12.0741 1.5
      vertex -6.25 -10.8253 1.5
    endloop
  endfacet
  facet normal -0.382683 -0.92388 -0
    outer loop
      vertex -3.23524 -12.0741 1.5
      vertex -6.25 -10.8253 -1.8
      vertex -3.23524 -12.0741 -1.8
    endloop
  endfacet
  facet normal -0.793353 -0.608761 0
    outer loop
      vertex -8.83883 -8.83883 -1.8
      vertex -10.8253 -6.25 1.5
      vertex -10.8253 -6.25 -1.8
    endloop
  endfacet
  facet normal -0.793353 -0.608761 0
    outer loop
      vertex -10.8253 -6.25 1.5
      vertex -8.83883 -8.83883 -1.8
      vertex -8.83883 -8.83883 1.5
    endloop
  endfacet
  facet normal -0.991445 -0.130527 0
    outer loop
      vertex -12.0741 -3.23524 -1.8
      vertex -12.5 0 1.5
      vertex -12.5 0 -1.8
    endloop
  endfacet
  facet normal -0.991445 -0.130527 0
    outer loop
      vertex -12.5 0 1.5
      vertex -12.0741 -3.23524 -1.8
      vertex -12.0741 -3.23524 1.5
    endloop
  endfacet
  facet normal 0.382683 -0.92388 0
    outer loop
      vertex 3.23524 -12.0741 -1.8
      vertex 6.25 -10.8253 1.5
      vertex 3.23524 -12.0741 1.5
    endloop
  endfacet
  facet normal 0.382683 -0.92388 0
    outer loop
      vertex 6.25 -10.8253 1.5
      vertex 3.23524 -12.0741 -1.8
      vertex 6.25 -10.8253 -1.8
    endloop
  endfacet
  facet normal 0.92388 -0.382683 0
    outer loop
      vertex 10.8253 -6.25 1.5
      vertex 12.0741 -3.23524 -1.8
      vertex 12.0741 -3.23524 1.5
    endloop
  endfacet
  facet normal 0.92388 -0.382683 0
    outer loop
      vertex 12.0741 -3.23524 -1.8
      vertex 10.8253 -6.25 1.5
      vertex 10.8253 -6.25 -1.8
    endloop
  endfacet
  facet normal 0.793353 -0.608761 0
    outer loop
      vertex 8.83883 -8.83883 1.5
      vertex 10.8253 -6.25 -1.8
      vertex 10.8253 -6.25 1.5
    endloop
  endfacet
  facet normal 0.793353 -0.608761 0
    outer loop
      vertex 10.8253 -6.25 -1.8
      vertex 8.83883 -8.83883 1.5
      vertex 8.83883 -8.83883 -1.8
    endloop
  endfacet
  facet normal -0.130527 -0.991445 0
    outer loop
      vertex -3.23524 -12.0741 -1.8
      vertex 0 -12.5 1.5
      vertex -3.23524 -12.0741 1.5
    endloop
  endfacet
  facet normal -0.130527 -0.991445 -0
    outer loop
      vertex 0 -12.5 1.5
      vertex -3.23524 -12.0741 -1.8
      vertex 0 -12.5 -1.8
    endloop
  endfacet
  facet normal -0.92388 -0.382683 0
    outer loop
      vertex -10.8253 -6.25 -1.8
      vertex -12.0741 -3.23524 1.5
      vertex -12.0741 -3.23524 -1.8
    endloop
  endfacet
  facet normal -0.92388 -0.382683 0
    outer loop
      vertex -12.0741 -3.23524 1.5
      vertex -10.8253 -6.25 -1.8
      vertex -10.8253 -6.25 1.5
    endloop
  endfacet
  facet normal -1 0 0
    outer loop
      vertex -7.1 9.85 1.5
      vertex -7.1 0 6.2
      vertex -7.1 9.85 6.2
    endloop
  endfacet
  facet normal -1 0 0
    outer loop
      vertex -7.1 -9.85 1.5
      vertex -7.1 0 6.2
      vertex -7.1 9.85 1.5
    endloop
  endfacet
  facet normal -1 -0 0
    outer loop
      vertex -7.1 0 6.2
      vertex -7.1 -9.85 1.5
      vertex -7.1 -9.85 6.2
    endloop
  endfacet
  facet normal 0 0 1
    outer loop
      vertex 7.1 9.85 6.2
      vertex 6.85807 1.83762 6.2
      vertex 7.1 0 6.2
    endloop
  endfacet
  facet normal 0 0 1
    outer loop
      vertex 7.1 9.85 6.2
      vertex 6.14878 3.55 6.2
      vertex 6.85807 1.83762 6.2
    endloop
  endfacet
  facet normal 0 0 1
    outer loop
      vertex 7.1 9.85 6.2
      vertex 5.02046 5.02046 6.2
      vertex 6.14878 3.55 6.2
    endloop
  endfacet
  facet normal 0 0 1
    outer loop
      vertex 7.1 9.85 6.2
      vertex 3.55 6.14878 6.2
      vertex 5.02046 5.02046 6.2
    endloop
  endfacet
  facet normal 0 0 1
    outer loop
      vertex 7.1 9.85 6.2
      vertex 1.83762 6.85807 6.2
      vertex 3.55 6.14878 6.2
    endloop
  endfacet
  facet normal 0 0 1
    outer loop
      vertex 7.1 9.85 6.2
      vertex 0 7.1 6.2
      vertex 1.83762 6.85807 6.2
    endloop
  endfacet
  facet normal -0 0 1
    outer loop
      vertex -7.1 9.85 6.2
      vertex 0 7.1 6.2
      vertex 7.1 9.85 6.2
    endloop
  endfacet
  facet normal 0 0 1
    outer loop
      vertex 0 7.1 6.2
      vertex -7.1 9.85 6.2
      vertex -1.83762 6.85807 6.2
    endloop
  endfacet
  facet normal 0 0 1
    outer loop
      vertex -7.1 9.85 6.2
      vertex -3.55 6.14878 6.2
      vertex -1.83762 6.85807 6.2
    endloop
  endfacet
  facet normal 0 0 1
    outer loop
      vertex -7.1 9.85 6.2
      vertex -5.02046 5.02046 6.2
      vertex -3.55 6.14878 6.2
    endloop
  endfacet
  facet normal 0 0 1
    outer loop
      vertex -7.1 9.85 6.2
      vertex -6.14878 3.55 6.2
      vertex -5.02046 5.02046 6.2
    endloop
  endfacet
  facet normal 0 0 1
    outer loop
      vertex -7.1 9.85 6.2
      vertex -6.85807 1.83762 6.2
      vertex -6.14878 3.55 6.2
    endloop
  endfacet
  facet normal 0 0 1
    outer loop
      vertex -6.85807 1.83762 6.2
      vertex -7.1 9.85 6.2
      vertex -7.1 0 6.2
    endloop
  endfacet
  facet normal -0 0 1
    outer loop
      vertex 6.85807 -1.83762 6.2
      vertex 7.1 -9.85 6.2
      vertex 7.1 0 6.2
    endloop
  endfacet
  facet normal -0 0 1
    outer loop
      vertex 6.14878 -3.55 6.2
      vertex 7.1 -9.85 6.2
      vertex 6.85807 -1.83762 6.2
    endloop
  endfacet
  facet normal -0 0 1
    outer loop
      vertex 5.02046 -5.02046 6.2
      vertex 7.1 -9.85 6.2
      vertex 6.14878 -3.55 6.2
    endloop
  endfacet
  facet normal -0 0 1
    outer loop
      vertex 3.55 -6.14878 6.2
      vertex 7.1 -9.85 6.2
      vertex 5.02046 -5.02046 6.2
    endloop
  endfacet
  facet normal -0 0 1
    outer loop
      vertex 1.83762 -6.85807 6.2
      vertex 7.1 -9.85 6.2
      vertex 3.55 -6.14878 6.2
    endloop
  endfacet
  facet normal -0 0 1
    outer loop
      vertex 0 -7.1 6.2
      vertex 7.1 -9.85 6.2
      vertex 1.83762 -6.85807 6.2
    endloop
  endfacet
  facet normal 0 0 1
    outer loop
      vertex -7.1 -9.85 6.2
      vertex 0 -7.1 6.2
      vertex -1.83762 -6.85807 6.2
    endloop
  endfacet
  facet normal 0 0 1
    outer loop
      vertex 0 -7.1 6.2
      vertex -7.1 -9.85 6.2
      vertex 7.1 -9.85 6.2
    endloop
  endfacet
  facet normal 0 0 1
    outer loop
      vertex -3.55 -6.14878 6.2
      vertex -7.1 -9.85 6.2
      vertex -1.83762 -6.85807 6.2
    endloop
  endfacet
  facet normal 0 0 1
    outer loop
      vertex -5.02046 -5.02046 6.2
      vertex -7.1 -9.85 6.2
      vertex -3.55 -6.14878 6.2
    endloop
  endfacet
  facet normal 0 0 1
    outer loop
      vertex -6.14878 -3.55 6.2
      vertex -7.1 -9.85 6.2
      vertex -5.02046 -5.02046 6.2
    endloop
  endfacet
  facet normal 0 0 1
    outer loop
      vertex -6.85807 -1.83762 6.2
      vertex -7.1 -9.85 6.2
      vertex -6.14878 -3.55 6.2
    endloop
  endfacet
  facet normal 0 0 1
    outer loop
      vertex -7.1 -9.85 6.2
      vertex -6.85807 -1.83762 6.2
      vertex -7.1 0 6.2
    endloop
  endfacet
  facet normal 1 -0 0
    outer loop
      vertex 7.1 0 6.2
      vertex 7.1 9.85 1.5
      vertex 7.1 9.85 6.2
    endloop
  endfacet
  facet normal 1 0 0
    outer loop
      vertex 7.1 -9.85 1.5
      vertex 7.1 0 6.2
      vertex 7.1 -9.85 6.2
    endloop
  endfacet
  facet normal 1 0 0
    outer loop
      vertex 7.1 0 6.2
      vertex 7.1 -9.85 1.5
      vertex 7.1 9.85 1.5
    endloop
  endfacet
  facet normal 0 1 -0
    outer loop
      vertex 7.1 9.85 1.5
      vertex -7.1 9.85 6.2
      vertex 7.1 9.85 6.2
    endloop
  endfacet
  facet normal 0 1 0
    outer loop
      vertex -7.1 9.85 6.2
      vertex 7.1 9.85 1.5
      vertex -7.1 9.85 1.5
    endloop
  endfacet
  facet normal 0 -1 0
    outer loop
      vertex -7.1 -9.85 1.5
      vertex 7.1 -9.85 6.2
      vertex -7.1 -9.85 6.2
    endloop
  endfacet
  facet normal 0 -1 -0
    outer loop
      vertex 7.1 -9.85 6.2
      vertex -7.1 -9.85 1.5
      vertex 7.1 -9.85 1.5
    endloop
  endfacet
  facet normal -0.991445 0.130526 0
    outer loop
      vertex -7.1 0 6.2
      vertex -6.85807 1.83762 11.2
      vertex -6.85807 1.83762 6.2
    endloop
  endfacet
  facet normal -0.991445 0.130526 0
    outer loop
      vertex -6.85807 1.83762 11.2
      vertex -7.1 0 6.2
      vertex -7.1 0 11.2
    endloop
  endfacet
  facet normal -0.991445 -0.130526 0
    outer loop
      vertex -6.85807 -1.83762 6.2
      vertex -7.1 0 11.2
      vertex -7.1 0 6.2
    endloop
  endfacet
  facet normal -0.991445 -0.130526 0
    outer loop
      vertex -7.1 0 11.2
      vertex -6.85807 -1.83762 6.2
      vertex -6.85807 -1.83762 11.2
    endloop
  endfacet
  facet normal 0.793353 0.608762 0
    outer loop
      vertex 6.14878 3.55 11.2
      vertex 5.02046 5.02046 6.2
      vertex 5.02046 5.02046 11.2
    endloop
  endfacet
  facet normal 0.793353 0.608762 0
    outer loop
      vertex 5.02046 5.02046 6.2
      vertex 6.14878 3.55 11.2
      vertex 6.14878 3.55 6.2
    endloop
  endfacet
  facet normal 0.923879 0.382684 0
    outer loop
      vertex 6.85807 1.83762 11.2
      vertex 6.14878 3.55 6.2
      vertex 6.14878 3.55 11.2
    endloop
  endfacet
  facet normal 0.923879 0.382684 0
    outer loop
      vertex 6.14878 3.55 6.2
      vertex 6.85807 1.83762 11.2
      vertex 6.85807 1.83762 6.2
    endloop
  endfacet
  facet normal -0.382684 0.923879 0
    outer loop
      vertex -1.83762 6.85807 6.2
      vertex -3.55 6.14878 11.2
      vertex -1.83762 6.85807 11.2
    endloop
  endfacet
  facet normal -0.382684 0.923879 0
    outer loop
      vertex -3.55 6.14878 11.2
      vertex -1.83762 6.85807 6.2
      vertex -3.55 6.14878 6.2
    endloop
  endfacet
  facet normal -0.923879 0.382684 0
    outer loop
      vertex -6.85807 1.83762 6.2
      vertex -6.14878 3.55 11.2
      vertex -6.14878 3.55 6.2
    endloop
  endfacet
  facet normal -0.923879 0.382684 0
    outer loop
      vertex -6.14878 3.55 11.2
      vertex -6.85807 1.83762 6.2
      vertex -6.85807 1.83762 11.2
    endloop
  endfacet
  facet normal 0.991445 -0.130526 0
    outer loop
      vertex 6.85807 -1.83762 11.2
      vertex 7.1 0 6.2
      vertex 7.1 0 11.2
    endloop
  endfacet
  facet normal 0.991445 -0.130526 0
    outer loop
      vertex 7.1 0 6.2
      vertex 6.85807 -1.83762 11.2
      vertex 6.85807 -1.83762 6.2
    endloop
  endfacet
  facet normal 0.608762 0.793353 -0
    outer loop
      vertex 5.02046 5.02046 6.2
      vertex 3.55 6.14878 11.2
      vertex 5.02046 5.02046 11.2
    endloop
  endfacet
  facet normal 0.608762 0.793353 0
    outer loop
      vertex 3.55 6.14878 11.2
      vertex 5.02046 5.02046 6.2
      vertex 3.55 6.14878 6.2
    endloop
  endfacet
  facet normal -0.130526 0.991445 0
    outer loop
      vertex 0 7.1 6.2
      vertex -1.83762 6.85807 11.2
      vertex 0 7.1 11.2
    endloop
  endfacet
  facet normal -0.130526 0.991445 0
    outer loop
      vertex -1.83762 6.85807 11.2
      vertex 0 7.1 6.2
      vertex -1.83762 6.85807 6.2
    endloop
  endfacet
  facet normal 0.382684 0.923879 -0
    outer loop
      vertex 3.55 6.14878 6.2
      vertex 1.83762 6.85807 11.2
      vertex 3.55 6.14878 11.2
    endloop
  endfacet
  facet normal 0.382684 0.923879 0
    outer loop
      vertex 1.83762 6.85807 11.2
      vertex 3.55 6.14878 6.2
      vertex 1.83762 6.85807 6.2
    endloop
  endfacet
  facet normal 0 0 1
    outer loop
      vertex 4.25 0 11.2
      vertex 7.1 0 11.2
      vertex 6.85807 1.83762 11.2
    endloop
  endfacet
  facet normal 0 0 1
    outer loop
      vertex 4.10518 1.09998 11.2
      vertex 6.85807 1.83762 11.2
      vertex 6.14878 3.55 11.2
    endloop
  endfacet
  facet normal 0 0 1
    outer loop
      vertex 7.1 0 11.2
      vertex 4.25 0 11.2
      vertex 6.85807 -1.83762 11.2
    endloop
  endfacet
  facet normal 0 0 1
    outer loop
      vertex 3.68061 2.125 11.2
      vertex 6.14878 3.55 11.2
      vertex 5.02046 5.02046 11.2
    endloop
  endfacet
  facet normal -0 0 1
    outer loop
      vertex 4.10518 -1.09998 11.2
      vertex 6.85807 -1.83762 11.2
      vertex 4.25 0 11.2
    endloop
  endfacet
  facet normal 0 0 1
    outer loop
      vertex 6.85807 -1.83762 11.2
      vertex 4.10518 -1.09998 11.2
      vertex 6.14878 -3.55 11.2
    endloop
  endfacet
  facet normal 0 0 1
    outer loop
      vertex 6.85807 1.83762 11.2
      vertex 4.10518 1.09998 11.2
      vertex 4.25 0 11.2
    endloop
  endfacet
  facet normal 0 0 1
    outer loop
      vertex 6.14878 3.55 11.2
      vertex 3.68061 2.125 11.2
      vertex 4.10518 1.09998 11.2
    endloop
  endfacet
  facet normal 0 0 1
    outer loop
      vertex 3.0052 3.0052 11.2
      vertex 5.02046 5.02046 11.2
      vertex 3.55 6.14878 11.2
    endloop
  endfacet
  facet normal 0 0 1
    outer loop
      vertex 5.02046 5.02046 11.2
      vertex 3.0052 3.0052 11.2
      vertex 3.68061 2.125 11.2
    endloop
  endfacet
  facet normal 0 0 1
    outer loop
      vertex 3.55 6.14878 11.2
      vertex 2.125 3.68061 11.2
      vertex 3.0052 3.0052 11.2
    endloop
  endfacet
  facet normal 0 0 1
    outer loop
      vertex 1.83762 6.85807 11.2
      vertex 2.125 3.68061 11.2
      vertex 3.55 6.14878 11.2
    endloop
  endfacet
  facet normal 0 0 1
    outer loop
      vertex 1.83762 6.85807 11.2
      vertex 1.09998 4.10518 11.2
      vertex 2.125 3.68061 11.2
    endloop
  endfacet
  facet normal 0 0 1
    outer loop
      vertex 0 7.1 11.2
      vertex 1.09998 4.10518 11.2
      vertex 1.83762 6.85807 11.2
    endloop
  endfacet
  facet normal 0 0 1
    outer loop
      vertex 0 7.1 11.2
      vertex 0 4.25 11.2
      vertex 1.09998 4.10518 11.2
    endloop
  endfacet
  facet normal 0 0 1
    outer loop
      vertex 0 7.1 11.2
      vertex -1.09998 4.10518 11.2
      vertex 0 4.25 11.2
    endloop
  endfacet
  facet normal -0 0 1
    outer loop
      vertex -1.83762 6.85807 11.2
      vertex -1.09998 4.10518 11.2
      vertex 0 7.1 11.2
    endloop
  endfacet
  facet normal 0 0 1
    outer loop
      vertex -1.83762 6.85807 11.2
      vertex -2.125 3.68061 11.2
      vertex -1.09998 4.10518 11.2
    endloop
  endfacet
  facet normal -0 0 1
    outer loop
      vertex -3.55 6.14878 11.2
      vertex -2.125 3.68061 11.2
      vertex -1.83762 6.85807 11.2
    endloop
  endfacet
  facet normal 0 0 1
    outer loop
      vertex -2.125 3.68061 11.2
      vertex -3.55 6.14878 11.2
      vertex -3.0052 3.0052 11.2
    endloop
  endfacet
  facet normal -0 0 1
    outer loop
      vertex -5.02046 5.02046 11.2
      vertex -3.0052 3.0052 11.2
      vertex -3.55 6.14878 11.2
    endloop
  endfacet
  facet normal 0 0 1
    outer loop
      vertex -3.0052 3.0052 11.2
      vertex -5.02046 5.02046 11.2
      vertex -3.68061 2.125 11.2
    endloop
  endfacet
  facet normal -0 0 1
    outer loop
      vertex -6.14878 3.55 11.2
      vertex -3.68061 2.125 11.2
      vertex -5.02046 5.02046 11.2
    endloop
  endfacet
  facet normal 0 0 1
    outer loop
      vertex -3.68061 2.125 11.2
      vertex -6.14878 3.55 11.2
      vertex -4.10518 1.09998 11.2
    endloop
  endfacet
  facet normal -0 0 1
    outer loop
      vertex 3.68061 -2.125 11.2
      vertex 6.14878 -3.55 11.2
      vertex 4.10518 -1.09998 11.2
    endloop
  endfacet
  facet normal 0 0 1
    outer loop
      vertex 6.14878 -3.55 11.2
      vertex 3.68061 -2.125 11.2
      vertex 5.02046 -5.02046 11.2
    endloop
  endfacet
  facet normal -0 0 1
    outer loop
      vertex 3.0052 -3.0052 11.2
      vertex 5.02046 -5.02046 11.2
      vertex 3.68061 -2.125 11.2
    endloop
  endfacet
  facet normal 0 0 1
    outer loop
      vertex 5.02046 -5.02046 11.2
      vertex 3.0052 -3.0052 11.2
      vertex 3.55 -6.14878 11.2
    endloop
  endfacet
  facet normal -0 0 1
    outer loop
      vertex 2.125 -3.68061 11.2
      vertex 3.55 -6.14878 11.2
      vertex 3.0052 -3.0052 11.2
    endloop
  endfacet
  facet normal 0 0 1
    outer loop
      vertex 2.125 -3.68061 11.2
      vertex 1.83762 -6.85807 11.2
      vertex 3.55 -6.14878 11.2
    endloop
  endfacet
  facet normal -0 0 1
    outer loop
      vertex 1.09998 -4.10518 11.2
      vertex 1.83762 -6.85807 11.2
      vertex 2.125 -3.68061 11.2
    endloop
  endfacet
  facet normal -0 0 1
    outer loop
      vertex 0 -4.25 11.2
      vertex 1.83762 -6.85807 11.2
      vertex 1.09998 -4.10518 11.2
    endloop
  endfacet
  facet normal 0 0 1
    outer loop
      vertex 0 -4.25 11.2
      vertex 0 -7.1 11.2
      vertex 1.83762 -6.85807 11.2
    endloop
  endfacet
  facet normal 0 0 1
    outer loop
      vertex -1.09998 -4.10518 11.2
      vertex 0 -7.1 11.2
      vertex 0 -4.25 11.2
    endloop
  endfacet
  facet normal 0 0 1
    outer loop
      vertex -1.09998 -4.10518 11.2
      vertex -1.83762 -6.85807 11.2
      vertex 0 -7.1 11.2
    endloop
  endfacet
  facet normal 0 0 1
    outer loop
      vertex -2.125 -3.68061 11.2
      vertex -1.83762 -6.85807 11.2
      vertex -1.09998 -4.10518 11.2
    endloop
  endfacet
  facet normal 0 0 1
    outer loop
      vertex -3.55 -6.14878 11.2
      vertex -2.125 -3.68061 11.2
      vertex -3.0052 -3.0052 11.2
    endloop
  endfacet
  facet normal 0 0 1
    outer loop
      vertex -2.125 -3.68061 11.2
      vertex -3.55 -6.14878 11.2
      vertex -1.83762 -6.85807 11.2
    endloop
  endfacet
  facet normal 0 0 1
    outer loop
      vertex -5.02046 -5.02046 11.2
      vertex -3.0052 -3.0052 11.2
      vertex -3.68061 -2.125 11.2
    endloop
  endfacet
  facet normal 0 0 1
    outer loop
      vertex -6.14878 -3.55 11.2
      vertex -3.68061 -2.125 11.2
      vertex -4.10518 -1.09998 11.2
    endloop
  endfacet
  facet normal 0 0 1
    outer loop
      vertex -6.85807 -1.83762 11.2
      vertex -4.10518 -1.09998 11.2
      vertex -4.25 0 11.2
    endloop
  endfacet
  facet normal -0 0 1
    outer loop
      vertex -6.85807 1.83762 11.2
      vertex -4.10518 1.09998 11.2
      vertex -6.14878 3.55 11.2
    endloop
  endfacet
  facet normal 0 0 1
    outer loop
      vertex -3.0052 -3.0052 11.2
      vertex -5.02046 -5.02046 11.2
      vertex -3.55 -6.14878 11.2
    endloop
  endfacet
  facet normal 0 0 1
    outer loop
      vertex -4.10518 1.09998 11.2
      vertex -6.85807 1.83762 11.2
      vertex -4.25 0 11.2
    endloop
  endfacet
  facet normal 0 0 1
    outer loop
      vertex -3.68061 -2.125 11.2
      vertex -6.14878 -3.55 11.2
      vertex -5.02046 -5.02046 11.2
    endloop
  endfacet
  facet normal 0 0 1
    outer loop
      vertex -7.1 0 11.2
      vertex -4.25 0 11.2
      vertex -6.85807 1.83762 11.2
    endloop
  endfacet
  facet normal 0 0 1
    outer loop
      vertex -4.10518 -1.09998 11.2
      vertex -6.85807 -1.83762 11.2
      vertex -6.14878 -3.55 11.2
    endloop
  endfacet
  facet normal 0 0 1
    outer loop
      vertex -4.25 0 11.2
      vertex -7.1 0 11.2
      vertex -6.85807 -1.83762 11.2
    endloop
  endfacet
  facet normal -0.608762 0.793353 0
    outer loop
      vertex -3.55 6.14878 6.2
      vertex -5.02046 5.02046 11.2
      vertex -3.55 6.14878 11.2
    endloop
  endfacet
  facet normal -0.608762 0.793353 0
    outer loop
      vertex -5.02046 5.02046 11.2
      vertex -3.55 6.14878 6.2
      vertex -5.02046 5.02046 6.2
    endloop
  endfacet
  facet normal -0.793353 0.608762 0
    outer loop
      vertex -6.14878 3.55 6.2
      vertex -5.02046 5.02046 11.2
      vertex -5.02046 5.02046 6.2
    endloop
  endfacet
  facet normal -0.793353 0.608762 0
    outer loop
      vertex -5.02046 5.02046 11.2
      vertex -6.14878 3.55 6.2
      vertex -6.14878 3.55 11.2
    endloop
  endfacet
  facet normal 0.991445 0.130526 0
    outer loop
      vertex 7.1 0 11.2
      vertex 6.85807 1.83762 6.2
      vertex 6.85807 1.83762 11.2
    endloop
  endfacet
  facet normal 0.991445 0.130526 0
    outer loop
      vertex 6.85807 1.83762 6.2
      vertex 7.1 0 11.2
      vertex 7.1 0 6.2
    endloop
  endfacet
  facet normal 0.382684 -0.923879 0
    outer loop
      vertex 1.83762 -6.85807 6.2
      vertex 3.55 -6.14878 11.2
      vertex 1.83762 -6.85807 11.2
    endloop
  endfacet
  facet normal 0.382684 -0.923879 0
    outer loop
      vertex 3.55 -6.14878 11.2
      vertex 1.83762 -6.85807 6.2
      vertex 3.55 -6.14878 6.2
    endloop
  endfacet
  facet normal 0.608762 -0.793353 0
    outer loop
      vertex 3.55 -6.14878 6.2
      vertex 5.02046 -5.02046 11.2
      vertex 3.55 -6.14878 11.2
    endloop
  endfacet
  facet normal 0.608762 -0.793353 0
    outer loop
      vertex 5.02046 -5.02046 11.2
      vertex 3.55 -6.14878 6.2
      vertex 5.02046 -5.02046 6.2
    endloop
  endfacet
  facet normal 0.130526 0.991445 -0
    outer loop
      vertex 1.83762 6.85807 6.2
      vertex 0 7.1 11.2
      vertex 1.83762 6.85807 11.2
    endloop
  endfacet
  facet normal 0.130526 0.991445 0
    outer loop
      vertex 0 7.1 11.2
      vertex 1.83762 6.85807 6.2
      vertex 0 7.1 6.2
    endloop
  endfacet
  facet normal 0.923879 -0.382684 0
    outer loop
      vertex 6.14878 -3.55 11.2
      vertex 6.85807 -1.83762 6.2
      vertex 6.85807 -1.83762 11.2
    endloop
  endfacet
  facet normal 0.923879 -0.382684 0
    outer loop
      vertex 6.85807 -1.83762 6.2
      vertex 6.14878 -3.55 11.2
      vertex 6.14878 -3.55 6.2
    endloop
  endfacet
  facet normal -0.130526 -0.991445 0
    outer loop
      vertex -1.83762 -6.85807 6.2
      vertex 0 -7.1 11.2
      vertex -1.83762 -6.85807 11.2
    endloop
  endfacet
  facet normal -0.130526 -0.991445 -0
    outer loop
      vertex 0 -7.1 11.2
      vertex -1.83762 -6.85807 6.2
      vertex 0 -7.1 6.2
    endloop
  endfacet
  facet normal 0.130526 -0.991445 0
    outer loop
      vertex 0 -7.1 6.2
      vertex 1.83762 -6.85807 11.2
      vertex 0 -7.1 11.2
    endloop
  endfacet
  facet normal 0.130526 -0.991445 0
    outer loop
      vertex 1.83762 -6.85807 11.2
      vertex 0 -7.1 6.2
      vertex 1.83762 -6.85807 6.2
    endloop
  endfacet
  facet normal -0.793353 -0.608762 0
    outer loop
      vertex -5.02046 -5.02046 6.2
      vertex -6.14878 -3.55 11.2
      vertex -6.14878 -3.55 6.2
    endloop
  endfacet
  facet normal -0.793353 -0.608762 0
    outer loop
      vertex -6.14878 -3.55 11.2
      vertex -5.02046 -5.02046 6.2
      vertex -5.02046 -5.02046 11.2
    endloop
  endfacet
  facet normal -0.923879 -0.382684 0
    outer loop
      vertex -6.14878 -3.55 6.2
      vertex -6.85807 -1.83762 11.2
      vertex -6.85807 -1.83762 6.2
    endloop
  endfacet
  facet normal -0.923879 -0.382684 0
    outer loop
      vertex -6.85807 -1.83762 11.2
      vertex -6.14878 -3.55 6.2
      vertex -6.14878 -3.55 11.2
    endloop
  endfacet
  facet normal -0.608762 -0.793353 0
    outer loop
      vertex -5.02046 -5.02046 6.2
      vertex -3.55 -6.14878 11.2
      vertex -5.02046 -5.02046 11.2
    endloop
  endfacet
  facet normal -0.608762 -0.793353 -0
    outer loop
      vertex -3.55 -6.14878 11.2
      vertex -5.02046 -5.02046 6.2
      vertex -3.55 -6.14878 6.2
    endloop
  endfacet
  facet normal 0.793353 -0.608762 0
    outer loop
      vertex 5.02046 -5.02046 11.2
      vertex 6.14878 -3.55 6.2
      vertex 6.14878 -3.55 11.2
    endloop
  endfacet
  facet normal 0.793353 -0.608762 0
    outer loop
      vertex 6.14878 -3.55 6.2
      vertex 5.02046 -5.02046 11.2
      vertex 5.02046 -5.02046 6.2
    endloop
  endfacet
  facet normal -0.382684 -0.923879 0
    outer loop
      vertex -3.55 -6.14878 6.2
      vertex -1.83762 -6.85807 11.2
      vertex -3.55 -6.14878 11.2
    endloop
  endfacet
  facet normal -0.382684 -0.923879 -0
    outer loop
      vertex -1.83762 -6.85807 11.2
      vertex -3.55 -6.14878 6.2
      vertex -1.83762 -6.85807 6.2
    endloop
  endfacet
  facet normal 0.5 -0.866025 0
    outer loop
      vertex -6.58179 3.8 -1.8
      vertex -5.45996 4.44769 5.2
      vertex -6.58179 3.8 5.2
    endloop
  endfacet
  facet normal 0.5 -0.866025 -2.31044e-08
    outer loop
      vertex -5.45996 4.44769 5.2
      vertex -6.58179 3.8 -1.8
      vertex -1.12184 6.95231 5.2
    endloop
  endfacet
  facet normal 0.5 -0.866025 8.6761e-11
    outer loop
      vertex 0 7.6 -1.8
      vertex -1.12184 6.95231 5.2
      vertex -6.58179 3.8 -1.8
    endloop
  endfacet
  facet normal 0.5 -0.866025 0
    outer loop
      vertex -1.12184 6.95231 5.2
      vertex 0 7.6 -1.8
      vertex 0 7.6 5.2
    endloop
  endfacet
  facet normal 1 -0 0
    outer loop
      vertex -6.58179 2.50461 5.2
      vertex -6.58179 3.8 -1.8
      vertex -6.58179 3.8 5.2
    endloop
  endfacet
  facet normal 1 -0 0
    outer loop
      vertex -6.58179 -2.50461 5.2
      vertex -6.58179 3.8 -1.8
      vertex -6.58179 2.50461 5.2
    endloop
  endfacet
  facet normal 1 0 0
    outer loop
      vertex -6.58179 -3.8 -1.8
      vertex -6.58179 -2.50461 5.2
      vertex -6.58179 -3.8 5.2
    endloop
  endfacet
  facet normal 1 0 0
    outer loop
      vertex -6.58179 -2.50461 5.2
      vertex -6.58179 -3.8 -1.8
      vertex -6.58179 3.8 -1.8
    endloop
  endfacet
  facet normal -0.5 0.866025 0
    outer loop
      vertex 6.58179 -3.8 -1.8
      vertex 5.45996 -4.44769 5.2
      vertex 6.58179 -3.8 5.2
    endloop
  endfacet
  facet normal -0.5 0.866025 -2.31044e-08
    outer loop
      vertex 5.45996 -4.44769 5.2
      vertex 6.58179 -3.8 -1.8
      vertex 1.12184 -6.95231 5.2
    endloop
  endfacet
  facet normal -0.5 0.866025 8.6761e-11
    outer loop
      vertex 0 -7.6 -1.8
      vertex 1.12184 -6.95231 5.2
      vertex 6.58179 -3.8 -1.8
    endloop
  endfacet
  facet normal -0.5 0.866025 0
    outer loop
      vertex 1.12184 -6.95231 5.2
      vertex 0 -7.6 -1.8
      vertex 0 -7.6 5.2
    endloop
  endfacet
  facet normal 0.5 0.866025 -0
    outer loop
      vertex 0 -7.6 -1.8
      vertex -1.12184 -6.95231 5.2
      vertex 0 -7.6 5.2
    endloop
  endfacet
  facet normal 0.5 0.866025 4.85175e-09
    outer loop
      vertex -1.12184 -6.95231 5.2
      vertex 0 -7.6 -1.8
      vertex -5.45996 -4.44769 5.2
    endloop
  endfacet
  facet normal 0.5 0.866025 -1.83394e-08
    outer loop
      vertex -6.58179 -3.8 -1.8
      vertex -5.45996 -4.44769 5.2
      vertex 0 -7.6 -1.8
    endloop
  endfacet
  facet normal 0.5 0.866025 0
    outer loop
      vertex -5.45996 -4.44769 5.2
      vertex -6.58179 -3.8 -1.8
      vertex -6.58179 -3.8 5.2
    endloop
  endfacet
  facet normal 0 0 -1
    outer loop
      vertex -6.14878 3.55 5.2
      vertex -6.58179 3.8 5.2
      vertex -5.45996 4.44769 5.2
    endloop
  endfacet
  facet normal 0 0 -1
    outer loop
      vertex -6.58179 3.8 5.2
      vertex -6.14878 3.55 5.2
      vertex -6.58179 2.50461 5.2
    endloop
  endfacet
  facet normal 0 0 -1
    outer loop
      vertex 0 7.1 5.2
      vertex 0 7.6 5.2
      vertex 1.12184 6.95231 5.2
    endloop
  endfacet
  facet normal 0 -0 -1
    outer loop
      vertex 0 7.6 5.2
      vertex 0 7.1 5.2
      vertex -1.12184 6.95231 5.2
    endloop
  endfacet
  facet normal 0 0 -1
    outer loop
      vertex -6.58179 -3.8 5.2
      vertex -6.14878 -3.55 5.2
      vertex -5.45996 -4.44769 5.2
    endloop
  endfacet
  facet normal -0 0 -1
    outer loop
      vertex -6.14878 -3.55 5.2
      vertex -6.58179 -3.8 5.2
      vertex -6.58179 -2.50461 5.2
    endloop
  endfacet
  facet normal 0 0 -1
    outer loop
      vertex 0 -7.6 5.2
      vertex 0 -7.1 5.2
      vertex 1.12184 -6.95231 5.2
    endloop
  endfacet
  facet normal -0 -0 -1
    outer loop
      vertex 0 -7.1 5.2
      vertex 0 -7.6 5.2
      vertex -1.12184 -6.95231 5.2
    endloop
  endfacet
  facet normal 0 0 -1
    outer loop
      vertex 6.58179 -3.8 5.2
      vertex 6.14878 -3.55 5.2
      vertex 6.58179 -2.50461 5.2
    endloop
  endfacet
  facet normal 0 -0 -1
    outer loop
      vertex 6.14878 -3.55 5.2
      vertex 6.58179 -3.8 5.2
      vertex 5.45996 -4.44769 5.2
    endloop
  endfacet
  facet normal 0 0 -1
    outer loop
      vertex 6.14878 3.55 5.2
      vertex 6.58179 3.8 5.2
      vertex 6.58179 2.50461 5.2
    endloop
  endfacet
  facet normal -0 0 -1
    outer loop
      vertex 6.58179 3.8 5.2
      vertex 6.14878 3.55 5.2
      vertex 5.45996 4.44769 5.2
    endloop
  endfacet
  facet normal 0 0 1
    outer loop
      vertex 6.58179 2.50461 5.2
      vertex 7.1 0 5.2
      vertex 6.85807 1.83762 5.2
    endloop
  endfacet
  facet normal 0 0 1
    outer loop
      vertex 6.58179 -2.50461 5.2
      vertex 7.1 0 5.2
      vertex 6.58179 2.50461 5.2
    endloop
  endfacet
  facet normal 0 0 1
    outer loop
      vertex 7.1 0 5.2
      vertex 6.58179 -2.50461 5.2
      vertex 6.85807 -1.83762 5.2
    endloop
  endfacet
  facet normal 0 0 1
    outer loop
      vertex -7.1 0 5.2
      vertex -6.58179 2.50461 5.2
      vertex -6.85807 1.83762 5.2
    endloop
  endfacet
  facet normal 0 0 1
    outer loop
      vertex -6.58179 2.50461 5.2
      vertex -7.1 0 5.2
      vertex -6.58179 -2.50461 5.2
    endloop
  endfacet
  facet normal 0 0 1
    outer loop
      vertex -6.58179 -2.50461 5.2
      vertex -7.1 0 5.2
      vertex -6.85807 -1.83762 5.2
    endloop
  endfacet
  facet normal 0 0 1
    outer loop
      vertex -3.55 6.14878 5.2
      vertex -1.12184 6.95231 5.2
      vertex -1.83762 6.85807 5.2
    endloop
  endfacet
  facet normal 0 0 1
    outer loop
      vertex -5.45996 4.44769 5.2
      vertex -3.55 6.14878 5.2
      vertex -5.02046 5.02046 5.2
    endloop
  endfacet
  facet normal -0 0 1
    outer loop
      vertex -3.55 6.14878 5.2
      vertex -5.45996 4.44769 5.2
      vertex -1.12184 6.95231 5.2
    endloop
  endfacet
  facet normal 0 0 1
    outer loop
      vertex 3.55 6.14878 5.2
      vertex 5.45996 4.44769 5.2
      vertex 5.02046 5.02046 5.2
    endloop
  endfacet
  facet normal 0 0 1
    outer loop
      vertex 1.12184 6.95231 5.2
      vertex 3.55 6.14878 5.2
      vertex 1.83762 6.85807 5.2
    endloop
  endfacet
  facet normal 0 0 1
    outer loop
      vertex 3.55 6.14878 5.2
      vertex 1.12184 6.95231 5.2
      vertex 5.45996 4.44769 5.2
    endloop
  endfacet
  facet normal 0 0 1
    outer loop
      vertex 5.45996 -4.44769 5.2
      vertex 3.55 -6.14878 5.2
      vertex 5.02046 -5.02046 5.2
    endloop
  endfacet
  facet normal 0 0 1
    outer loop
      vertex 1.12184 -6.95231 5.2
      vertex 3.55 -6.14878 5.2
      vertex 5.45996 -4.44769 5.2
    endloop
  endfacet
  facet normal 0 0 1
    outer loop
      vertex 3.55 -6.14878 5.2
      vertex 1.12184 -6.95231 5.2
      vertex 1.83762 -6.85807 5.2
    endloop
  endfacet
  facet normal 0 0 1
    outer loop
      vertex -1.12184 -6.95231 5.2
      vertex -3.55 -6.14878 5.2
      vertex -1.83762 -6.85807 5.2
    endloop
  endfacet
  facet normal 0 0 1
    outer loop
      vertex -5.45996 -4.44769 5.2
      vertex -3.55 -6.14878 5.2
      vertex -1.12184 -6.95231 5.2
    endloop
  endfacet
  facet normal 0 0 1
    outer loop
      vertex -3.55 -6.14878 5.2
      vertex -5.45996 -4.44769 5.2
      vertex -5.02046 -5.02046 5.2
    endloop
  endfacet
  facet normal -0.5 -0.866025 0
    outer loop
      vertex 0 7.6 -1.8
      vertex 1.12184 6.95231 5.2
      vertex 0 7.6 5.2
    endloop
  endfacet
  facet normal -0.5 -0.866025 4.85175e-09
    outer loop
      vertex 1.12184 6.95231 5.2
      vertex 0 7.6 -1.8
      vertex 5.45996 4.44769 5.2
    endloop
  endfacet
  facet normal -0.5 -0.866025 -1.83394e-08
    outer loop
      vertex 6.58179 3.8 -1.8
      vertex 5.45996 4.44769 5.2
      vertex 0 7.6 -1.8
    endloop
  endfacet
  facet normal -0.5 -0.866025 0
    outer loop
      vertex 5.45996 4.44769 5.2
      vertex 6.58179 3.8 -1.8
      vertex 6.58179 3.8 5.2
    endloop
  endfacet
  facet normal -1 0 0
    outer loop
      vertex 6.58179 3.8 -1.8
      vertex 6.58179 2.50461 5.2
      vertex 6.58179 3.8 5.2
    endloop
  endfacet
  facet normal -1 0 0
    outer loop
      vertex 6.58179 3.8 -1.8
      vertex 6.58179 -2.50461 5.2
      vertex 6.58179 2.50461 5.2
    endloop
  endfacet
  facet normal -1 0 0
    outer loop
      vertex 6.58179 -3.8 -1.8
      vertex 6.58179 -2.50461 5.2
      vertex 6.58179 3.8 -1.8
    endloop
  endfacet
  facet normal -1 -0 0
    outer loop
      vertex 6.58179 -2.50461 5.2
      vertex 6.58179 -3.8 -1.8
      vertex 6.58179 -3.8 5.2
    endloop
  endfacet
  facet normal -0.721719 -0.095016 -0.685633
    outer loop
      vertex 6.85807 1.83762 5.2
      vertex 7.1 0 5.2
      vertex 4.25 0 8.2
    endloop
  endfacet
  facet normal -0.672535 -0.278573 -0.685633
    outer loop
      vertex 3.68061 2.125 8.2
      vertex 6.58179 2.50461 5.2
      vertex 6.85807 1.83762 5.2
    endloop
  endfacet
  facet normal -0.672535 -0.278573 -0.685633
    outer loop
      vertex 6.58179 2.50461 5.2
      vertex 3.68061 2.125 8.2
      vertex 6.14878 3.55 5.2
    endloop
  endfacet
  facet normal -0.095016 0.721719 -0.685633
    outer loop
      vertex 1.12184 -6.95231 5.2
      vertex 0 -4.25 8.2
      vertex 1.83762 -6.85807 5.2
    endloop
  endfacet
  facet normal -0.095016 0.721719 -0.685633
    outer loop
      vertex 0 -4.25 8.2
      vertex 1.12184 -6.95231 5.2
      vertex 0 -7.1 5.2
    endloop
  endfacet
  facet normal 0.095016 -0.721719 -0.685633
    outer loop
      vertex -1.12184 6.95231 5.2
      vertex 0 4.25 8.2
      vertex -1.83762 6.85807 5.2
    endloop
  endfacet
  facet normal 0.095016 -0.721719 -0.685633
    outer loop
      vertex 0 4.25 8.2
      vertex -1.12184 6.95231 5.2
      vertex 0 7.1 5.2
    endloop
  endfacet
  facet normal -0.443146 0.577519 -0.685633
    outer loop
      vertex 5.02046 -5.02046 5.2
      vertex 3.55 -6.14878 5.2
      vertex 2.125 -3.68061 8.2
    endloop
  endfacet
  facet normal -0.278573 0.672535 -0.685633
    outer loop
      vertex 2.125 -3.68061 8.2
      vertex 1.83762 -6.85807 5.2
      vertex 1.09998 -4.10518 8.2
    endloop
  endfacet
  facet normal 0.443146 -0.577519 -0.685633
    outer loop
      vertex -2.125 3.68061 8.2
      vertex -3.0052 3.0052 8.2
      vertex -3.55 6.14878 5.2
    endloop
  endfacet
  facet normal -0.278573 -0.672535 -0.685633
    outer loop
      vertex 3.55 6.14878 5.2
      vertex 2.125 3.68061 8.2
      vertex 1.83762 6.85807 5.2
    endloop
  endfacet
  facet normal -0.721719 0.095016 -0.685633
    outer loop
      vertex 7.1 0 5.2
      vertex 6.85807 -1.83762 5.2
      vertex 4.25 0 8.2
    endloop
  endfacet
  facet normal 0.672535 -0.278573 -0.685633
    outer loop
      vertex -3.68061 2.125 8.2
      vertex -6.58179 2.50461 5.2
      vertex -6.14878 3.55 5.2
    endloop
  endfacet
  facet normal 0.672535 -0.278573 -0.685633
    outer loop
      vertex -6.58179 2.50461 5.2
      vertex -3.68061 2.125 8.2
      vertex -6.85807 1.83762 5.2
    endloop
  endfacet
  facet normal 0.278573 -0.672535 -0.685633
    outer loop
      vertex -1.83762 6.85807 5.2
      vertex -2.125 3.68061 8.2
      vertex -3.55 6.14878 5.2
    endloop
  endfacet
  facet normal 0.672535 -0.278573 -0.685633
    outer loop
      vertex -3.68061 2.125 8.2
      vertex -4.10518 1.09998 8.2
      vertex -6.85807 1.83762 5.2
    endloop
  endfacet
  facet normal 0.721719 -0.095016 -0.685633
    outer loop
      vertex -6.85807 1.83762 5.2
      vertex -4.25 0 8.2
      vertex -7.1 0 5.2
    endloop
  endfacet
  facet normal 0.721719 0.0950163 -0.685633
    outer loop
      vertex -4.25 0 8.2
      vertex -4.10518 -1.09998 8.2
      vertex -6.85807 -1.83762 5.2
    endloop
  endfacet
  facet normal -0.577519 -0.443146 -0.685633
    outer loop
      vertex 6.14878 3.55 5.2
      vertex 3.68061 2.125 8.2
      vertex 3.0052 3.0052 8.2
    endloop
  endfacet
  facet normal -0.577519 0.443146 -0.685633
    outer loop
      vertex 3.68061 -2.125 8.2
      vertex 5.02046 -5.02046 5.2
      vertex 3.0052 -3.0052 8.2
    endloop
  endfacet
  facet normal 0.443146 -0.577519 -0.685633
    outer loop
      vertex -3.55 6.14878 5.2
      vertex -3.0052 3.0052 8.2
      vertex -5.02046 5.02046 5.2
    endloop
  endfacet
  facet normal 0.278573 -0.672535 -0.685633
    outer loop
      vertex -1.83762 6.85807 5.2
      vertex -1.09998 4.10518 8.2
      vertex -2.125 3.68061 8.2
    endloop
  endfacet
  facet normal 0.721719 -0.0950163 -0.685633
    outer loop
      vertex -4.10518 1.09998 8.2
      vertex -4.25 0 8.2
      vertex -6.85807 1.83762 5.2
    endloop
  endfacet
  facet normal 0.278573 0.672535 -0.685633
    outer loop
      vertex -2.125 -3.68061 8.2
      vertex -1.83762 -6.85807 5.2
      vertex -3.55 -6.14878 5.2
    endloop
  endfacet
  facet normal 0.721719 0.095016 -0.685633
    outer loop
      vertex -4.25 0 8.2
      vertex -6.85807 -1.83762 5.2
      vertex -7.1 0 5.2
    endloop
  endfacet
  facet normal -0.672535 -0.278573 -0.685633
    outer loop
      vertex 6.85807 1.83762 5.2
      vertex 4.10518 1.09998 8.2
      vertex 3.68061 2.125 8.2
    endloop
  endfacet
  facet normal -0.577519 -0.443146 -0.685633
    outer loop
      vertex 5.45996 4.44769 5.2
      vertex 3.0052 3.0052 8.2
      vertex 5.02046 5.02046 5.2
    endloop
  endfacet
  facet normal -0.577519 -0.443146 -0.685633
    outer loop
      vertex 3.0052 3.0052 8.2
      vertex 5.45996 4.44769 5.2
      vertex 6.14878 3.55 5.2
    endloop
  endfacet
  facet normal -0.095016 -0.721719 -0.685633
    outer loop
      vertex 1.12184 6.95231 5.2
      vertex 0 4.25 8.2
      vertex 0 7.1 5.2
    endloop
  endfacet
  facet normal -0.095016 -0.721719 -0.685633
    outer loop
      vertex 0 4.25 8.2
      vertex 1.12184 6.95231 5.2
      vertex 1.83762 6.85807 5.2
    endloop
  endfacet
  facet normal -0.443146 -0.577519 -0.685633
    outer loop
      vertex 5.02046 5.02046 5.2
      vertex 3.0052 3.0052 8.2
      vertex 2.125 3.68061 8.2
    endloop
  endfacet
  facet normal -0.443146 -0.577519 -0.685633
    outer loop
      vertex 3.55 6.14878 5.2
      vertex 5.02046 5.02046 5.2
      vertex 2.125 3.68061 8.2
    endloop
  endfacet
  facet normal -0.278573 0.672535 -0.685633
    outer loop
      vertex 2.125 -3.68061 8.2
      vertex 3.55 -6.14878 5.2
      vertex 1.83762 -6.85807 5.2
    endloop
  endfacet
  facet normal 0.577519 -0.443146 -0.685633
    outer loop
      vertex -3.0052 3.0052 8.2
      vertex -5.45996 4.44769 5.2
      vertex -5.02046 5.02046 5.2
    endloop
  endfacet
  facet normal 0.577519 -0.443146 -0.685633
    outer loop
      vertex -5.45996 4.44769 5.2
      vertex -3.0052 3.0052 8.2
      vertex -6.14878 3.55 5.2
    endloop
  endfacet
  facet normal 0.577519 -0.443146 -0.685633
    outer loop
      vertex -3.0052 3.0052 8.2
      vertex -3.68061 2.125 8.2
      vertex -6.14878 3.55 5.2
    endloop
  endfacet
  facet normal 0.0950163 -0.721719 -0.685633
    outer loop
      vertex 0 4.25 8.2
      vertex -1.09998 4.10518 8.2
      vertex -1.83762 6.85807 5.2
    endloop
  endfacet
  facet normal 0.443146 0.577519 -0.685633
    outer loop
      vertex -3.0052 -3.0052 8.2
      vertex -2.125 -3.68061 8.2
      vertex -5.02046 -5.02046 5.2
    endloop
  endfacet
  facet normal 0.095016 0.721719 -0.685633
    outer loop
      vertex -1.12184 -6.95231 5.2
      vertex 0 -4.25 8.2
      vertex 0 -7.1 5.2
    endloop
  endfacet
  facet normal 0.095016 0.721719 -0.685633
    outer loop
      vertex 0 -4.25 8.2
      vertex -1.12184 -6.95231 5.2
      vertex -1.83762 -6.85807 5.2
    endloop
  endfacet
  facet normal 0.443146 0.577519 -0.685633
    outer loop
      vertex -2.125 -3.68061 8.2
      vertex -3.55 -6.14878 5.2
      vertex -5.02046 -5.02046 5.2
    endloop
  endfacet
  facet normal 0.577519 0.443146 -0.685633
    outer loop
      vertex -5.45996 -4.44769 5.2
      vertex -3.0052 -3.0052 8.2
      vertex -5.02046 -5.02046 5.2
    endloop
  endfacet
  facet normal 0.577519 0.443146 -0.685633
    outer loop
      vertex -3.0052 -3.0052 8.2
      vertex -5.45996 -4.44769 5.2
      vertex -6.14878 -3.55 5.2
    endloop
  endfacet
  facet normal 0.672535 0.278573 -0.685633
    outer loop
      vertex -4.10518 -1.09998 8.2
      vertex -3.68061 -2.125 8.2
      vertex -6.85807 -1.83762 5.2
    endloop
  endfacet
  facet normal -0.721719 -0.0950163 -0.685633
    outer loop
      vertex 6.85807 1.83762 5.2
      vertex 4.25 0 8.2
      vertex 4.10518 1.09998 8.2
    endloop
  endfacet
  facet normal -0.278573 -0.672535 -0.685633
    outer loop
      vertex 1.83762 6.85807 5.2
      vertex 2.125 3.68061 8.2
      vertex 1.09998 4.10518 8.2
    endloop
  endfacet
  facet normal -0.0950163 -0.721719 -0.685633
    outer loop
      vertex 1.83762 6.85807 5.2
      vertex 1.09998 4.10518 8.2
      vertex 0 4.25 8.2
    endloop
  endfacet
  facet normal -0.443146 0.577519 -0.685633
    outer loop
      vertex 3.0052 -3.0052 8.2
      vertex 5.02046 -5.02046 5.2
      vertex 2.125 -3.68061 8.2
    endloop
  endfacet
  facet normal -0.672535 0.278573 -0.685633
    outer loop
      vertex 3.68061 -2.125 8.2
      vertex 6.58179 -2.50461 5.2
      vertex 6.14878 -3.55 5.2
    endloop
  endfacet
  facet normal -0.672535 0.278573 -0.685633
    outer loop
      vertex 6.58179 -2.50461 5.2
      vertex 3.68061 -2.125 8.2
      vertex 6.85807 -1.83762 5.2
    endloop
  endfacet
  facet normal -0.577519 0.443146 -0.685633
    outer loop
      vertex 5.45996 -4.44769 5.2
      vertex 3.68061 -2.125 8.2
      vertex 6.14878 -3.55 5.2
    endloop
  endfacet
  facet normal -0.577519 0.443146 -0.685633
    outer loop
      vertex 3.68061 -2.125 8.2
      vertex 5.45996 -4.44769 5.2
      vertex 5.02046 -5.02046 5.2
    endloop
  endfacet
  facet normal -0.672535 0.278573 -0.685633
    outer loop
      vertex 4.10518 -1.09998 8.2
      vertex 6.85807 -1.83762 5.2
      vertex 3.68061 -2.125 8.2
    endloop
  endfacet
  facet normal -0.721719 0.0950163 -0.685633
    outer loop
      vertex 4.25 0 8.2
      vertex 6.85807 -1.83762 5.2
      vertex 4.10518 -1.09998 8.2
    endloop
  endfacet
  facet normal -0.0950163 0.721719 -0.685633
    outer loop
      vertex 1.09998 -4.10518 8.2
      vertex 1.83762 -6.85807 5.2
      vertex 0 -4.25 8.2
    endloop
  endfacet
  facet normal 0.0950163 0.721719 -0.685633
    outer loop
      vertex -1.09998 -4.10518 8.2
      vertex 0 -4.25 8.2
      vertex -1.83762 -6.85807 5.2
    endloop
  endfacet
  facet normal 0.672535 0.278573 -0.685633
    outer loop
      vertex -6.58179 -2.50461 5.2
      vertex -3.68061 -2.125 8.2
      vertex -6.14878 -3.55 5.2
    endloop
  endfacet
  facet normal 0.672535 0.278573 -0.685633
    outer loop
      vertex -3.68061 -2.125 8.2
      vertex -6.58179 -2.50461 5.2
      vertex -6.85807 -1.83762 5.2
    endloop
  endfacet
  facet normal 0.577519 0.443146 -0.685633
    outer loop
      vertex -3.68061 -2.125 8.2
      vertex -3.0052 -3.0052 8.2
      vertex -6.14878 -3.55 5.2
    endloop
  endfacet
  facet normal 0.278573 0.672535 -0.685633
    outer loop
      vertex -1.09998 -4.10518 8.2
      vertex -1.83762 -6.85807 5.2
      vertex -2.125 -3.68061 8.2
    endloop
  endfacet
  facet normal -0.991445 -0.130526 0
    outer loop
      vertex 4.25 0 8.2
      vertex 4.10518 1.09998 11.2
      vertex 4.10518 1.09998 8.2
    endloop
  endfacet
  facet normal -0.991445 -0.130526 0
    outer loop
      vertex 4.10518 1.09998 11.2
      vertex 4.25 0 8.2
      vertex 4.25 0 11.2
    endloop
  endfacet
  facet normal -0.382683 -0.92388 0
    outer loop
      vertex 1.09998 4.10518 8.2
      vertex 2.125 3.68061 11.2
      vertex 1.09998 4.10518 11.2
    endloop
  endfacet
  facet normal -0.382683 -0.92388 -0
    outer loop
      vertex 2.125 3.68061 11.2
      vertex 1.09998 4.10518 8.2
      vertex 2.125 3.68061 8.2
    endloop
  endfacet
  facet normal 0.923879 -0.382684 0
    outer loop
      vertex -4.10518 1.09998 11.2
      vertex -3.68061 2.125 8.2
      vertex -3.68061 2.125 11.2
    endloop
  endfacet
  facet normal 0.923879 -0.382684 0
    outer loop
      vertex -3.68061 2.125 8.2
      vertex -4.10518 1.09998 11.2
      vertex -4.10518 1.09998 8.2
    endloop
  endfacet
  facet normal 0.382683 0.92388 -0
    outer loop
      vertex -1.09998 -4.10518 8.2
      vertex -2.125 -3.68061 11.2
      vertex -1.09998 -4.10518 11.2
    endloop
  endfacet
  facet normal 0.382683 0.92388 0
    outer loop
      vertex -2.125 -3.68061 11.2
      vertex -1.09998 -4.10518 8.2
      vertex -2.125 -3.68061 8.2
    endloop
  endfacet
  facet normal -0.923879 -0.382684 0
    outer loop
      vertex 4.10518 1.09998 8.2
      vertex 3.68061 2.125 11.2
      vertex 3.68061 2.125 8.2
    endloop
  endfacet
  facet normal -0.923879 -0.382684 0
    outer loop
      vertex 3.68061 2.125 11.2
      vertex 4.10518 1.09998 8.2
      vertex 4.10518 1.09998 11.2
    endloop
  endfacet
  facet normal -0.130526 -0.991445 0
    outer loop
      vertex 0 4.25 8.2
      vertex 1.09998 4.10518 11.2
      vertex 0 4.25 11.2
    endloop
  endfacet
  facet normal -0.130526 -0.991445 -0
    outer loop
      vertex 1.09998 4.10518 11.2
      vertex 0 4.25 8.2
      vertex 1.09998 4.10518 8.2
    endloop
  endfacet
  facet normal 0.382684 -0.923879 0
    outer loop
      vertex -2.125 3.68061 8.2
      vertex -1.09998 4.10518 11.2
      vertex -2.125 3.68061 11.2
    endloop
  endfacet
  facet normal 0.382684 -0.923879 0
    outer loop
      vertex -1.09998 4.10518 11.2
      vertex -2.125 3.68061 8.2
      vertex -1.09998 4.10518 8.2
    endloop
  endfacet
  facet normal 0.793353 -0.608761 0
    outer loop
      vertex -3.68061 2.125 11.2
      vertex -3.0052 3.0052 8.2
      vertex -3.0052 3.0052 11.2
    endloop
  endfacet
  facet normal 0.793353 -0.608761 0
    outer loop
      vertex -3.0052 3.0052 8.2
      vertex -3.68061 2.125 11.2
      vertex -3.68061 2.125 8.2
    endloop
  endfacet
  facet normal 0.608761 -0.793353 0
    outer loop
      vertex -3.0052 3.0052 8.2
      vertex -2.125 3.68061 11.2
      vertex -3.0052 3.0052 11.2
    endloop
  endfacet
  facet normal 0.608761 -0.793353 0
    outer loop
      vertex -2.125 3.68061 11.2
      vertex -3.0052 3.0052 8.2
      vertex -2.125 3.68061 8.2
    endloop
  endfacet
  facet normal -0.608762 0.793353 0
    outer loop
      vertex 3.0052 -3.0052 8.2
      vertex 2.125 -3.68061 11.2
      vertex 3.0052 -3.0052 11.2
    endloop
  endfacet
  facet normal -0.608762 0.793353 0
    outer loop
      vertex 2.125 -3.68061 11.2
      vertex 3.0052 -3.0052 8.2
      vertex 2.125 -3.68061 8.2
    endloop
  endfacet
  facet normal 0.608762 0.793353 -0
    outer loop
      vertex -2.125 -3.68061 8.2
      vertex -3.0052 -3.0052 11.2
      vertex -2.125 -3.68061 11.2
    endloop
  endfacet
  facet normal 0.608762 0.793353 0
    outer loop
      vertex -3.0052 -3.0052 11.2
      vertex -2.125 -3.68061 8.2
      vertex -3.0052 -3.0052 8.2
    endloop
  endfacet
  facet normal 0.793353 0.608761 0
    outer loop
      vertex -3.0052 -3.0052 11.2
      vertex -3.68061 -2.125 8.2
      vertex -3.68061 -2.125 11.2
    endloop
  endfacet
  facet normal 0.793353 0.608761 0
    outer loop
      vertex -3.68061 -2.125 8.2
      vertex -3.0052 -3.0052 11.2
      vertex -3.0052 -3.0052 8.2
    endloop
  endfacet
  facet normal -0.793353 -0.608761 0
    outer loop
      vertex 3.68061 2.125 8.2
      vertex 3.0052 3.0052 11.2
      vertex 3.0052 3.0052 8.2
    endloop
  endfacet
  facet normal -0.793353 -0.608761 0
    outer loop
      vertex 3.0052 3.0052 11.2
      vertex 3.68061 2.125 8.2
      vertex 3.68061 2.125 11.2
    endloop
  endfacet
  facet normal -0.608762 -0.793353 0
    outer loop
      vertex 2.125 3.68061 8.2
      vertex 3.0052 3.0052 11.2
      vertex 2.125 3.68061 11.2
    endloop
  endfacet
  facet normal -0.608762 -0.793353 -0
    outer loop
      vertex 3.0052 3.0052 11.2
      vertex 2.125 3.68061 8.2
      vertex 3.0052 3.0052 8.2
    endloop
  endfacet
  facet normal 0.991445 -0.130526 0
    outer loop
      vertex -4.25 0 11.2
      vertex -4.10518 1.09998 8.2
      vertex -4.10518 1.09998 11.2
    endloop
  endfacet
  facet normal 0.991445 -0.130526 0
    outer loop
      vertex -4.10518 1.09998 8.2
      vertex -4.25 0 11.2
      vertex -4.25 0 8.2
    endloop
  endfacet
  facet normal 0.130526 -0.991445 0
    outer loop
      vertex -1.09998 4.10518 8.2
      vertex 0 4.25 11.2
      vertex -1.09998 4.10518 11.2
    endloop
  endfacet
  facet normal 0.130526 -0.991445 0
    outer loop
      vertex 0 4.25 11.2
      vertex -1.09998 4.10518 8.2
      vertex 0 4.25 8.2
    endloop
  endfacet
  facet normal -0.92388 0.382683 0
    outer loop
      vertex 3.68061 -2.125 8.2
      vertex 4.10518 -1.09998 11.2
      vertex 4.10518 -1.09998 8.2
    endloop
  endfacet
  facet normal -0.92388 0.382683 0
    outer loop
      vertex 4.10518 -1.09998 11.2
      vertex 3.68061 -2.125 8.2
      vertex 3.68061 -2.125 11.2
    endloop
  endfacet
  facet normal -0.130526 0.991445 0
    outer loop
      vertex 1.09998 -4.10518 8.2
      vertex 0 -4.25 11.2
      vertex 1.09998 -4.10518 11.2
    endloop
  endfacet
  facet normal -0.130526 0.991445 0
    outer loop
      vertex 0 -4.25 11.2
      vertex 1.09998 -4.10518 8.2
      vertex 0 -4.25 8.2
    endloop
  endfacet
  facet normal -0.382683 0.92388 0
    outer loop
      vertex 2.125 -3.68061 8.2
      vertex 1.09998 -4.10518 11.2
      vertex 2.125 -3.68061 11.2
    endloop
  endfacet
  facet normal -0.382683 0.92388 0
    outer loop
      vertex 1.09998 -4.10518 11.2
      vertex 2.125 -3.68061 8.2
      vertex 1.09998 -4.10518 8.2
    endloop
  endfacet
  facet normal 0.130526 0.991445 -0
    outer loop
      vertex 0 -4.25 8.2
      vertex -1.09998 -4.10518 11.2
      vertex 0 -4.25 11.2
    endloop
  endfacet
  facet normal 0.130526 0.991445 0
    outer loop
      vertex -1.09998 -4.10518 11.2
      vertex 0 -4.25 8.2
      vertex -1.09998 -4.10518 8.2
    endloop
  endfacet
  facet normal 0.991445 0.130526 0
    outer loop
      vertex -4.10518 -1.09998 11.2
      vertex -4.25 0 8.2
      vertex -4.25 0 11.2
    endloop
  endfacet
  facet normal 0.991445 0.130526 0
    outer loop
      vertex -4.25 0 8.2
      vertex -4.10518 -1.09998 11.2
      vertex -4.10518 -1.09998 8.2
    endloop
  endfacet
  facet normal -0.991445 0.130526 0
    outer loop
      vertex 4.10518 -1.09998 8.2
      vertex 4.25 0 11.2
      vertex 4.25 0 8.2
    endloop
  endfacet
  facet normal -0.991445 0.130526 0
    outer loop
      vertex 4.25 0 11.2
      vertex 4.10518 -1.09998 8.2
      vertex 4.10518 -1.09998 11.2
    endloop
  endfacet
  facet normal -0.793353 0.608762 0
    outer loop
      vertex 3.0052 -3.0052 8.2
      vertex 3.68061 -2.125 11.2
      vertex 3.68061 -2.125 8.2
    endloop
  endfacet
  facet normal -0.793353 0.608762 0
    outer loop
      vertex 3.68061 -2.125 11.2
      vertex 3.0052 -3.0052 8.2
      vertex 3.0052 -3.0052 11.2
    endloop
  endfacet
  facet normal 0.923879 0.382684 0
    outer loop
      vertex -3.68061 -2.125 11.2
      vertex -4.10518 -1.09998 8.2
      vertex -4.10518 -1.09998 11.2
    endloop
  endfacet
  facet normal 0.923879 0.382684 0
    outer loop
      vertex -4.10518 -1.09998 8.2
      vertex -3.68061 -2.125 11.2
      vertex -3.68061 -2.125 8.2
    endloop
  endfacet
endsolid OpenSCAD_Model
