solid OpenSCAD_Model
  facet normal 0.987688 0.156435 0
    outer loop
      vertex 12.5 0 1.5
      vertex 11.8882 3.86271 -1.8
      vertex 11.8882 3.86271 1.5
    endloop
  endfacet
  facet normal 0.987688 0.156435 0
    outer loop
      vertex 11.8882 3.86271 -1.8
      vertex 12.5 0 1.5
      vertex 12.5 0 -1.8
    endloop
  endfacet
  facet normal -0.987688 0.156435 0
    outer loop
      vertex -12.5 0 -1.8
      vertex -11.8882 3.86271 1.5
      vertex -11.8882 3.86271 -1.8
    endloop
  endfacet
  facet normal -0.987688 0.156435 0
    outer loop
      vertex -11.8882 3.86271 1.5
      vertex -12.5 0 -1.8
      vertex -12.5 0 1.5
    endloop
  endfacet
  facet normal 0.156435 0.987688 -0
    outer loop
      vertex 3.86271 11.8882 -1.8
      vertex 0 12.5 1.5
      vertex 3.86271 11.8882 1.5
    endloop
  endfacet
  facet normal 0.156435 0.987688 0
    outer loop
      vertex 0 12.5 1.5
      vertex 3.86271 11.8882 -1.8
      vertex 0 12.5 -1.8
    endloop
  endfacet
  facet normal -0.156435 -0.987688 0
    outer loop
      vertex -3.86271 -11.8882 -1.8
      vertex 0 -12.5 1.5
      vertex -3.86271 -11.8882 1.5
    endloop
  endfacet
  facet normal -0.156435 -0.987688 -0
    outer loop
      vertex 0 -12.5 1.5
      vertex -3.86271 -11.8882 -1.8
      vertex 0 -12.5 -1.8
    endloop
  endfacet
  facet normal 0 0 -1
    outer loop
      vertex -8.08422 1.02862 -1.8
      vertex -6.58179 3.8 -1.8
      vertex -7.83565 0.540779 -1.8
    endloop
  endfacet
  facet normal 0 0 -1
    outer loop
      vertex -8.47138 1.41578 -1.8
      vertex -6.58179 3.8 -1.8
      vertex -8.08422 1.02862 -1.8
    endloop
  endfacet
  facet normal 0 0 -1
    outer loop
      vertex -8.95922 1.66435 -1.8
      vertex -6.58179 3.8 -1.8
      vertex -8.47138 1.41578 -1.8
    endloop
  endfacet
  facet normal 0 0 -1
    outer loop
      vertex -9.5 1.75 -1.8
      vertex -6.58179 3.8 -1.8
      vertex -8.95922 1.66435 -1.8
    endloop
  endfacet
  facet normal 0 0 -1
    outer loop
      vertex -11.8882 3.86271 -1.8
      vertex -6.58179 3.8 -1.8
      vertex -9.5 1.75 -1.8
    endloop
  endfacet
  facet normal 0 0 -1
    outer loop
      vertex -11.8882 3.86271 -1.8
      vertex -9.5 1.75 -1.8
      vertex -10.0408 1.66435 -1.8
    endloop
  endfacet
  facet normal 0 0 -1
    outer loop
      vertex -6.58179 3.8 -1.8
      vertex -10.1127 7.34731 -1.8
      vertex -7.34731 10.1127 -1.8
    endloop
  endfacet
  facet normal 0 0 -1
    outer loop
      vertex -11.8882 3.86271 -1.8
      vertex -10.0408 1.66435 -1.8
      vertex -10.5286 1.41578 -1.8
    endloop
  endfacet
  facet normal 0 0 -1
    outer loop
      vertex -11.8882 3.86271 -1.8
      vertex -10.5286 1.41578 -1.8
      vertex -10.9158 1.02862 -1.8
    endloop
  endfacet
  facet normal 0 0 -1
    outer loop
      vertex -12.5 0 -1.8
      vertex -10.9158 1.02862 -1.8
      vertex -11.1643 0.540779 -1.8
    endloop
  endfacet
  facet normal 0 0 -1
    outer loop
      vertex -12.5 0 -1.8
      vertex -11.1643 0.540779 -1.8
      vertex -11.25 0 -1.8
    endloop
  endfacet
  facet normal 0 0 -1
    outer loop
      vertex -11.1643 -0.540779 -1.8
      vertex -12.5 0 -1.8
      vertex -11.25 0 -1.8
    endloop
  endfacet
  facet normal 0 0 -1
    outer loop
      vertex -6.58179 3.8 -1.8
      vertex -11.8882 3.86271 -1.8
      vertex -10.1127 7.34731 -1.8
    endloop
  endfacet
  facet normal -0 0 -1
    outer loop
      vertex -10.9158 1.02862 -1.8
      vertex -12.5 0 -1.8
      vertex -11.8882 3.86271 -1.8
    endloop
  endfacet
  facet normal -0 0 -1
    outer loop
      vertex 10.1127 7.34731 -1.8
      vertex 6.58179 3.8 -1.8
      vertex 7.34731 10.1127 -1.8
    endloop
  endfacet
  facet normal 0 0 -1
    outer loop
      vertex 0 7.6 -1.8
      vertex 7.34731 10.1127 -1.8
      vertex 6.58179 3.8 -1.8
    endloop
  endfacet
  facet normal -0 0 -1
    outer loop
      vertex 7.34731 10.1127 -1.8
      vertex 0 7.6 -1.8
      vertex 3.86271 11.8882 -1.8
    endloop
  endfacet
  facet normal 0 0 -1
    outer loop
      vertex 0 7.6 -1.8
      vertex 0 12.5 -1.8
      vertex 3.86271 11.8882 -1.8
    endloop
  endfacet
  facet normal 0 0 -1
    outer loop
      vertex 0 7.6 -1.8
      vertex -3.86271 11.8882 -1.8
      vertex 0 12.5 -1.8
    endloop
  endfacet
  facet normal 0 0 -1
    outer loop
      vertex -7.34731 10.1127 -1.8
      vertex 0 7.6 -1.8
      vertex -6.58179 3.8 -1.8
    endloop
  endfacet
  facet normal 0 0 -1
    outer loop
      vertex 0 7.6 -1.8
      vertex -7.34731 10.1127 -1.8
      vertex -3.86271 11.8882 -1.8
    endloop
  endfacet
  facet normal 0 -0 -1
    outer loop
      vertex -7.75 0 -1.8
      vertex -6.58179 -3.8 -1.8
      vertex -7.83565 -0.540779 -1.8
    endloop
  endfacet
  facet normal 0 0 -1
    outer loop
      vertex -7.83565 0.540779 -1.8
      vertex -6.58179 3.8 -1.8
      vertex -7.75 0 -1.8
    endloop
  endfacet
  facet normal 0 0 -1
    outer loop
      vertex -6.58179 -3.8 -1.8
      vertex -7.75 0 -1.8
      vertex -6.58179 3.8 -1.8
    endloop
  endfacet
  facet normal 0 0 -1
    outer loop
      vertex -7.34731 -10.1127 -1.8
      vertex -8.08422 -1.02862 -1.8
      vertex -7.83565 -0.540779 -1.8
    endloop
  endfacet
  facet normal 0 0 -1
    outer loop
      vertex -7.34731 -10.1127 -1.8
      vertex -8.47138 -1.41578 -1.8
      vertex -8.08422 -1.02862 -1.8
    endloop
  endfacet
  facet normal 0 0 -1
    outer loop
      vertex -10.1127 -7.34731 -1.8
      vertex -8.47138 -1.41578 -1.8
      vertex -7.34731 -10.1127 -1.8
    endloop
  endfacet
  facet normal 0 0 -1
    outer loop
      vertex -8.47138 -1.41578 -1.8
      vertex -10.1127 -7.34731 -1.8
      vertex -8.95922 -1.66435 -1.8
    endloop
  endfacet
  facet normal 0 0 -1
    outer loop
      vertex -8.95922 -1.66435 -1.8
      vertex -10.1127 -7.34731 -1.8
      vertex -9.5 -1.75 -1.8
    endloop
  endfacet
  facet normal 0 0 -1
    outer loop
      vertex -11.8882 -3.86271 -1.8
      vertex -9.5 -1.75 -1.8
      vertex -10.1127 -7.34731 -1.8
    endloop
  endfacet
  facet normal -0 0 -1
    outer loop
      vertex -9.5 -1.75 -1.8
      vertex -11.8882 -3.86271 -1.8
      vertex -10.0408 -1.66435 -1.8
    endloop
  endfacet
  facet normal -0 0 -1
    outer loop
      vertex -10.0408 -1.66435 -1.8
      vertex -11.8882 -3.86271 -1.8
      vertex -10.5286 -1.41578 -1.8
    endloop
  endfacet
  facet normal -0 0 -1
    outer loop
      vertex -10.5286 -1.41578 -1.8
      vertex -11.8882 -3.86271 -1.8
      vertex -10.9158 -1.02862 -1.8
    endloop
  endfacet
  facet normal 0 0 -1
    outer loop
      vertex -12.5 0 -1.8
      vertex -10.9158 -1.02862 -1.8
      vertex -11.8882 -3.86271 -1.8
    endloop
  endfacet
  facet normal 0 0 -1
    outer loop
      vertex -10.9158 -1.02862 -1.8
      vertex -12.5 0 -1.8
      vertex -11.1643 -0.540779 -1.8
    endloop
  endfacet
  facet normal 0 0 -1
    outer loop
      vertex 10.9158 -1.02862 -1.8
      vertex 12.5 0 -1.8
      vertex 11.8882 -3.86271 -1.8
    endloop
  endfacet
  facet normal 0 0 -1
    outer loop
      vertex 11.1643 0.540779 -1.8
      vertex 12.5 0 -1.8
      vertex 11.25 0 -1.8
    endloop
  endfacet
  facet normal -0 0 -1
    outer loop
      vertex 12.5 0 -1.8
      vertex 11.1643 -0.540779 -1.8
      vertex 11.25 0 -1.8
    endloop
  endfacet
  facet normal 0 0 -1
    outer loop
      vertex 12.5 0 -1.8
      vertex 10.9158 -1.02862 -1.8
      vertex 11.1643 -0.540779 -1.8
    endloop
  endfacet
  facet normal 0 0 -1
    outer loop
      vertex 11.8882 -3.86271 -1.8
      vertex 10.5286 -1.41578 -1.8
      vertex 10.9158 -1.02862 -1.8
    endloop
  endfacet
  facet normal 0 0 -1
    outer loop
      vertex 6.58179 -3.8 -1.8
      vertex 11.8882 -3.86271 -1.8
      vertex 10.1127 -7.34731 -1.8
    endloop
  endfacet
  facet normal 0 0 -1
    outer loop
      vertex 11.8882 -3.86271 -1.8
      vertex 10.0408 -1.66435 -1.8
      vertex 10.5286 -1.41578 -1.8
    endloop
  endfacet
  facet normal 0 0 -1
    outer loop
      vertex 11.8882 -3.86271 -1.8
      vertex 9.5 -1.75 -1.8
      vertex 10.0408 -1.66435 -1.8
    endloop
  endfacet
  facet normal 0 0 -1
    outer loop
      vertex 11.8882 -3.86271 -1.8
      vertex 6.58179 -3.8 -1.8
      vertex 9.5 -1.75 -1.8
    endloop
  endfacet
  facet normal -0 0 -1
    outer loop
      vertex 9.5 -1.75 -1.8
      vertex 6.58179 -3.8 -1.8
      vertex 8.95922 -1.66435 -1.8
    endloop
  endfacet
  facet normal -0 0 -1
    outer loop
      vertex 8.95922 -1.66435 -1.8
      vertex 6.58179 -3.8 -1.8
      vertex 8.47138 -1.41578 -1.8
    endloop
  endfacet
  facet normal -0 0 -1
    outer loop
      vertex 8.47138 -1.41578 -1.8
      vertex 6.58179 -3.8 -1.8
      vertex 8.08422 -1.02862 -1.8
    endloop
  endfacet
  facet normal -0 0 -1
    outer loop
      vertex 8.08422 -1.02862 -1.8
      vertex 6.58179 -3.8 -1.8
      vertex 7.83565 -0.540779 -1.8
    endloop
  endfacet
  facet normal 0 0 -1
    outer loop
      vertex 6.58179 -3.8 -1.8
      vertex 10.1127 -7.34731 -1.8
      vertex 7.34731 -10.1127 -1.8
    endloop
  endfacet
  facet normal 0 0 -1
    outer loop
      vertex 10.9158 1.02862 -1.8
      vertex 12.5 0 -1.8
      vertex 11.1643 0.540779 -1.8
    endloop
  endfacet
  facet normal 0 0 -1
    outer loop
      vertex 12.5 0 -1.8
      vertex 10.9158 1.02862 -1.8
      vertex 11.8882 3.86271 -1.8
    endloop
  endfacet
  facet normal 0 0 -1
    outer loop
      vertex 10.5286 1.41578 -1.8
      vertex 11.8882 3.86271 -1.8
      vertex 10.9158 1.02862 -1.8
    endloop
  endfacet
  facet normal 0 0 -1
    outer loop
      vertex 10.0408 1.66435 -1.8
      vertex 11.8882 3.86271 -1.8
      vertex 10.5286 1.41578 -1.8
    endloop
  endfacet
  facet normal 0 0 -1
    outer loop
      vertex 9.5 1.75 -1.8
      vertex 11.8882 3.86271 -1.8
      vertex 10.0408 1.66435 -1.8
    endloop
  endfacet
  facet normal 0 0 -1
    outer loop
      vertex 6.58179 3.8 -1.8
      vertex 11.8882 3.86271 -1.8
      vertex 9.5 1.75 -1.8
    endloop
  endfacet
  facet normal 0 0 -1
    outer loop
      vertex 6.58179 3.8 -1.8
      vertex 9.5 1.75 -1.8
      vertex 8.95922 1.66435 -1.8
    endloop
  endfacet
  facet normal 0 0 -1
    outer loop
      vertex 6.58179 3.8 -1.8
      vertex 8.95922 1.66435 -1.8
      vertex 8.47138 1.41578 -1.8
    endloop
  endfacet
  facet normal 0 0 -1
    outer loop
      vertex 6.58179 3.8 -1.8
      vertex 8.47138 1.41578 -1.8
      vertex 8.08422 1.02862 -1.8
    endloop
  endfacet
  facet normal 0 0 -1
    outer loop
      vertex 6.58179 3.8 -1.8
      vertex 8.08422 1.02862 -1.8
      vertex 7.83565 0.540779 -1.8
    endloop
  endfacet
  facet normal -0 0 -1
    outer loop
      vertex 11.8882 3.86271 -1.8
      vertex 6.58179 3.8 -1.8
      vertex 10.1127 7.34731 -1.8
    endloop
  endfacet
  facet normal 0 0 -1
    outer loop
      vertex 6.58179 3.8 -1.8
      vertex 7.75 0 -1.8
      vertex 6.58179 -3.8 -1.8
    endloop
  endfacet
  facet normal -0 0 -1
    outer loop
      vertex 7.83565 -0.540779 -1.8
      vertex 6.58179 -3.8 -1.8
      vertex 7.75 0 -1.8
    endloop
  endfacet
  facet normal 0 0 -1
    outer loop
      vertex 7.75 0 -1.8
      vertex 6.58179 3.8 -1.8
      vertex 7.83565 0.540779 -1.8
    endloop
  endfacet
  facet normal 0 0 -1
    outer loop
      vertex 0 -7.6 -1.8
      vertex 7.34731 -10.1127 -1.8
      vertex 3.86271 -11.8882 -1.8
    endloop
  endfacet
  facet normal 0 0 -1
    outer loop
      vertex 0 -7.6 -1.8
      vertex 3.86271 -11.8882 -1.8
      vertex 0 -12.5 -1.8
    endloop
  endfacet
  facet normal 0 0 -1
    outer loop
      vertex 7.34731 -10.1127 -1.8
      vertex 0 -7.6 -1.8
      vertex 6.58179 -3.8 -1.8
    endloop
  endfacet
  facet normal 0 0 -1
    outer loop
      vertex -3.86271 -11.8882 -1.8
      vertex 0 -7.6 -1.8
      vertex 0 -12.5 -1.8
    endloop
  endfacet
  facet normal 0 0 -1
    outer loop
      vertex -7.34731 -10.1127 -1.8
      vertex 0 -7.6 -1.8
      vertex -3.86271 -11.8882 -1.8
    endloop
  endfacet
  facet normal 0 0 -1
    outer loop
      vertex -7.83565 -0.540779 -1.8
      vertex -6.58179 -3.8 -1.8
      vertex -7.34731 -10.1127 -1.8
    endloop
  endfacet
  facet normal -0 0 -1
    outer loop
      vertex 0 -7.6 -1.8
      vertex -7.34731 -10.1127 -1.8
      vertex -6.58179 -3.8 -1.8
    endloop
  endfacet
  facet normal 0.707107 0.707107 0
    outer loop
      vertex 10.1127 7.34731 1.5
      vertex 7.34731 10.1127 -1.8
      vertex 7.34731 10.1127 1.5
    endloop
  endfacet
  facet normal 0.707107 0.707107 0
    outer loop
      vertex 7.34731 10.1127 -1.8
      vertex 10.1127 7.34731 1.5
      vertex 10.1127 7.34731 -1.8
    endloop
  endfacet
  facet normal 0.891007 0.45399 0
    outer loop
      vertex 11.8882 3.86271 1.5
      vertex 10.1127 7.34731 -1.8
      vertex 10.1127 7.34731 1.5
    endloop
  endfacet
  facet normal 0.891007 0.45399 0
    outer loop
      vertex 10.1127 7.34731 -1.8
      vertex 11.8882 3.86271 1.5
      vertex 11.8882 3.86271 -1.8
    endloop
  endfacet
  facet normal 0.45399 0.891007 -0
    outer loop
      vertex 7.34731 10.1127 -1.8
      vertex 3.86271 11.8882 1.5
      vertex 7.34731 10.1127 1.5
    endloop
  endfacet
  facet normal 0.45399 0.891007 0
    outer loop
      vertex 3.86271 11.8882 1.5
      vertex 7.34731 10.1127 -1.8
      vertex 3.86271 11.8882 -1.8
    endloop
  endfacet
  facet normal -0.45399 0.891007 0
    outer loop
      vertex -3.86271 11.8882 -1.8
      vertex -7.34731 10.1127 1.5
      vertex -3.86271 11.8882 1.5
    endloop
  endfacet
  facet normal -0.45399 0.891007 0
    outer loop
      vertex -7.34731 10.1127 1.5
      vertex -3.86271 11.8882 -1.8
      vertex -7.34731 10.1127 -1.8
    endloop
  endfacet
  facet normal -0.707107 0.707107 0
    outer loop
      vertex -10.1127 7.34731 -1.8
      vertex -7.34731 10.1127 1.5
      vertex -7.34731 10.1127 -1.8
    endloop
  endfacet
  facet normal -0.707107 0.707107 0
    outer loop
      vertex -7.34731 10.1127 1.5
      vertex -10.1127 7.34731 -1.8
      vertex -10.1127 7.34731 1.5
    endloop
  endfacet
  facet normal -0.156435 0.987688 0
    outer loop
      vertex 0 12.5 -1.8
      vertex -3.86271 11.8882 1.5
      vertex 0 12.5 1.5
    endloop
  endfacet
  facet normal -0.156435 0.987688 0
    outer loop
      vertex -3.86271 11.8882 1.5
      vertex 0 12.5 -1.8
      vertex -3.86271 11.8882 -1.8
    endloop
  endfacet
  facet normal 0.891007 -0.45399 0
    outer loop
      vertex 10.1127 -7.34731 1.5
      vertex 11.8882 -3.86271 -1.8
      vertex 11.8882 -3.86271 1.5
    endloop
  endfacet
  facet normal 0.891007 -0.45399 0
    outer loop
      vertex 11.8882 -3.86271 -1.8
      vertex 10.1127 -7.34731 1.5
      vertex 10.1127 -7.34731 -1.8
    endloop
  endfacet
  facet normal -0.707107 -0.707107 0
    outer loop
      vertex -7.34731 -10.1127 -1.8
      vertex -10.1127 -7.34731 1.5
      vertex -10.1127 -7.34731 -1.8
    endloop
  endfacet
  facet normal -0.707107 -0.707107 0
    outer loop
      vertex -10.1127 -7.34731 1.5
      vertex -7.34731 -10.1127 -1.8
      vertex -7.34731 -10.1127 1.5
    endloop
  endfacet
  facet normal -0.987688 -0.156435 0
    outer loop
      vertex -11.8882 -3.86271 -1.8
      vertex -12.5 0 1.5
      vertex -12.5 0 -1.8
    endloop
  endfacet
  facet normal -0.987688 -0.156435 0
    outer loop
      vertex -12.5 0 1.5
      vertex -11.8882 -3.86271 -1.8
      vertex -11.8882 -3.86271 1.5
    endloop
  endfacet
  facet normal -0.891007 0.45399 0
    outer loop
      vertex -11.8882 3.86271 -1.8
      vertex -10.1127 7.34731 1.5
      vertex -10.1127 7.34731 -1.8
    endloop
  endfacet
  facet normal -0.891007 0.45399 0
    outer loop
      vertex -10.1127 7.34731 1.5
      vertex -11.8882 3.86271 -1.8
      vertex -11.8882 3.86271 1.5
    endloop
  endfacet
  facet normal -0 0 1
    outer loop
      vertex -8.08422 -1.02862 1.5
      vertex -7.1 -8.6 1.5
      vertex -7.83565 -0.540779 1.5
    endloop
  endfacet
  facet normal -0 0 1
    outer loop
      vertex -8.47138 -1.41578 1.5
      vertex -7.1 -8.6 1.5
      vertex -8.08422 -1.02862 1.5
    endloop
  endfacet
  facet normal -0 0 1
    outer loop
      vertex -8.95922 -1.66435 1.5
      vertex -7.1 -8.6 1.5
      vertex -8.47138 -1.41578 1.5
    endloop
  endfacet
  facet normal 0 0 1
    outer loop
      vertex -7.1 -8.6 1.5
      vertex -8.95922 -1.66435 1.5
      vertex -10.1127 -7.34731 1.5
    endloop
  endfacet
  facet normal 0 0 1
    outer loop
      vertex -10.1127 -7.34731 1.5
      vertex -8.95922 -1.66435 1.5
      vertex -9.5 -1.75 1.5
    endloop
  endfacet
  facet normal 0 0 1
    outer loop
      vertex -11.8882 -3.86271 1.5
      vertex -9.5 -1.75 1.5
      vertex -10.0408 -1.66435 1.5
    endloop
  endfacet
  facet normal 0 0 1
    outer loop
      vertex -7.1 -8.6 1.5
      vertex -10.1127 -7.34731 1.5
      vertex -7.34731 -10.1127 1.5
    endloop
  endfacet
  facet normal 0 0 1
    outer loop
      vertex -11.8882 -3.86271 1.5
      vertex -10.0408 -1.66435 1.5
      vertex -10.5286 -1.41578 1.5
    endloop
  endfacet
  facet normal 0 0 1
    outer loop
      vertex -11.8882 -3.86271 1.5
      vertex -10.5286 -1.41578 1.5
      vertex -10.9158 -1.02862 1.5
    endloop
  endfacet
  facet normal 0 0 1
    outer loop
      vertex -12.5 0 1.5
      vertex -10.9158 -1.02862 1.5
      vertex -11.1643 -0.540779 1.5
    endloop
  endfacet
  facet normal -0 0 1
    outer loop
      vertex -12.5 0 1.5
      vertex -11.1643 -0.540779 1.5
      vertex -11.25 0 1.5
    endloop
  endfacet
  facet normal 0 0 1
    outer loop
      vertex -11.1643 0.540779 1.5
      vertex -12.5 0 1.5
      vertex -11.25 0 1.5
    endloop
  endfacet
  facet normal 0 0 1
    outer loop
      vertex -9.5 -1.75 1.5
      vertex -11.8882 -3.86271 1.5
      vertex -10.1127 -7.34731 1.5
    endloop
  endfacet
  facet normal 0 0 1
    outer loop
      vertex -10.9158 -1.02862 1.5
      vertex -12.5 0 1.5
      vertex -11.8882 -3.86271 1.5
    endloop
  endfacet
  facet normal 0 0 1
    outer loop
      vertex 10.1127 -7.34731 1.5
      vertex 7.1 -8.6 1.5
      vertex 7.34731 -10.1127 1.5
    endloop
  endfacet
  facet normal 0 0 1
    outer loop
      vertex 7.1 -8.6 1.5
      vertex 3.86271 -11.8882 1.5
      vertex 7.34731 -10.1127 1.5
    endloop
  endfacet
  facet normal 0 0 1
    outer loop
      vertex 7.1 -8.6 1.5
      vertex 0 -12.5 1.5
      vertex 3.86271 -11.8882 1.5
    endloop
  endfacet
  facet normal -0 0 1
    outer loop
      vertex -7.1 -8.6 1.5
      vertex 0 -12.5 1.5
      vertex 7.1 -8.6 1.5
    endloop
  endfacet
  facet normal 0 0 1
    outer loop
      vertex 0 -12.5 1.5
      vertex -7.1 -8.6 1.5
      vertex -3.86271 -11.8882 1.5
    endloop
  endfacet
  facet normal 0 0 1
    outer loop
      vertex -7.1 -8.6 1.5
      vertex -7.34731 -10.1127 1.5
      vertex -3.86271 -11.8882 1.5
    endloop
  endfacet
  facet normal 0 0 1
    outer loop
      vertex -7.1 8.6 1.5
      vertex -7.75 0 1.5
      vertex -7.1 -8.6 1.5
    endloop
  endfacet
  facet normal -0 0 1
    outer loop
      vertex -7.83565 -0.540779 1.5
      vertex -7.1 -8.6 1.5
      vertex -7.75 0 1.5
    endloop
  endfacet
  facet normal 0 0 1
    outer loop
      vertex -7.34731 10.1127 1.5
      vertex -7.83565 0.540779 1.5
      vertex -7.75 0 1.5
    endloop
  endfacet
  facet normal 0 0 1
    outer loop
      vertex -7.34731 10.1127 1.5
      vertex -8.08422 1.02862 1.5
      vertex -7.83565 0.540779 1.5
    endloop
  endfacet
  facet normal 0 0 1
    outer loop
      vertex -7.34731 10.1127 1.5
      vertex -8.47138 1.41578 1.5
      vertex -8.08422 1.02862 1.5
    endloop
  endfacet
  facet normal -0 0 1
    outer loop
      vertex -10.1127 7.34731 1.5
      vertex -8.47138 1.41578 1.5
      vertex -7.34731 10.1127 1.5
    endloop
  endfacet
  facet normal 0 0 1
    outer loop
      vertex -8.47138 1.41578 1.5
      vertex -10.1127 7.34731 1.5
      vertex -8.95922 1.66435 1.5
    endloop
  endfacet
  facet normal 0 0 1
    outer loop
      vertex -8.95922 1.66435 1.5
      vertex -10.1127 7.34731 1.5
      vertex -9.5 1.75 1.5
    endloop
  endfacet
  facet normal -0 0 1
    outer loop
      vertex -11.8882 3.86271 1.5
      vertex -9.5 1.75 1.5
      vertex -10.1127 7.34731 1.5
    endloop
  endfacet
  facet normal 0 0 1
    outer loop
      vertex -9.5 1.75 1.5
      vertex -11.8882 3.86271 1.5
      vertex -10.0408 1.66435 1.5
    endloop
  endfacet
  facet normal 0 0 1
    outer loop
      vertex -10.0408 1.66435 1.5
      vertex -11.8882 3.86271 1.5
      vertex -10.5286 1.41578 1.5
    endloop
  endfacet
  facet normal 0 0 1
    outer loop
      vertex -10.5286 1.41578 1.5
      vertex -11.8882 3.86271 1.5
      vertex -10.9158 1.02862 1.5
    endloop
  endfacet
  facet normal 0 0 1
    outer loop
      vertex -12.5 0 1.5
      vertex -10.9158 1.02862 1.5
      vertex -11.8882 3.86271 1.5
    endloop
  endfacet
  facet normal 0 0 1
    outer loop
      vertex -10.9158 1.02862 1.5
      vertex -12.5 0 1.5
      vertex -11.1643 0.540779 1.5
    endloop
  endfacet
  facet normal -0 0 1
    outer loop
      vertex 10.9158 1.02862 1.5
      vertex 12.5 0 1.5
      vertex 11.8882 3.86271 1.5
    endloop
  endfacet
  facet normal 0 0 1
    outer loop
      vertex 11.1643 -0.540779 1.5
      vertex 12.5 0 1.5
      vertex 11.25 0 1.5
    endloop
  endfacet
  facet normal 0 0 1
    outer loop
      vertex 12.5 0 1.5
      vertex 11.1643 0.540779 1.5
      vertex 11.25 0 1.5
    endloop
  endfacet
  facet normal 0 0 1
    outer loop
      vertex 12.5 0 1.5
      vertex 10.9158 1.02862 1.5
      vertex 11.1643 0.540779 1.5
    endloop
  endfacet
  facet normal 0 0 1
    outer loop
      vertex 11.8882 3.86271 1.5
      vertex 10.5286 1.41578 1.5
      vertex 10.9158 1.02862 1.5
    endloop
  endfacet
  facet normal 0 0 1
    outer loop
      vertex 9.5 1.75 1.5
      vertex 11.8882 3.86271 1.5
      vertex 10.1127 7.34731 1.5
    endloop
  endfacet
  facet normal 0 0 1
    outer loop
      vertex 11.8882 3.86271 1.5
      vertex 10.0408 1.66435 1.5
      vertex 10.5286 1.41578 1.5
    endloop
  endfacet
  facet normal 0 0 1
    outer loop
      vertex 11.8882 3.86271 1.5
      vertex 9.5 1.75 1.5
      vertex 10.0408 1.66435 1.5
    endloop
  endfacet
  facet normal 0 0 1
    outer loop
      vertex 10.1127 7.34731 1.5
      vertex 8.95922 1.66435 1.5
      vertex 9.5 1.75 1.5
    endloop
  endfacet
  facet normal 0 0 1
    outer loop
      vertex 7.1 8.6 1.5
      vertex 8.95922 1.66435 1.5
      vertex 10.1127 7.34731 1.5
    endloop
  endfacet
  facet normal 0 0 1
    outer loop
      vertex 8.95922 1.66435 1.5
      vertex 7.1 8.6 1.5
      vertex 8.47138 1.41578 1.5
    endloop
  endfacet
  facet normal 0 0 1
    outer loop
      vertex 8.47138 1.41578 1.5
      vertex 7.1 8.6 1.5
      vertex 8.08422 1.02862 1.5
    endloop
  endfacet
  facet normal 0 0 1
    outer loop
      vertex 8.08422 1.02862 1.5
      vertex 7.1 8.6 1.5
      vertex 7.83565 0.540779 1.5
    endloop
  endfacet
  facet normal -0 0 1
    outer loop
      vertex 7.1 8.6 1.5
      vertex 10.1127 7.34731 1.5
      vertex 7.34731 10.1127 1.5
    endloop
  endfacet
  facet normal 0 0 1
    outer loop
      vertex 10.9158 -1.02862 1.5
      vertex 12.5 0 1.5
      vertex 11.1643 -0.540779 1.5
    endloop
  endfacet
  facet normal 0 0 1
    outer loop
      vertex 12.5 0 1.5
      vertex 10.9158 -1.02862 1.5
      vertex 11.8882 -3.86271 1.5
    endloop
  endfacet
  facet normal -0 0 1
    outer loop
      vertex 10.5286 -1.41578 1.5
      vertex 11.8882 -3.86271 1.5
      vertex 10.9158 -1.02862 1.5
    endloop
  endfacet
  facet normal -0 0 1
    outer loop
      vertex 10.0408 -1.66435 1.5
      vertex 11.8882 -3.86271 1.5
      vertex 10.5286 -1.41578 1.5
    endloop
  endfacet
  facet normal -0 0 1
    outer loop
      vertex 9.5 -1.75 1.5
      vertex 11.8882 -3.86271 1.5
      vertex 10.0408 -1.66435 1.5
    endloop
  endfacet
  facet normal 0 0 1
    outer loop
      vertex 11.8882 -3.86271 1.5
      vertex 9.5 -1.75 1.5
      vertex 10.1127 -7.34731 1.5
    endloop
  endfacet
  facet normal 0 0 1
    outer loop
      vertex 8.95922 -1.66435 1.5
      vertex 10.1127 -7.34731 1.5
      vertex 9.5 -1.75 1.5
    endloop
  endfacet
  facet normal 0 0 1
    outer loop
      vertex 7.1 -8.6 1.5
      vertex 8.95922 -1.66435 1.5
      vertex 8.47138 -1.41578 1.5
    endloop
  endfacet
  facet normal 0 0 1
    outer loop
      vertex 7.1 -8.6 1.5
      vertex 8.47138 -1.41578 1.5
      vertex 8.08422 -1.02862 1.5
    endloop
  endfacet
  facet normal 0 0 1
    outer loop
      vertex 7.1 -8.6 1.5
      vertex 8.08422 -1.02862 1.5
      vertex 7.83565 -0.540779 1.5
    endloop
  endfacet
  facet normal 0 0 1
    outer loop
      vertex 8.95922 -1.66435 1.5
      vertex 7.1 -8.6 1.5
      vertex 10.1127 -7.34731 1.5
    endloop
  endfacet
  facet normal 0 0 1
    outer loop
      vertex 7.1 -8.6 1.5
      vertex 7.83565 -0.540779 1.5
      vertex 7.75 0 1.5
    endloop
  endfacet
  facet normal 0 0 1
    outer loop
      vertex 7.83565 0.540779 1.5
      vertex 7.1 8.6 1.5
      vertex 7.75 0 1.5
    endloop
  endfacet
  facet normal 0 0 1
    outer loop
      vertex 7.1 -8.6 1.5
      vertex 7.75 0 1.5
      vertex 7.1 8.6 1.5
    endloop
  endfacet
  facet normal 0 0 1
    outer loop
      vertex 3.86271 11.8882 1.5
      vertex 7.1 8.6 1.5
      vertex 7.34731 10.1127 1.5
    endloop
  endfacet
  facet normal 0 0 1
    outer loop
      vertex 0 12.5 1.5
      vertex 7.1 8.6 1.5
      vertex 3.86271 11.8882 1.5
    endloop
  endfacet
  facet normal 0 0 1
    outer loop
      vertex -7.1 8.6 1.5
      vertex 0 12.5 1.5
      vertex -3.86271 11.8882 1.5
    endloop
  endfacet
  facet normal 0 0 1
    outer loop
      vertex 0 12.5 1.5
      vertex -7.1 8.6 1.5
      vertex 7.1 8.6 1.5
    endloop
  endfacet
  facet normal 0 0 1
    outer loop
      vertex -7.75 0 1.5
      vertex -7.1 8.6 1.5
      vertex -7.34731 10.1127 1.5
    endloop
  endfacet
  facet normal -0 0 1
    outer loop
      vertex -7.34731 10.1127 1.5
      vertex -7.1 8.6 1.5
      vertex -3.86271 11.8882 1.5
    endloop
  endfacet
  facet normal 0.987688 -0.156435 0
    outer loop
      vertex 11.8882 -3.86271 1.5
      vertex 12.5 0 -1.8
      vertex 12.5 0 1.5
    endloop
  endfacet
  facet normal 0.987688 -0.156435 0
    outer loop
      vertex 12.5 0 -1.8
      vertex 11.8882 -3.86271 1.5
      vertex 11.8882 -3.86271 -1.8
    endloop
  endfacet
  facet normal 0.156435 -0.987688 0
    outer loop
      vertex 0 -12.5 -1.8
      vertex 3.86271 -11.8882 1.5
      vertex 0 -12.5 1.5
    endloop
  endfacet
  facet normal 0.156435 -0.987688 0
    outer loop
      vertex 3.86271 -11.8882 1.5
      vertex 0 -12.5 -1.8
      vertex 3.86271 -11.8882 -1.8
    endloop
  endfacet
  facet normal 0.707107 -0.707107 0
    outer loop
      vertex 7.34731 -10.1127 1.5
      vertex 10.1127 -7.34731 -1.8
      vertex 10.1127 -7.34731 1.5
    endloop
  endfacet
  facet normal 0.707107 -0.707107 0
    outer loop
      vertex 10.1127 -7.34731 -1.8
      vertex 7.34731 -10.1127 1.5
      vertex 7.34731 -10.1127 -1.8
    endloop
  endfacet
  facet normal -0.45399 -0.891007 0
    outer loop
      vertex -7.34731 -10.1127 -1.8
      vertex -3.86271 -11.8882 1.5
      vertex -7.34731 -10.1127 1.5
    endloop
  endfacet
  facet normal -0.45399 -0.891007 -0
    outer loop
      vertex -3.86271 -11.8882 1.5
      vertex -7.34731 -10.1127 -1.8
      vertex -3.86271 -11.8882 -1.8
    endloop
  endfacet
  facet normal -0.891007 -0.45399 0
    outer loop
      vertex -10.1127 -7.34731 -1.8
      vertex -11.8882 -3.86271 1.5
      vertex -11.8882 -3.86271 -1.8
    endloop
  endfacet
  facet normal -0.891007 -0.45399 0
    outer loop
      vertex -11.8882 -3.86271 1.5
      vertex -10.1127 -7.34731 -1.8
      vertex -10.1127 -7.34731 1.5
    endloop
  endfacet
  facet normal 0.45399 -0.891007 0
    outer loop
      vertex 3.86271 -11.8882 -1.8
      vertex 7.34731 -10.1127 1.5
      vertex 3.86271 -11.8882 1.5
    endloop
  endfacet
  facet normal 0.45399 -0.891007 0
    outer loop
      vertex 7.34731 -10.1127 1.5
      vertex 3.86271 -11.8882 -1.8
      vertex 7.34731 -10.1127 -1.8
    endloop
  endfacet
  facet normal -1 0 0
    outer loop
      vertex -7.1 -8.6 1.5
      vertex -7.1 8.6 5.3
      vertex -7.1 8.6 1.5
    endloop
  endfacet
  facet normal -1 -0 0
    outer loop
      vertex -7.1 8.6 5.3
      vertex -7.1 -8.6 1.5
      vertex -7.1 -8.6 5.3
    endloop
  endfacet
  facet normal 0 0 1
    outer loop
      vertex 7.1 8.6 5.3
      vertex 6.75 0 5.3
      vertex 7.1 -8.6 5.3
    endloop
  endfacet
  facet normal 0 0 1
    outer loop
      vertex 7.1 8.6 5.3
      vertex 6.41963 2.08586 5.3
      vertex 6.75 0 5.3
    endloop
  endfacet
  facet normal 0 0 1
    outer loop
      vertex 7.1 8.6 5.3
      vertex 5.46086 3.96755 5.3
      vertex 6.41963 2.08586 5.3
    endloop
  endfacet
  facet normal 0 0 1
    outer loop
      vertex 7.1 8.6 5.3
      vertex 3.96755 5.46086 5.3
      vertex 5.46086 3.96755 5.3
    endloop
  endfacet
  facet normal 0 0 1
    outer loop
      vertex 7.1 8.6 5.3
      vertex 2.08586 6.41963 5.3
      vertex 3.96755 5.46086 5.3
    endloop
  endfacet
  facet normal 0 0 1
    outer loop
      vertex 7.1 8.6 5.3
      vertex 0 6.75 5.3
      vertex 2.08586 6.41963 5.3
    endloop
  endfacet
  facet normal -0 0 1
    outer loop
      vertex -7.1 8.6 5.3
      vertex 0 6.75 5.3
      vertex 7.1 8.6 5.3
    endloop
  endfacet
  facet normal 0 0 1
    outer loop
      vertex -6.41963 2.08586 5.3
      vertex -7.1 8.6 5.3
      vertex -6.75 0 5.3
    endloop
  endfacet
  facet normal 0 0 1
    outer loop
      vertex -5.46086 3.96755 5.3
      vertex -7.1 8.6 5.3
      vertex -6.41963 2.08586 5.3
    endloop
  endfacet
  facet normal 0 0 1
    outer loop
      vertex -3.96755 5.46086 5.3
      vertex -7.1 8.6 5.3
      vertex -5.46086 3.96755 5.3
    endloop
  endfacet
  facet normal 0 0 1
    outer loop
      vertex -2.08586 6.41963 5.3
      vertex -7.1 8.6 5.3
      vertex -3.96755 5.46086 5.3
    endloop
  endfacet
  facet normal 0 0 1
    outer loop
      vertex 0 6.75 5.3
      vertex -7.1 8.6 5.3
      vertex -2.08586 6.41963 5.3
    endloop
  endfacet
  facet normal -0 0 1
    outer loop
      vertex 6.41963 -2.08586 5.3
      vertex 7.1 -8.6 5.3
      vertex 6.75 0 5.3
    endloop
  endfacet
  facet normal -0 0 1
    outer loop
      vertex 5.46086 -3.96755 5.3
      vertex 7.1 -8.6 5.3
      vertex 6.41963 -2.08586 5.3
    endloop
  endfacet
  facet normal -0 0 1
    outer loop
      vertex 3.96755 -5.46086 5.3
      vertex 7.1 -8.6 5.3
      vertex 5.46086 -3.96755 5.3
    endloop
  endfacet
  facet normal -0 0 1
    outer loop
      vertex 2.08586 -6.41963 5.3
      vertex 7.1 -8.6 5.3
      vertex 3.96755 -5.46086 5.3
    endloop
  endfacet
  facet normal -0 0 1
    outer loop
      vertex 0 -6.75 5.3
      vertex 7.1 -8.6 5.3
      vertex 2.08586 -6.41963 5.3
    endloop
  endfacet
  facet normal 0 0 1
    outer loop
      vertex -7.1 -8.6 5.3
      vertex 0 -6.75 5.3
      vertex -2.08586 -6.41963 5.3
    endloop
  endfacet
  facet normal 0 0 1
    outer loop
      vertex 0 -6.75 5.3
      vertex -7.1 -8.6 5.3
      vertex 7.1 -8.6 5.3
    endloop
  endfacet
  facet normal 0 0 1
    outer loop
      vertex -3.96755 -5.46086 5.3
      vertex -7.1 -8.6 5.3
      vertex -2.08586 -6.41963 5.3
    endloop
  endfacet
  facet normal 0 0 1
    outer loop
      vertex -5.46086 -3.96755 5.3
      vertex -7.1 -8.6 5.3
      vertex -3.96755 -5.46086 5.3
    endloop
  endfacet
  facet normal 0 0 1
    outer loop
      vertex -6.41963 -2.08586 5.3
      vertex -7.1 -8.6 5.3
      vertex -5.46086 -3.96755 5.3
    endloop
  endfacet
  facet normal 0 0 1
    outer loop
      vertex -6.75 0 5.3
      vertex -7.1 -8.6 5.3
      vertex -6.41963 -2.08586 5.3
    endloop
  endfacet
  facet normal 0 0 1
    outer loop
      vertex -7.1 -8.6 5.3
      vertex -6.75 0 5.3
      vertex -7.1 8.6 5.3
    endloop
  endfacet
  facet normal 1 -0 0
    outer loop
      vertex 7.1 -8.6 5.3
      vertex 7.1 8.6 1.5
      vertex 7.1 8.6 5.3
    endloop
  endfacet
  facet normal 1 0 0
    outer loop
      vertex 7.1 8.6 1.5
      vertex 7.1 -8.6 5.3
      vertex 7.1 -8.6 1.5
    endloop
  endfacet
  facet normal 0 1 -0
    outer loop
      vertex 7.1 8.6 1.5
      vertex -7.1 8.6 5.3
      vertex 7.1 8.6 5.3
    endloop
  endfacet
  facet normal 0 1 0
    outer loop
      vertex -7.1 8.6 5.3
      vertex 7.1 8.6 1.5
      vertex -7.1 8.6 1.5
    endloop
  endfacet
  facet normal 0 -1 0
    outer loop
      vertex -7.1 -8.6 1.5
      vertex 7.1 -8.6 5.3
      vertex -7.1 -8.6 5.3
    endloop
  endfacet
  facet normal 0 -1 -0
    outer loop
      vertex 7.1 -8.6 5.3
      vertex -7.1 -8.6 1.5
      vertex 7.1 -8.6 1.5
    endloop
  endfacet
  facet normal 0.987688 0.156435 0
    outer loop
      vertex 6.75 0 9.4
      vertex 6.41963 2.08586 5.3
      vertex 6.41963 2.08586 9.4
    endloop
  endfacet
  facet normal 0.987688 0.156435 0
    outer loop
      vertex 6.41963 2.08586 5.3
      vertex 6.75 0 9.4
      vertex 6.75 0 5.3
    endloop
  endfacet
  facet normal -0.987688 0.156435 0
    outer loop
      vertex -6.75 0 5.3
      vertex -6.41963 2.08586 9.4
      vertex -6.41963 2.08586 5.3
    endloop
  endfacet
  facet normal -0.987688 0.156435 0
    outer loop
      vertex -6.41963 2.08586 9.4
      vertex -6.75 0 5.3
      vertex -6.75 0 9.4
    endloop
  endfacet
  facet normal 0.156435 0.987688 -0
    outer loop
      vertex 2.08586 6.41963 5.3
      vertex 0 6.75 9.4
      vertex 2.08586 6.41963 9.4
    endloop
  endfacet
  facet normal 0.156435 0.987688 0
    outer loop
      vertex 0 6.75 9.4
      vertex 2.08586 6.41963 5.3
      vertex 0 6.75 5.3
    endloop
  endfacet
  facet normal -0.156435 -0.987688 0
    outer loop
      vertex -2.08586 -6.41963 5.3
      vertex 0 -6.75 9.4
      vertex -2.08586 -6.41963 9.4
    endloop
  endfacet
  facet normal -0.156435 -0.987688 -0
    outer loop
      vertex 0 -6.75 9.4
      vertex -2.08586 -6.41963 5.3
      vertex 0 -6.75 5.3
    endloop
  endfacet
  facet normal 0.707107 0.707107 0
    outer loop
      vertex 5.46086 3.96755 9.4
      vertex 3.96755 5.46086 5.3
      vertex 3.96755 5.46086 9.4
    endloop
  endfacet
  facet normal 0.707107 0.707107 0
    outer loop
      vertex 3.96755 5.46086 5.3
      vertex 5.46086 3.96755 9.4
      vertex 5.46086 3.96755 5.3
    endloop
  endfacet
  facet normal 0.891007 0.45399 0
    outer loop
      vertex 6.41963 2.08586 9.4
      vertex 5.46086 3.96755 5.3
      vertex 5.46086 3.96755 9.4
    endloop
  endfacet
  facet normal 0.891007 0.45399 0
    outer loop
      vertex 5.46086 3.96755 5.3
      vertex 6.41963 2.08586 9.4
      vertex 6.41963 2.08586 5.3
    endloop
  endfacet
  facet normal 0.45399 0.891007 -0
    outer loop
      vertex 3.96755 5.46086 5.3
      vertex 2.08586 6.41963 9.4
      vertex 3.96755 5.46086 9.4
    endloop
  endfacet
  facet normal 0.45399 0.891007 0
    outer loop
      vertex 2.08586 6.41963 9.4
      vertex 3.96755 5.46086 5.3
      vertex 2.08586 6.41963 5.3
    endloop
  endfacet
  facet normal -0.45399 0.891007 0
    outer loop
      vertex -2.08586 6.41963 5.3
      vertex -3.96755 5.46086 9.4
      vertex -2.08586 6.41963 9.4
    endloop
  endfacet
  facet normal -0.45399 0.891007 0
    outer loop
      vertex -3.96755 5.46086 9.4
      vertex -2.08586 6.41963 5.3
      vertex -3.96755 5.46086 5.3
    endloop
  endfacet
  facet normal -0.707107 0.707107 0
    outer loop
      vertex -5.46086 3.96755 5.3
      vertex -3.96755 5.46086 9.4
      vertex -3.96755 5.46086 5.3
    endloop
  endfacet
  facet normal -0.707107 0.707107 0
    outer loop
      vertex -3.96755 5.46086 9.4
      vertex -5.46086 3.96755 5.3
      vertex -5.46086 3.96755 9.4
    endloop
  endfacet
  facet normal -0.156435 0.987688 0
    outer loop
      vertex 0 6.75 5.3
      vertex -2.08586 6.41963 9.4
      vertex 0 6.75 9.4
    endloop
  endfacet
  facet normal -0.156435 0.987688 0
    outer loop
      vertex -2.08586 6.41963 9.4
      vertex 0 6.75 5.3
      vertex -2.08586 6.41963 5.3
    endloop
  endfacet
  facet normal 0.891007 -0.45399 0
    outer loop
      vertex 5.46086 -3.96755 9.4
      vertex 6.41963 -2.08586 5.3
      vertex 6.41963 -2.08586 9.4
    endloop
  endfacet
  facet normal 0.891007 -0.45399 0
    outer loop
      vertex 6.41963 -2.08586 5.3
      vertex 5.46086 -3.96755 9.4
      vertex 5.46086 -3.96755 5.3
    endloop
  endfacet
  facet normal -0.707107 -0.707107 0
    outer loop
      vertex -3.96755 -5.46086 5.3
      vertex -5.46086 -3.96755 9.4
      vertex -5.46086 -3.96755 5.3
    endloop
  endfacet
  facet normal -0.707107 -0.707107 0
    outer loop
      vertex -5.46086 -3.96755 9.4
      vertex -3.96755 -5.46086 5.3
      vertex -3.96755 -5.46086 9.4
    endloop
  endfacet
  facet normal -0.987688 -0.156435 0
    outer loop
      vertex -6.41963 -2.08586 5.3
      vertex -6.75 0 9.4
      vertex -6.75 0 5.3
    endloop
  endfacet
  facet normal -0.987688 -0.156435 0
    outer loop
      vertex -6.75 0 9.4
      vertex -6.41963 -2.08586 5.3
      vertex -6.41963 -2.08586 9.4
    endloop
  endfacet
  facet normal -0.891007 0.45399 0
    outer loop
      vertex -6.41963 2.08586 5.3
      vertex -5.46086 3.96755 9.4
      vertex -5.46086 3.96755 5.3
    endloop
  endfacet
  facet normal -0.891007 0.45399 0
    outer loop
      vertex -5.46086 3.96755 9.4
      vertex -6.41963 2.08586 5.3
      vertex -6.41963 2.08586 9.4
    endloop
  endfacet
  facet normal 0 0 1
    outer loop
      vertex 4.25 0 9.4
      vertex 6.75 0 9.4
      vertex 6.41963 2.08586 9.4
    endloop
  endfacet
  facet normal 0 0 1
    outer loop
      vertex 4.04199 1.31332 9.4
      vertex 6.41963 2.08586 9.4
      vertex 5.46086 3.96755 9.4
    endloop
  endfacet
  facet normal 0 0 1
    outer loop
      vertex 6.75 0 9.4
      vertex 4.25 0 9.4
      vertex 6.41963 -2.08586 9.4
    endloop
  endfacet
  facet normal -0 0 1
    outer loop
      vertex 4.04199 -1.31332 9.4
      vertex 6.41963 -2.08586 9.4
      vertex 4.25 0 9.4
    endloop
  endfacet
  facet normal 0 0 1
    outer loop
      vertex 6.41963 2.08586 9.4
      vertex 4.04199 1.31332 9.4
      vertex 4.25 0 9.4
    endloop
  endfacet
  facet normal 0 0 1
    outer loop
      vertex 3.43832 2.49809 9.4
      vertex 5.46086 3.96755 9.4
      vertex 3.96755 5.46086 9.4
    endloop
  endfacet
  facet normal 0 0 1
    outer loop
      vertex 5.46086 3.96755 9.4
      vertex 3.43832 2.49809 9.4
      vertex 4.04199 1.31332 9.4
    endloop
  endfacet
  facet normal 0 0 1
    outer loop
      vertex 3.96755 5.46086 9.4
      vertex 2.49809 3.43832 9.4
      vertex 3.43832 2.49809 9.4
    endloop
  endfacet
  facet normal 0 0 1
    outer loop
      vertex 2.08586 6.41963 9.4
      vertex 2.49809 3.43832 9.4
      vertex 3.96755 5.46086 9.4
    endloop
  endfacet
  facet normal 0 0 1
    outer loop
      vertex 2.08586 6.41963 9.4
      vertex 1.31332 4.04199 9.4
      vertex 2.49809 3.43832 9.4
    endloop
  endfacet
  facet normal 0 0 1
    outer loop
      vertex 0 6.75 9.4
      vertex 1.31332 4.04199 9.4
      vertex 2.08586 6.41963 9.4
    endloop
  endfacet
  facet normal 0 0 1
    outer loop
      vertex 0 6.75 9.4
      vertex 0 4.25 9.4
      vertex 1.31332 4.04199 9.4
    endloop
  endfacet
  facet normal 0 0 1
    outer loop
      vertex 0 6.75 9.4
      vertex -1.31332 4.04199 9.4
      vertex 0 4.25 9.4
    endloop
  endfacet
  facet normal -0 0 1
    outer loop
      vertex -2.08586 6.41963 9.4
      vertex -1.31332 4.04199 9.4
      vertex 0 6.75 9.4
    endloop
  endfacet
  facet normal 0 0 1
    outer loop
      vertex -2.08586 6.41963 9.4
      vertex -2.49809 3.43832 9.4
      vertex -1.31332 4.04199 9.4
    endloop
  endfacet
  facet normal -0 0 1
    outer loop
      vertex -3.96755 5.46086 9.4
      vertex -2.49809 3.43832 9.4
      vertex -2.08586 6.41963 9.4
    endloop
  endfacet
  facet normal 0 0 1
    outer loop
      vertex -2.49809 3.43832 9.4
      vertex -3.96755 5.46086 9.4
      vertex -3.43832 2.49809 9.4
    endloop
  endfacet
  facet normal -0 0 1
    outer loop
      vertex -5.46086 3.96755 9.4
      vertex -3.43832 2.49809 9.4
      vertex -3.96755 5.46086 9.4
    endloop
  endfacet
  facet normal 0 0 1
    outer loop
      vertex -3.43832 2.49809 9.4
      vertex -5.46086 3.96755 9.4
      vertex -4.04199 1.31332 9.4
    endloop
  endfacet
  facet normal -0 0 1
    outer loop
      vertex -6.41963 2.08586 9.4
      vertex -4.04199 1.31332 9.4
      vertex -5.46086 3.96755 9.4
    endloop
  endfacet
  facet normal 0 0 1
    outer loop
      vertex 6.41963 -2.08586 9.4
      vertex 4.04199 -1.31332 9.4
      vertex 5.46086 -3.96755 9.4
    endloop
  endfacet
  facet normal -0 0 1
    outer loop
      vertex 3.43832 -2.49809 9.4
      vertex 5.46086 -3.96755 9.4
      vertex 4.04199 -1.31332 9.4
    endloop
  endfacet
  facet normal 0 0 1
    outer loop
      vertex 5.46086 -3.96755 9.4
      vertex 3.43832 -2.49809 9.4
      vertex 3.96755 -5.46086 9.4
    endloop
  endfacet
  facet normal -0 0 1
    outer loop
      vertex 2.49809 -3.43832 9.4
      vertex 3.96755 -5.46086 9.4
      vertex 3.43832 -2.49809 9.4
    endloop
  endfacet
  facet normal 0 0 1
    outer loop
      vertex 2.49809 -3.43832 9.4
      vertex 2.08586 -6.41963 9.4
      vertex 3.96755 -5.46086 9.4
    endloop
  endfacet
  facet normal -0 0 1
    outer loop
      vertex 1.31332 -4.04199 9.4
      vertex 2.08586 -6.41963 9.4
      vertex 2.49809 -3.43832 9.4
    endloop
  endfacet
  facet normal -0 0 1
    outer loop
      vertex 0 -4.25 9.4
      vertex 2.08586 -6.41963 9.4
      vertex 1.31332 -4.04199 9.4
    endloop
  endfacet
  facet normal 0 0 1
    outer loop
      vertex 0 -4.25 9.4
      vertex 0 -6.75 9.4
      vertex 2.08586 -6.41963 9.4
    endloop
  endfacet
  facet normal 0 0 1
    outer loop
      vertex -1.31332 -4.04199 9.4
      vertex 0 -6.75 9.4
      vertex 0 -4.25 9.4
    endloop
  endfacet
  facet normal 0 0 1
    outer loop
      vertex -1.31332 -4.04199 9.4
      vertex -2.08586 -6.41963 9.4
      vertex 0 -6.75 9.4
    endloop
  endfacet
  facet normal 0 0 1
    outer loop
      vertex -2.49809 -3.43832 9.4
      vertex -2.08586 -6.41963 9.4
      vertex -1.31332 -4.04199 9.4
    endloop
  endfacet
  facet normal 0 0 1
    outer loop
      vertex -3.96755 -5.46086 9.4
      vertex -2.49809 -3.43832 9.4
      vertex -3.43832 -2.49809 9.4
    endloop
  endfacet
  facet normal 0 0 1
    outer loop
      vertex -2.49809 -3.43832 9.4
      vertex -3.96755 -5.46086 9.4
      vertex -2.08586 -6.41963 9.4
    endloop
  endfacet
  facet normal 0 0 1
    outer loop
      vertex -5.46086 -3.96755 9.4
      vertex -3.43832 -2.49809 9.4
      vertex -4.04199 -1.31332 9.4
    endloop
  endfacet
  facet normal 0 0 1
    outer loop
      vertex -6.41963 -2.08586 9.4
      vertex -4.04199 -1.31332 9.4
      vertex -4.25 0 9.4
    endloop
  endfacet
  facet normal 0 0 1
    outer loop
      vertex -4.04199 1.31332 9.4
      vertex -6.41963 2.08586 9.4
      vertex -4.25 0 9.4
    endloop
  endfacet
  facet normal 0 0 1
    outer loop
      vertex -3.43832 -2.49809 9.4
      vertex -5.46086 -3.96755 9.4
      vertex -3.96755 -5.46086 9.4
    endloop
  endfacet
  facet normal 0 0 1
    outer loop
      vertex -6.75 0 9.4
      vertex -4.25 0 9.4
      vertex -6.41963 2.08586 9.4
    endloop
  endfacet
  facet normal 0 0 1
    outer loop
      vertex -4.04199 -1.31332 9.4
      vertex -6.41963 -2.08586 9.4
      vertex -5.46086 -3.96755 9.4
    endloop
  endfacet
  facet normal 0 0 1
    outer loop
      vertex -4.25 0 9.4
      vertex -6.75 0 9.4
      vertex -6.41963 -2.08586 9.4
    endloop
  endfacet
  facet normal 0.987688 -0.156435 0
    outer loop
      vertex 6.41963 -2.08586 9.4
      vertex 6.75 0 5.3
      vertex 6.75 0 9.4
    endloop
  endfacet
  facet normal 0.987688 -0.156435 0
    outer loop
      vertex 6.75 0 5.3
      vertex 6.41963 -2.08586 9.4
      vertex 6.41963 -2.08586 5.3
    endloop
  endfacet
  facet normal 0.156435 -0.987688 0
    outer loop
      vertex 0 -6.75 5.3
      vertex 2.08586 -6.41963 9.4
      vertex 0 -6.75 9.4
    endloop
  endfacet
  facet normal 0.156435 -0.987688 0
    outer loop
      vertex 2.08586 -6.41963 9.4
      vertex 0 -6.75 5.3
      vertex 2.08586 -6.41963 5.3
    endloop
  endfacet
  facet normal 0.707107 -0.707107 0
    outer loop
      vertex 3.96755 -5.46086 9.4
      vertex 5.46086 -3.96755 5.3
      vertex 5.46086 -3.96755 9.4
    endloop
  endfacet
  facet normal 0.707107 -0.707107 0
    outer loop
      vertex 5.46086 -3.96755 5.3
      vertex 3.96755 -5.46086 9.4
      vertex 3.96755 -5.46086 5.3
    endloop
  endfacet
  facet normal -0.45399 -0.891007 0
    outer loop
      vertex -3.96755 -5.46086 5.3
      vertex -2.08586 -6.41963 9.4
      vertex -3.96755 -5.46086 9.4
    endloop
  endfacet
  facet normal -0.45399 -0.891007 -0
    outer loop
      vertex -2.08586 -6.41963 9.4
      vertex -3.96755 -5.46086 5.3
      vertex -2.08586 -6.41963 5.3
    endloop
  endfacet
  facet normal -0.891007 -0.45399 0
    outer loop
      vertex -5.46086 -3.96755 5.3
      vertex -6.41963 -2.08586 9.4
      vertex -6.41963 -2.08586 5.3
    endloop
  endfacet
  facet normal -0.891007 -0.45399 0
    outer loop
      vertex -6.41963 -2.08586 9.4
      vertex -5.46086 -3.96755 5.3
      vertex -5.46086 -3.96755 9.4
    endloop
  endfacet
  facet normal 0.45399 -0.891007 0
    outer loop
      vertex 2.08586 -6.41963 5.3
      vertex 3.96755 -5.46086 9.4
      vertex 2.08586 -6.41963 9.4
    endloop
  endfacet
  facet normal 0.45399 -0.891007 0
    outer loop
      vertex 3.96755 -5.46086 9.4
      vertex 2.08586 -6.41963 5.3
      vertex 3.96755 -5.46086 5.3
    endloop
  endfacet
  facet normal -0.987688 -0.156435 0
    outer loop
      vertex 11.25 0 -1.8
      vertex 11.1643 0.540779 1.5
      vertex 11.1643 0.540779 -1.8
    endloop
  endfacet
  facet normal -0.987688 -0.156435 0
    outer loop
      vertex 11.1643 0.540779 1.5
      vertex 11.25 0 -1.8
      vertex 11.25 0 1.5
    endloop
  endfacet
  facet normal 0.707107 0.707107 0
    outer loop
      vertex 8.47138 -1.41578 1.5
      vertex 8.08422 -1.02862 -1.8
      vertex 8.08422 -1.02862 1.5
    endloop
  endfacet
  facet normal 0.707107 0.707107 0
    outer loop
      vertex 8.08422 -1.02862 -1.8
      vertex 8.47138 -1.41578 1.5
      vertex 8.47138 -1.41578 -1.8
    endloop
  endfacet
  facet normal 0.156435 -0.987688 0
    outer loop
      vertex 8.95922 1.66435 -1.8
      vertex 9.5 1.75 1.5
      vertex 8.95922 1.66435 1.5
    endloop
  endfacet
  facet normal 0.156435 -0.987688 0
    outer loop
      vertex 9.5 1.75 1.5
      vertex 8.95922 1.66435 -1.8
      vertex 9.5 1.75 -1.8
    endloop
  endfacet
  facet normal 0.987688 0.156433 0
    outer loop
      vertex 7.83565 -0.540779 1.5
      vertex 7.75 0 -1.8
      vertex 7.75 0 1.5
    endloop
  endfacet
  facet normal 0.987688 0.156433 0
    outer loop
      vertex 7.75 0 -1.8
      vertex 7.83565 -0.540779 1.5
      vertex 7.83565 -0.540779 -1.8
    endloop
  endfacet
  facet normal -0.707107 -0.707107 0
    outer loop
      vertex 10.9158 1.02862 -1.8
      vertex 10.5286 1.41578 1.5
      vertex 10.5286 1.41578 -1.8
    endloop
  endfacet
  facet normal -0.707107 -0.707107 0
    outer loop
      vertex 10.5286 1.41578 1.5
      vertex 10.9158 1.02862 -1.8
      vertex 10.9158 1.02862 1.5
    endloop
  endfacet
  facet normal -0.891006 -0.453991 0
    outer loop
      vertex 11.1643 0.540779 -1.8
      vertex 10.9158 1.02862 1.5
      vertex 10.9158 1.02862 -1.8
    endloop
  endfacet
  facet normal -0.891006 -0.453991 0
    outer loop
      vertex 10.9158 1.02862 1.5
      vertex 11.1643 0.540779 -1.8
      vertex 11.1643 0.540779 1.5
    endloop
  endfacet
  facet normal -0.156435 -0.987688 0
    outer loop
      vertex 9.5 1.75 -1.8
      vertex 10.0408 1.66435 1.5
      vertex 9.5 1.75 1.5
    endloop
  endfacet
  facet normal -0.156435 -0.987688 -0
    outer loop
      vertex 10.0408 1.66435 1.5
      vertex 9.5 1.75 -1.8
      vertex 10.0408 1.66435 -1.8
    endloop
  endfacet
  facet normal 0.453991 -0.891006 0
    outer loop
      vertex 8.47138 1.41578 -1.8
      vertex 8.95922 1.66435 1.5
      vertex 8.47138 1.41578 1.5
    endloop
  endfacet
  facet normal 0.453991 -0.891006 0
    outer loop
      vertex 8.95922 1.66435 1.5
      vertex 8.47138 1.41578 -1.8
      vertex 8.95922 1.66435 -1.8
    endloop
  endfacet
  facet normal 0.987688 -0.156433 0
    outer loop
      vertex 7.75 0 1.5
      vertex 7.83565 0.540779 -1.8
      vertex 7.83565 0.540779 1.5
    endloop
  endfacet
  facet normal 0.987688 -0.156433 0
    outer loop
      vertex 7.83565 0.540779 -1.8
      vertex 7.75 0 1.5
      vertex 7.75 0 -1.8
    endloop
  endfacet
  facet normal -0.453991 -0.891006 0
    outer loop
      vertex 10.0408 1.66435 -1.8
      vertex 10.5286 1.41578 1.5
      vertex 10.0408 1.66435 1.5
    endloop
  endfacet
  facet normal -0.453991 -0.891006 -0
    outer loop
      vertex 10.5286 1.41578 1.5
      vertex 10.0408 1.66435 -1.8
      vertex 10.5286 1.41578 -1.8
    endloop
  endfacet
  facet normal 0.707107 -0.707107 0
    outer loop
      vertex 8.08422 1.02862 1.5
      vertex 8.47138 1.41578 -1.8
      vertex 8.47138 1.41578 1.5
    endloop
  endfacet
  facet normal 0.707107 -0.707107 0
    outer loop
      vertex 8.47138 1.41578 -1.8
      vertex 8.08422 1.02862 1.5
      vertex 8.08422 1.02862 -1.8
    endloop
  endfacet
  facet normal 0.891006 -0.453991 0
    outer loop
      vertex 7.83565 0.540779 1.5
      vertex 8.08422 1.02862 -1.8
      vertex 8.08422 1.02862 1.5
    endloop
  endfacet
  facet normal 0.891006 -0.453991 0
    outer loop
      vertex 8.08422 1.02862 -1.8
      vertex 7.83565 0.540779 1.5
      vertex 7.83565 0.540779 -1.8
    endloop
  endfacet
  facet normal -0.891006 0.453991 0
    outer loop
      vertex 10.9158 -1.02862 -1.8
      vertex 11.1643 -0.540779 1.5
      vertex 11.1643 -0.540779 -1.8
    endloop
  endfacet
  facet normal -0.891006 0.453991 0
    outer loop
      vertex 11.1643 -0.540779 1.5
      vertex 10.9158 -1.02862 -1.8
      vertex 10.9158 -1.02862 1.5
    endloop
  endfacet
  facet normal -0.987688 0.156435 0
    outer loop
      vertex 11.1643 -0.540779 -1.8
      vertex 11.25 0 1.5
      vertex 11.25 0 -1.8
    endloop
  endfacet
  facet normal -0.987688 0.156435 0
    outer loop
      vertex 11.25 0 1.5
      vertex 11.1643 -0.540779 -1.8
      vertex 11.1643 -0.540779 1.5
    endloop
  endfacet
  facet normal 0.891006 0.453991 0
    outer loop
      vertex 8.08422 -1.02862 1.5
      vertex 7.83565 -0.540779 -1.8
      vertex 7.83565 -0.540779 1.5
    endloop
  endfacet
  facet normal 0.891006 0.453991 0
    outer loop
      vertex 7.83565 -0.540779 -1.8
      vertex 8.08422 -1.02862 1.5
      vertex 8.08422 -1.02862 -1.8
    endloop
  endfacet
  facet normal -0.453991 0.891006 0
    outer loop
      vertex 10.5286 -1.41578 -1.8
      vertex 10.0408 -1.66435 1.5
      vertex 10.5286 -1.41578 1.5
    endloop
  endfacet
  facet normal -0.453991 0.891006 0
    outer loop
      vertex 10.0408 -1.66435 1.5
      vertex 10.5286 -1.41578 -1.8
      vertex 10.0408 -1.66435 -1.8
    endloop
  endfacet
  facet normal -0.707107 0.707107 0
    outer loop
      vertex 10.5286 -1.41578 -1.8
      vertex 10.9158 -1.02862 1.5
      vertex 10.9158 -1.02862 -1.8
    endloop
  endfacet
  facet normal -0.707107 0.707107 0
    outer loop
      vertex 10.9158 -1.02862 1.5
      vertex 10.5286 -1.41578 -1.8
      vertex 10.5286 -1.41578 1.5
    endloop
  endfacet
  facet normal -0.156435 0.987688 0
    outer loop
      vertex 10.0408 -1.66435 -1.8
      vertex 9.5 -1.75 1.5
      vertex 10.0408 -1.66435 1.5
    endloop
  endfacet
  facet normal -0.156435 0.987688 0
    outer loop
      vertex 9.5 -1.75 1.5
      vertex 10.0408 -1.66435 -1.8
      vertex 9.5 -1.75 -1.8
    endloop
  endfacet
  facet normal 0.156435 0.987688 -0
    outer loop
      vertex 9.5 -1.75 -1.8
      vertex 8.95922 -1.66435 1.5
      vertex 9.5 -1.75 1.5
    endloop
  endfacet
  facet normal 0.156435 0.987688 0
    outer loop
      vertex 8.95922 -1.66435 1.5
      vertex 9.5 -1.75 -1.8
      vertex 8.95922 -1.66435 -1.8
    endloop
  endfacet
  facet normal 0.453991 0.891006 -0
    outer loop
      vertex 8.95922 -1.66435 -1.8
      vertex 8.47138 -1.41578 1.5
      vertex 8.95922 -1.66435 1.5
    endloop
  endfacet
  facet normal 0.453991 0.891006 0
    outer loop
      vertex 8.47138 -1.41578 1.5
      vertex 8.95922 -1.66435 -1.8
      vertex 8.47138 -1.41578 -1.8
    endloop
  endfacet
  facet normal -0.987688 -0.156433 0
    outer loop
      vertex -7.75 0 -1.8
      vertex -7.83565 0.540779 1.5
      vertex -7.83565 0.540779 -1.8
    endloop
  endfacet
  facet normal -0.987688 -0.156433 0
    outer loop
      vertex -7.83565 0.540779 1.5
      vertex -7.75 0 -1.8
      vertex -7.75 0 1.5
    endloop
  endfacet
  facet normal 0.987688 -0.156435 0
    outer loop
      vertex -11.25 0 1.5
      vertex -11.1643 0.540779 -1.8
      vertex -11.1643 0.540779 1.5
    endloop
  endfacet
  facet normal 0.987688 -0.156435 0
    outer loop
      vertex -11.1643 0.540779 -1.8
      vertex -11.25 0 1.5
      vertex -11.25 0 -1.8
    endloop
  endfacet
  facet normal -0.156435 -0.987688 0
    outer loop
      vertex -9.5 1.75 -1.8
      vertex -8.95922 1.66435 1.5
      vertex -9.5 1.75 1.5
    endloop
  endfacet
  facet normal -0.156435 -0.987688 -0
    outer loop
      vertex -8.95922 1.66435 1.5
      vertex -9.5 1.75 -1.8
      vertex -8.95922 1.66435 -1.8
    endloop
  endfacet
  facet normal 0.156435 0.987688 -0
    outer loop
      vertex -9.5 -1.75 -1.8
      vertex -10.0408 -1.66435 1.5
      vertex -9.5 -1.75 1.5
    endloop
  endfacet
  facet normal 0.156435 0.987688 0
    outer loop
      vertex -10.0408 -1.66435 1.5
      vertex -9.5 -1.75 -1.8
      vertex -10.0408 -1.66435 -1.8
    endloop
  endfacet
  facet normal -0.707107 -0.707107 0
    outer loop
      vertex -8.08422 1.02862 -1.8
      vertex -8.47138 1.41578 1.5
      vertex -8.47138 1.41578 -1.8
    endloop
  endfacet
  facet normal -0.707107 -0.707107 0
    outer loop
      vertex -8.47138 1.41578 1.5
      vertex -8.08422 1.02862 -1.8
      vertex -8.08422 1.02862 1.5
    endloop
  endfacet
  facet normal -0.891006 -0.453991 0
    outer loop
      vertex -7.83565 0.540779 -1.8
      vertex -8.08422 1.02862 1.5
      vertex -8.08422 1.02862 -1.8
    endloop
  endfacet
  facet normal -0.891006 -0.453991 0
    outer loop
      vertex -8.08422 1.02862 1.5
      vertex -7.83565 0.540779 -1.8
      vertex -7.83565 0.540779 1.5
    endloop
  endfacet
  facet normal -0.453991 -0.891006 0
    outer loop
      vertex -8.95922 1.66435 -1.8
      vertex -8.47138 1.41578 1.5
      vertex -8.95922 1.66435 1.5
    endloop
  endfacet
  facet normal -0.453991 -0.891006 -0
    outer loop
      vertex -8.47138 1.41578 1.5
      vertex -8.95922 1.66435 -1.8
      vertex -8.47138 1.41578 -1.8
    endloop
  endfacet
  facet normal 0.453991 -0.891006 0
    outer loop
      vertex -10.5286 1.41578 -1.8
      vertex -10.0408 1.66435 1.5
      vertex -10.5286 1.41578 1.5
    endloop
  endfacet
  facet normal 0.453991 -0.891006 0
    outer loop
      vertex -10.0408 1.66435 1.5
      vertex -10.5286 1.41578 -1.8
      vertex -10.0408 1.66435 -1.8
    endloop
  endfacet
  facet normal 0.707107 -0.707107 0
    outer loop
      vertex -10.9158 1.02862 1.5
      vertex -10.5286 1.41578 -1.8
      vertex -10.5286 1.41578 1.5
    endloop
  endfacet
  facet normal 0.707107 -0.707107 0
    outer loop
      vertex -10.5286 1.41578 -1.8
      vertex -10.9158 1.02862 1.5
      vertex -10.9158 1.02862 -1.8
    endloop
  endfacet
  facet normal 0.156435 -0.987688 0
    outer loop
      vertex -10.0408 1.66435 -1.8
      vertex -9.5 1.75 1.5
      vertex -10.0408 1.66435 1.5
    endloop
  endfacet
  facet normal 0.156435 -0.987688 0
    outer loop
      vertex -9.5 1.75 1.5
      vertex -10.0408 1.66435 -1.8
      vertex -9.5 1.75 -1.8
    endloop
  endfacet
  facet normal -0.156435 0.987688 0
    outer loop
      vertex -8.95922 -1.66435 -1.8
      vertex -9.5 -1.75 1.5
      vertex -8.95922 -1.66435 1.5
    endloop
  endfacet
  facet normal -0.156435 0.987688 0
    outer loop
      vertex -9.5 -1.75 1.5
      vertex -8.95922 -1.66435 -1.8
      vertex -9.5 -1.75 -1.8
    endloop
  endfacet
  facet normal -0.891006 0.453991 0
    outer loop
      vertex -8.08422 -1.02862 -1.8
      vertex -7.83565 -0.540779 1.5
      vertex -7.83565 -0.540779 -1.8
    endloop
  endfacet
  facet normal -0.891006 0.453991 0
    outer loop
      vertex -7.83565 -0.540779 1.5
      vertex -8.08422 -1.02862 -1.8
      vertex -8.08422 -1.02862 1.5
    endloop
  endfacet
  facet normal 0.707107 0.707107 0
    outer loop
      vertex -10.5286 -1.41578 1.5
      vertex -10.9158 -1.02862 -1.8
      vertex -10.9158 -1.02862 1.5
    endloop
  endfacet
  facet normal 0.707107 0.707107 0
    outer loop
      vertex -10.9158 -1.02862 -1.8
      vertex -10.5286 -1.41578 1.5
      vertex -10.5286 -1.41578 -1.8
    endloop
  endfacet
  facet normal 0.987688 0.156435 0
    outer loop
      vertex -11.1643 -0.540779 1.5
      vertex -11.25 0 -1.8
      vertex -11.25 0 1.5
    endloop
  endfacet
  facet normal 0.987688 0.156435 0
    outer loop
      vertex -11.25 0 -1.8
      vertex -11.1643 -0.540779 1.5
      vertex -11.1643 -0.540779 -1.8
    endloop
  endfacet
  facet normal 0.891006 -0.453991 0
    outer loop
      vertex -11.1643 0.540779 1.5
      vertex -10.9158 1.02862 -1.8
      vertex -10.9158 1.02862 1.5
    endloop
  endfacet
  facet normal 0.891006 -0.453991 0
    outer loop
      vertex -10.9158 1.02862 -1.8
      vertex -11.1643 0.540779 1.5
      vertex -11.1643 0.540779 -1.8
    endloop
  endfacet
  facet normal -0.453991 0.891006 0
    outer loop
      vertex -8.47138 -1.41578 -1.8
      vertex -8.95922 -1.66435 1.5
      vertex -8.47138 -1.41578 1.5
    endloop
  endfacet
  facet normal -0.453991 0.891006 0
    outer loop
      vertex -8.95922 -1.66435 1.5
      vertex -8.47138 -1.41578 -1.8
      vertex -8.95922 -1.66435 -1.8
    endloop
  endfacet
  facet normal -0.987688 0.156433 0
    outer loop
      vertex -7.83565 -0.540779 -1.8
      vertex -7.75 0 1.5
      vertex -7.75 0 -1.8
    endloop
  endfacet
  facet normal -0.987688 0.156433 0
    outer loop
      vertex -7.75 0 1.5
      vertex -7.83565 -0.540779 -1.8
      vertex -7.83565 -0.540779 1.5
    endloop
  endfacet
  facet normal 0.453991 0.891006 -0
    outer loop
      vertex -10.0408 -1.66435 -1.8
      vertex -10.5286 -1.41578 1.5
      vertex -10.0408 -1.66435 1.5
    endloop
  endfacet
  facet normal 0.453991 0.891006 0
    outer loop
      vertex -10.5286 -1.41578 1.5
      vertex -10.0408 -1.66435 -1.8
      vertex -10.5286 -1.41578 -1.8
    endloop
  endfacet
  facet normal 0.891006 0.453991 0
    outer loop
      vertex -10.9158 -1.02862 1.5
      vertex -11.1643 -0.540779 -1.8
      vertex -11.1643 -0.540779 1.5
    endloop
  endfacet
  facet normal 0.891006 0.453991 0
    outer loop
      vertex -11.1643 -0.540779 -1.8
      vertex -10.9158 -1.02862 1.5
      vertex -10.9158 -1.02862 -1.8
    endloop
  endfacet
  facet normal -0.707107 0.707107 0
    outer loop
      vertex -8.47138 -1.41578 -1.8
      vertex -8.08422 -1.02862 1.5
      vertex -8.08422 -1.02862 -1.8
    endloop
  endfacet
  facet normal -0.707107 0.707107 0
    outer loop
      vertex -8.08422 -1.02862 1.5
      vertex -8.47138 -1.41578 -1.8
      vertex -8.47138 -1.41578 1.5
    endloop
  endfacet
  facet normal 0.5 -0.866025 0
    outer loop
      vertex -6.58179 3.8 -1.8
      vertex -4.82181 4.81613 3.5
      vertex -6.58179 3.8 3.5
    endloop
  endfacet
  facet normal 0.5 -0.866025 -1.56861e-08
    outer loop
      vertex 0 7.6 -1.8
      vertex -4.82181 4.81613 3.5
      vertex -6.58179 3.8 -1.8
    endloop
  endfacet
  facet normal 0.5 -0.866025 2.04455e-08
    outer loop
      vertex -4.82181 4.81613 3.5
      vertex 0 7.6 -1.8
      vertex -1.67078 6.63537 3.5
    endloop
  endfacet
  facet normal 0.5 -0.866025 0
    outer loop
      vertex -1.67078 6.63537 3.5
      vertex 0 7.6 -1.8
      vertex 0 7.6 3.5
    endloop
  endfacet
  facet normal 1 -0 0
    outer loop
      vertex -6.58179 2.00908 3.5
      vertex -6.58179 3.8 -1.8
      vertex -6.58179 3.8 3.5
    endloop
  endfacet
  facet normal 1 -0 0
    outer loop
      vertex -6.58179 -2.00908 3.5
      vertex -6.58179 3.8 -1.8
      vertex -6.58179 2.00908 3.5
    endloop
  endfacet
  facet normal 1 0 0
    outer loop
      vertex -6.58179 -3.8 -1.8
      vertex -6.58179 -2.00908 3.5
      vertex -6.58179 -3.8 3.5
    endloop
  endfacet
  facet normal 1 0 0
    outer loop
      vertex -6.58179 -2.00908 3.5
      vertex -6.58179 -3.8 -1.8
      vertex -6.58179 3.8 -1.8
    endloop
  endfacet
  facet normal 0.5 0.866025 -0
    outer loop
      vertex 0 -7.6 -1.8
      vertex -1.67078 -6.63537 3.5
      vertex 0 -7.6 3.5
    endloop
  endfacet
  facet normal 0.5 0.866025 2.04455e-08
    outer loop
      vertex -1.67078 -6.63537 3.5
      vertex 0 -7.6 -1.8
      vertex -4.82181 -4.81613 3.5
    endloop
  endfacet
  facet normal 0.5 0.866025 -1.56861e-08
    outer loop
      vertex -6.58179 -3.8 -1.8
      vertex -4.82181 -4.81613 3.5
      vertex 0 -7.6 -1.8
    endloop
  endfacet
  facet normal 0.5 0.866025 0
    outer loop
      vertex -4.82181 -4.81613 3.5
      vertex -6.58179 -3.8 -1.8
      vertex -6.58179 -3.8 3.5
    endloop
  endfacet
  facet normal -0 0 -1
    outer loop
      vertex -5.58222 4.05572 3.5
      vertex -6.58179 3.8 3.5
      vertex -4.82181 4.81613 3.5
    endloop
  endfacet
  facet normal 0 0 -1
    outer loop
      vertex -6.56229 2.13222 3.5
      vertex -6.58179 3.8 3.5
      vertex -5.58222 4.05572 3.5
    endloop
  endfacet
  facet normal 0 0 -1
    outer loop
      vertex -6.58179 3.8 3.5
      vertex -6.56229 2.13222 3.5
      vertex -6.58179 2.00908 3.5
    endloop
  endfacet
  facet normal 0 0 -1
    outer loop
      vertex 0 6.9 3.5
      vertex 0 7.6 3.5
      vertex 1.67078 6.63537 3.5
    endloop
  endfacet
  facet normal 0 -0 -1
    outer loop
      vertex 0 7.6 3.5
      vertex 0 6.9 3.5
      vertex -1.67078 6.63537 3.5
    endloop
  endfacet
  facet normal 0 0 -1
    outer loop
      vertex -6.58179 -3.8 3.5
      vertex -5.58222 -4.05572 3.5
      vertex -4.82181 -4.81613 3.5
    endloop
  endfacet
  facet normal 0 0 -1
    outer loop
      vertex -6.58179 -3.8 3.5
      vertex -6.56229 -2.13222 3.5
      vertex -5.58222 -4.05572 3.5
    endloop
  endfacet
  facet normal -0 0 -1
    outer loop
      vertex -6.56229 -2.13222 3.5
      vertex -6.58179 -3.8 3.5
      vertex -6.58179 -2.00908 3.5
    endloop
  endfacet
  facet normal 0 0 -1
    outer loop
      vertex 0 -7.6 3.5
      vertex 0 -6.9 3.5
      vertex 1.67078 -6.63537 3.5
    endloop
  endfacet
  facet normal -0 -0 -1
    outer loop
      vertex 0 -6.9 3.5
      vertex 0 -7.6 3.5
      vertex -1.67078 -6.63537 3.5
    endloop
  endfacet
  facet normal 0 0 -1
    outer loop
      vertex 6.58179 -3.8 3.5
      vertex 6.56229 -2.13222 3.5
      vertex 6.58179 -2.00908 3.5
    endloop
  endfacet
  facet normal -0 0 -1
    outer loop
      vertex 6.58179 -3.8 3.5
      vertex 5.58222 -4.05572 3.5
      vertex 6.56229 -2.13222 3.5
    endloop
  endfacet
  facet normal 0 -0 -1
    outer loop
      vertex 5.58222 -4.05572 3.5
      vertex 6.58179 -3.8 3.5
      vertex 4.82181 -4.81613 3.5
    endloop
  endfacet
  facet normal 0 0 -1
    outer loop
      vertex 6.56229 2.13222 3.5
      vertex 6.58179 3.8 3.5
      vertex 6.58179 2.00908 3.5
    endloop
  endfacet
  facet normal 0 0 -1
    outer loop
      vertex 5.58222 4.05572 3.5
      vertex 6.58179 3.8 3.5
      vertex 6.56229 2.13222 3.5
    endloop
  endfacet
  facet normal 0 0 -1
    outer loop
      vertex 6.58179 3.8 3.5
      vertex 5.58222 4.05572 3.5
      vertex 4.82181 4.81613 3.5
    endloop
  endfacet
  facet normal 0 0 1
    outer loop
      vertex 6.58179 2.00908 3.5
      vertex 6.58179 -2.00908 3.5
      vertex 6.9 0 3.5
    endloop
  endfacet
  facet normal 0 0 1
    outer loop
      vertex -6.58179 2.00908 3.5
      vertex -6.9 0 3.5
      vertex -6.58179 -2.00908 3.5
    endloop
  endfacet
  facet normal 0 0 1
    outer loop
      vertex 1.67078 6.63537 3.5
      vertex 4.05572 5.58222 3.5
      vertex 2.13222 6.56229 3.5
    endloop
  endfacet
  facet normal 0 0 1
    outer loop
      vertex 4.05572 5.58222 3.5
      vertex 1.67078 6.63537 3.5
      vertex 4.82181 4.81613 3.5
    endloop
  endfacet
  facet normal 0 0 1
    outer loop
      vertex 1.67078 -6.63537 3.5
      vertex 4.05572 -5.58222 3.5
      vertex 4.82181 -4.81613 3.5
    endloop
  endfacet
  facet normal 0 0 1
    outer loop
      vertex 4.05572 -5.58222 3.5
      vertex 1.67078 -6.63537 3.5
      vertex 2.13222 -6.56229 3.5
    endloop
  endfacet
  facet normal 0 0 1
    outer loop
      vertex -1.67078 -6.63537 3.5
      vertex -4.05572 -5.58222 3.5
      vertex -2.13222 -6.56229 3.5
    endloop
  endfacet
  facet normal -0 -0 1
    outer loop
      vertex -4.05572 -5.58222 3.5
      vertex -1.67078 -6.63537 3.5
      vertex -4.82181 -4.81613 3.5
    endloop
  endfacet
  facet normal 0 0 1
    outer loop
      vertex -4.05572 5.58222 3.5
      vertex -1.67078 6.63537 3.5
      vertex -2.13222 6.56229 3.5
    endloop
  endfacet
  facet normal 0 0 1
    outer loop
      vertex -1.67078 6.63537 3.5
      vertex -4.05572 5.58222 3.5
      vertex -4.82181 4.81613 3.5
    endloop
  endfacet
  facet normal -0.5 -0.866025 0
    outer loop
      vertex 0 7.6 -1.8
      vertex 1.67078 6.63537 3.5
      vertex 0 7.6 3.5
    endloop
  endfacet
  facet normal -0.5 -0.866025 2.04455e-08
    outer loop
      vertex 1.67078 6.63537 3.5
      vertex 0 7.6 -1.8
      vertex 4.82181 4.81613 3.5
    endloop
  endfacet
  facet normal -0.5 -0.866025 -1.56861e-08
    outer loop
      vertex 6.58179 3.8 -1.8
      vertex 4.82181 4.81613 3.5
      vertex 0 7.6 -1.8
    endloop
  endfacet
  facet normal -0.5 -0.866025 0
    outer loop
      vertex 4.82181 4.81613 3.5
      vertex 6.58179 3.8 -1.8
      vertex 6.58179 3.8 3.5
    endloop
  endfacet
  facet normal -1 0 0
    outer loop
      vertex 6.58179 3.8 -1.8
      vertex 6.58179 2.00908 3.5
      vertex 6.58179 3.8 3.5
    endloop
  endfacet
  facet normal -1 0 0
    outer loop
      vertex 6.58179 3.8 -1.8
      vertex 6.58179 -2.00908 3.5
      vertex 6.58179 2.00908 3.5
    endloop
  endfacet
  facet normal -1 0 0
    outer loop
      vertex 6.58179 -3.8 -1.8
      vertex 6.58179 -2.00908 3.5
      vertex 6.58179 3.8 -1.8
    endloop
  endfacet
  facet normal -1 -0 0
    outer loop
      vertex 6.58179 -2.00908 3.5
      vertex 6.58179 -3.8 -1.8
      vertex 6.58179 -3.8 3.5
    endloop
  endfacet
  facet normal -0.5 0.866025 0
    outer loop
      vertex 6.58179 -3.8 -1.8
      vertex 4.82181 -4.81613 3.5
      vertex 6.58179 -3.8 3.5
    endloop
  endfacet
  facet normal -0.5 0.866025 -1.56861e-08
    outer loop
      vertex 0 -7.6 -1.8
      vertex 4.82181 -4.81613 3.5
      vertex 6.58179 -3.8 -1.8
    endloop
  endfacet
  facet normal -0.5 0.866025 2.04455e-08
    outer loop
      vertex 4.82181 -4.81613 3.5
      vertex 0 -7.6 -1.8
      vertex 1.67078 -6.63537 3.5
    endloop
  endfacet
  facet normal -0.5 0.866025 0
    outer loop
      vertex 1.67078 -6.63537 3.5
      vertex 0 -7.6 -1.8
      vertex 0 -7.6 3.5
    endloop
  endfacet
  facet normal -0.744248 -0.117877 -0.657419
    outer loop
      vertex 4.25 0 6.5
      vertex 6.58179 2.00908 3.5
      vertex 6.9 0 3.5
    endloop
  endfacet
  facet normal -0.744248 -0.117878 -0.657419
    outer loop
      vertex 6.58179 2.00908 3.5
      vertex 4.25 0 6.5
      vertex 6.56229 2.13222 3.5
    endloop
  endfacet
  facet normal -0.671396 -0.342093 -0.657419
    outer loop
      vertex 5.58222 4.05572 3.5
      vertex 6.56229 2.13222 3.5
      vertex 3.43832 2.49809 6.5
    endloop
  endfacet
  facet normal -0.671396 0.342093 -0.657419
    outer loop
      vertex 6.56229 -2.13222 3.5
      vertex 5.58222 -4.05572 3.5
      vertex 3.43832 -2.49809 6.5
    endloop
  endfacet
  facet normal 0.117877 0.744248 -0.657419
    outer loop
      vertex -1.67078 -6.63537 3.5
      vertex 0 -4.25 6.5
      vertex 0 -6.9 3.5
    endloop
  endfacet
  facet normal 0.117878 0.744248 -0.657419
    outer loop
      vertex 0 -4.25 6.5
      vertex -1.67078 -6.63537 3.5
      vertex -2.13222 -6.56229 3.5
    endloop
  endfacet
  facet normal 0.744248 0.117877 -0.657419
    outer loop
      vertex -4.25 0 6.5
      vertex -6.58179 -2.00908 3.5
      vertex -6.9 0 3.5
    endloop
  endfacet
  facet normal 0.744248 0.117878 -0.657419
    outer loop
      vertex -6.58179 -2.00908 3.5
      vertex -4.25 0 6.5
      vertex -6.56229 -2.13222 3.5
    endloop
  endfacet
  facet normal 0.342093 -0.671396 -0.657419
    outer loop
      vertex -2.13222 6.56229 3.5
      vertex -1.31332 4.04199 6.5
      vertex -2.49809 3.43832 6.5
    endloop
  endfacet
  facet normal -0.342093 -0.671396 -0.657419
    outer loop
      vertex 2.13222 6.56229 3.5
      vertex 2.49809 3.43832 6.5
      vertex 1.31332 4.04199 6.5
    endloop
  endfacet
  facet normal 0.532823 -0.532823 -0.657419
    outer loop
      vertex -4.82181 4.81613 3.5
      vertex -2.49809 3.43832 6.5
      vertex -3.43832 2.49809 6.5
    endloop
  endfacet
  facet normal 0.532823 -0.532823 -0.657419
    outer loop
      vertex -2.49809 3.43832 6.5
      vertex -4.82181 4.81613 3.5
      vertex -4.05572 5.58222 3.5
    endloop
  endfacet
  facet normal 0.532823 -0.532823 -0.657419
    outer loop
      vertex -4.82181 4.81613 3.5
      vertex -3.43832 2.49809 6.5
      vertex -5.58222 4.05572 3.5
    endloop
  endfacet
  facet normal 0.342093 -0.671396 -0.657419
    outer loop
      vertex -2.13222 6.56229 3.5
      vertex -2.49809 3.43832 6.5
      vertex -4.05572 5.58222 3.5
    endloop
  endfacet
  facet normal -0.117878 -0.744248 -0.657419
    outer loop
      vertex 2.13222 6.56229 3.5
      vertex 1.31332 4.04199 6.5
      vertex 0 4.25 6.5
    endloop
  endfacet
  facet normal 0.671396 -0.342093 -0.657419
    outer loop
      vertex -5.58222 4.05572 3.5
      vertex -3.43832 2.49809 6.5
      vertex -6.56229 2.13222 3.5
    endloop
  endfacet
  facet normal -0.117877 -0.744248 -0.657419
    outer loop
      vertex 1.67078 6.63537 3.5
      vertex 0 4.25 6.5
      vertex 0 6.9 3.5
    endloop
  endfacet
  facet normal -0.117878 -0.744248 -0.657419
    outer loop
      vertex 0 4.25 6.5
      vertex 1.67078 6.63537 3.5
      vertex 2.13222 6.56229 3.5
    endloop
  endfacet
  facet normal 0.117878 -0.744248 -0.657419
    outer loop
      vertex -1.67078 6.63537 3.5
      vertex 0 4.25 6.5
      vertex -2.13222 6.56229 3.5
    endloop
  endfacet
  facet normal 0.117877 -0.744248 -0.657419
    outer loop
      vertex 0 4.25 6.5
      vertex -1.67078 6.63537 3.5
      vertex 0 6.9 3.5
    endloop
  endfacet
  facet normal -0.342093 0.671396 -0.657419
    outer loop
      vertex 2.49809 -3.43832 6.5
      vertex 4.05572 -5.58222 3.5
      vertex 2.13222 -6.56229 3.5
    endloop
  endfacet
  facet normal -0.744248 0.117878 -0.657419
    outer loop
      vertex 4.25 0 6.5
      vertex 6.56229 -2.13222 3.5
      vertex 4.04199 -1.31332 6.5
    endloop
  endfacet
  facet normal -0.744248 0.117877 -0.657419
    outer loop
      vertex 6.58179 -2.00908 3.5
      vertex 4.25 0 6.5
      vertex 6.9 0 3.5
    endloop
  endfacet
  facet normal -0.744248 0.117878 -0.657419
    outer loop
      vertex 4.25 0 6.5
      vertex 6.58179 -2.00908 3.5
      vertex 6.56229 -2.13222 3.5
    endloop
  endfacet
  facet normal 0.744248 -0.117878 -0.657419
    outer loop
      vertex -4.25 0 6.5
      vertex -6.58179 2.00908 3.5
      vertex -6.56229 2.13222 3.5
    endloop
  endfacet
  facet normal 0.744248 -0.117877 -0.657419
    outer loop
      vertex -6.58179 2.00908 3.5
      vertex -4.25 0 6.5
      vertex -6.9 0 3.5
    endloop
  endfacet
  facet normal 0.671396 0.342093 -0.657419
    outer loop
      vertex -3.43832 -2.49809 6.5
      vertex -5.58222 -4.05572 3.5
      vertex -6.56229 -2.13222 3.5
    endloop
  endfacet
  facet normal 0.744248 0.117878 -0.657419
    outer loop
      vertex -4.25 0 6.5
      vertex -4.04199 -1.31332 6.5
      vertex -6.56229 -2.13222 3.5
    endloop
  endfacet
  facet normal 0.117878 0.744248 -0.657419
    outer loop
      vertex -1.31332 -4.04199 6.5
      vertex 0 -4.25 6.5
      vertex -2.13222 -6.56229 3.5
    endloop
  endfacet
  facet normal 0.532823 0.532823 -0.657419
    outer loop
      vertex -4.82181 -4.81613 3.5
      vertex -2.49809 -3.43832 6.5
      vertex -4.05572 -5.58222 3.5
    endloop
  endfacet
  facet normal 0.532823 0.532823 -0.657419
    outer loop
      vertex -2.49809 -3.43832 6.5
      vertex -4.82181 -4.81613 3.5
      vertex -3.43832 -2.49809 6.5
    endloop
  endfacet
  facet normal 0.532823 0.532823 -0.657419
    outer loop
      vertex -3.43832 -2.49809 6.5
      vertex -4.82181 -4.81613 3.5
      vertex -5.58222 -4.05572 3.5
    endloop
  endfacet
  facet normal 0.117878 -0.744248 -0.657419
    outer loop
      vertex 0 4.25 6.5
      vertex -1.31332 4.04199 6.5
      vertex -2.13222 6.56229 3.5
    endloop
  endfacet
  facet normal -0.532823 -0.532823 -0.657419
    outer loop
      vertex 3.43832 2.49809 6.5
      vertex 4.82181 4.81613 3.5
      vertex 5.58222 4.05572 3.5
    endloop
  endfacet
  facet normal -0.532823 -0.532823 -0.657419
    outer loop
      vertex 2.49809 3.43832 6.5
      vertex 4.82181 4.81613 3.5
      vertex 3.43832 2.49809 6.5
    endloop
  endfacet
  facet normal -0.532823 -0.532823 -0.657419
    outer loop
      vertex 4.82181 4.81613 3.5
      vertex 2.49809 3.43832 6.5
      vertex 4.05572 5.58222 3.5
    endloop
  endfacet
  facet normal -0.342093 -0.671396 -0.657419
    outer loop
      vertex 4.05572 5.58222 3.5
      vertex 2.49809 3.43832 6.5
      vertex 2.13222 6.56229 3.5
    endloop
  endfacet
  facet normal -0.744248 -0.117878 -0.657419
    outer loop
      vertex 6.56229 2.13222 3.5
      vertex 4.25 0 6.5
      vertex 4.04199 1.31332 6.5
    endloop
  endfacet
  facet normal -0.671396 -0.342093 -0.657419
    outer loop
      vertex 6.56229 2.13222 3.5
      vertex 4.04199 1.31332 6.5
      vertex 3.43832 2.49809 6.5
    endloop
  endfacet
  facet normal -0.342093 0.671396 -0.657419
    outer loop
      vertex 2.49809 -3.43832 6.5
      vertex 2.13222 -6.56229 3.5
      vertex 1.31332 -4.04199 6.5
    endloop
  endfacet
  facet normal 0.671396 -0.342093 -0.657419
    outer loop
      vertex -3.43832 2.49809 6.5
      vertex -4.04199 1.31332 6.5
      vertex -6.56229 2.13222 3.5
    endloop
  endfacet
  facet normal 0.744248 -0.117878 -0.657419
    outer loop
      vertex -4.04199 1.31332 6.5
      vertex -4.25 0 6.5
      vertex -6.56229 2.13222 3.5
    endloop
  endfacet
  facet normal 0.671396 0.342093 -0.657419
    outer loop
      vertex -4.04199 -1.31332 6.5
      vertex -3.43832 -2.49809 6.5
      vertex -6.56229 -2.13222 3.5
    endloop
  endfacet
  facet normal -0.671396 0.342093 -0.657419
    outer loop
      vertex 4.04199 -1.31332 6.5
      vertex 6.56229 -2.13222 3.5
      vertex 3.43832 -2.49809 6.5
    endloop
  endfacet
  facet normal -0.532823 0.532823 -0.657419
    outer loop
      vertex 2.49809 -3.43832 6.5
      vertex 4.82181 -4.81613 3.5
      vertex 4.05572 -5.58222 3.5
    endloop
  endfacet
  facet normal -0.532823 0.532823 -0.657419
    outer loop
      vertex 4.82181 -4.81613 3.5
      vertex 3.43832 -2.49809 6.5
      vertex 5.58222 -4.05572 3.5
    endloop
  endfacet
  facet normal -0.532823 0.532823 -0.657419
    outer loop
      vertex 4.82181 -4.81613 3.5
      vertex 2.49809 -3.43832 6.5
      vertex 3.43832 -2.49809 6.5
    endloop
  endfacet
  facet normal 0.342093 0.671396 -0.657419
    outer loop
      vertex -1.31332 -4.04199 6.5
      vertex -2.13222 -6.56229 3.5
      vertex -2.49809 -3.43832 6.5
    endloop
  endfacet
  facet normal 0.342093 0.671396 -0.657419
    outer loop
      vertex -2.49809 -3.43832 6.5
      vertex -2.13222 -6.56229 3.5
      vertex -4.05572 -5.58222 3.5
    endloop
  endfacet
  facet normal -0.117878 0.744248 -0.657419
    outer loop
      vertex 1.67078 -6.63537 3.5
      vertex 0 -4.25 6.5
      vertex 2.13222 -6.56229 3.5
    endloop
  endfacet
  facet normal -0.117877 0.744248 -0.657419
    outer loop
      vertex 0 -4.25 6.5
      vertex 1.67078 -6.63537 3.5
      vertex 0 -6.9 3.5
    endloop
  endfacet
  facet normal -0.117878 0.744248 -0.657419
    outer loop
      vertex 1.31332 -4.04199 6.5
      vertex 2.13222 -6.56229 3.5
      vertex 0 -4.25 6.5
    endloop
  endfacet
  facet normal -0.987688 -0.156435 0
    outer loop
      vertex 4.25 0 6.5
      vertex 4.04199 1.31332 9.4
      vertex 4.04199 1.31332 6.5
    endloop
  endfacet
  facet normal -0.987688 -0.156435 0
    outer loop
      vertex 4.04199 1.31332 9.4
      vertex 4.25 0 6.5
      vertex 4.25 0 9.4
    endloop
  endfacet
  facet normal 0.987688 -0.156435 0
    outer loop
      vertex -4.25 0 9.4
      vertex -4.04199 1.31332 6.5
      vertex -4.04199 1.31332 9.4
    endloop
  endfacet
  facet normal 0.987688 -0.156435 0
    outer loop
      vertex -4.04199 1.31332 6.5
      vertex -4.25 0 9.4
      vertex -4.25 0 6.5
    endloop
  endfacet
  facet normal -0.156435 -0.987688 0
    outer loop
      vertex 0 4.25 6.5
      vertex 1.31332 4.04199 9.4
      vertex 0 4.25 9.4
    endloop
  endfacet
  facet normal -0.156435 -0.987688 -0
    outer loop
      vertex 1.31332 4.04199 9.4
      vertex 0 4.25 6.5
      vertex 1.31332 4.04199 6.5
    endloop
  endfacet
  facet normal 0.156435 0.987688 -0
    outer loop
      vertex 0 -4.25 6.5
      vertex -1.31332 -4.04199 9.4
      vertex 0 -4.25 9.4
    endloop
  endfacet
  facet normal 0.156435 0.987688 0
    outer loop
      vertex -1.31332 -4.04199 9.4
      vertex 0 -4.25 6.5
      vertex -1.31332 -4.04199 6.5
    endloop
  endfacet
  facet normal -0.707107 -0.707107 0
    outer loop
      vertex 3.43832 2.49809 6.5
      vertex 2.49809 3.43832 9.4
      vertex 2.49809 3.43832 6.5
    endloop
  endfacet
  facet normal -0.707107 -0.707107 0
    outer loop
      vertex 2.49809 3.43832 9.4
      vertex 3.43832 2.49809 6.5
      vertex 3.43832 2.49809 9.4
    endloop
  endfacet
  facet normal -0.891007 -0.45399 0
    outer loop
      vertex 4.04199 1.31332 6.5
      vertex 3.43832 2.49809 9.4
      vertex 3.43832 2.49809 6.5
    endloop
  endfacet
  facet normal -0.891007 -0.45399 0
    outer loop
      vertex 3.43832 2.49809 9.4
      vertex 4.04199 1.31332 6.5
      vertex 4.04199 1.31332 9.4
    endloop
  endfacet
  facet normal -0.45399 -0.891007 0
    outer loop
      vertex 1.31332 4.04199 6.5
      vertex 2.49809 3.43832 9.4
      vertex 1.31332 4.04199 9.4
    endloop
  endfacet
  facet normal -0.45399 -0.891007 -0
    outer loop
      vertex 2.49809 3.43832 9.4
      vertex 1.31332 4.04199 6.5
      vertex 2.49809 3.43832 6.5
    endloop
  endfacet
  facet normal 0.45399 -0.891007 0
    outer loop
      vertex -2.49809 3.43832 6.5
      vertex -1.31332 4.04199 9.4
      vertex -2.49809 3.43832 9.4
    endloop
  endfacet
  facet normal 0.45399 -0.891007 0
    outer loop
      vertex -1.31332 4.04199 9.4
      vertex -2.49809 3.43832 6.5
      vertex -1.31332 4.04199 6.5
    endloop
  endfacet
  facet normal 0.707107 -0.707107 0
    outer loop
      vertex -3.43832 2.49809 9.4
      vertex -2.49809 3.43832 6.5
      vertex -2.49809 3.43832 9.4
    endloop
  endfacet
  facet normal 0.707107 -0.707107 0
    outer loop
      vertex -2.49809 3.43832 6.5
      vertex -3.43832 2.49809 9.4
      vertex -3.43832 2.49809 6.5
    endloop
  endfacet
  facet normal 0.156435 -0.987688 0
    outer loop
      vertex -1.31332 4.04199 6.5
      vertex 0 4.25 9.4
      vertex -1.31332 4.04199 9.4
    endloop
  endfacet
  facet normal 0.156435 -0.987688 0
    outer loop
      vertex 0 4.25 9.4
      vertex -1.31332 4.04199 6.5
      vertex 0 4.25 6.5
    endloop
  endfacet
  facet normal -0.891007 0.45399 0
    outer loop
      vertex 3.43832 -2.49809 6.5
      vertex 4.04199 -1.31332 9.4
      vertex 4.04199 -1.31332 6.5
    endloop
  endfacet
  facet normal -0.891007 0.45399 0
    outer loop
      vertex 4.04199 -1.31332 9.4
      vertex 3.43832 -2.49809 6.5
      vertex 3.43832 -2.49809 9.4
    endloop
  endfacet
  facet normal 0.707107 0.707107 0
    outer loop
      vertex -2.49809 -3.43832 9.4
      vertex -3.43832 -2.49809 6.5
      vertex -3.43832 -2.49809 9.4
    endloop
  endfacet
  facet normal 0.707107 0.707107 0
    outer loop
      vertex -3.43832 -2.49809 6.5
      vertex -2.49809 -3.43832 9.4
      vertex -2.49809 -3.43832 6.5
    endloop
  endfacet
  facet normal 0.987688 0.156435 0
    outer loop
      vertex -4.04199 -1.31332 9.4
      vertex -4.25 0 6.5
      vertex -4.25 0 9.4
    endloop
  endfacet
  facet normal 0.987688 0.156435 0
    outer loop
      vertex -4.25 0 6.5
      vertex -4.04199 -1.31332 9.4
      vertex -4.04199 -1.31332 6.5
    endloop
  endfacet
  facet normal 0.891007 -0.45399 0
    outer loop
      vertex -4.04199 1.31332 9.4
      vertex -3.43832 2.49809 6.5
      vertex -3.43832 2.49809 9.4
    endloop
  endfacet
  facet normal 0.891007 -0.45399 0
    outer loop
      vertex -3.43832 2.49809 6.5
      vertex -4.04199 1.31332 9.4
      vertex -4.04199 1.31332 6.5
    endloop
  endfacet
  facet normal -0.987688 0.156435 0
    outer loop
      vertex 4.04199 -1.31332 6.5
      vertex 4.25 0 9.4
      vertex 4.25 0 6.5
    endloop
  endfacet
  facet normal -0.987688 0.156435 0
    outer loop
      vertex 4.25 0 9.4
      vertex 4.04199 -1.31332 6.5
      vertex 4.04199 -1.31332 9.4
    endloop
  endfacet
  facet normal -0.156435 0.987688 0
    outer loop
      vertex 1.31332 -4.04199 6.5
      vertex 0 -4.25 9.4
      vertex 1.31332 -4.04199 9.4
    endloop
  endfacet
  facet normal -0.156435 0.987688 0
    outer loop
      vertex 0 -4.25 9.4
      vertex 1.31332 -4.04199 6.5
      vertex 0 -4.25 6.5
    endloop
  endfacet
  facet normal -0.707107 0.707107 0
    outer loop
      vertex 2.49809 -3.43832 6.5
      vertex 3.43832 -2.49809 9.4
      vertex 3.43832 -2.49809 6.5
    endloop
  endfacet
  facet normal -0.707107 0.707107 0
    outer loop
      vertex 3.43832 -2.49809 9.4
      vertex 2.49809 -3.43832 6.5
      vertex 2.49809 -3.43832 9.4
    endloop
  endfacet
  facet normal 0.45399 0.891007 -0
    outer loop
      vertex -1.31332 -4.04199 6.5
      vertex -2.49809 -3.43832 9.4
      vertex -1.31332 -4.04199 9.4
    endloop
  endfacet
  facet normal 0.45399 0.891007 0
    outer loop
      vertex -2.49809 -3.43832 9.4
      vertex -1.31332 -4.04199 6.5
      vertex -2.49809 -3.43832 6.5
    endloop
  endfacet
  facet normal 0.891007 0.45399 0
    outer loop
      vertex -3.43832 -2.49809 9.4
      vertex -4.04199 -1.31332 6.5
      vertex -4.04199 -1.31332 9.4
    endloop
  endfacet
  facet normal 0.891007 0.45399 0
    outer loop
      vertex -4.04199 -1.31332 6.5
      vertex -3.43832 -2.49809 9.4
      vertex -3.43832 -2.49809 6.5
    endloop
  endfacet
  facet normal -0.45399 0.891007 0
    outer loop
      vertex 2.49809 -3.43832 6.5
      vertex 1.31332 -4.04199 9.4
      vertex 2.49809 -3.43832 9.4
    endloop
  endfacet
  facet normal -0.45399 0.891007 0
    outer loop
      vertex 1.31332 -4.04199 9.4
      vertex 2.49809 -3.43832 6.5
      vertex 1.31332 -4.04199 6.5
    endloop
  endfacet
endsolid OpenSCAD_Model
